<svg width="218" height="218" viewBox="0 0 218 218" fill="none" xmlns="http://www.w3.org/2000/svg">
<path d="M108.73 108.55C109.708 112.282 111.143 115.879 113 119.26C114.819 122.637 116.991 125.812 119.48 128.73C129.096 140.835 142.95 148.838 158.24 151.12C162.021 151.663 165.85 151.797 169.66 151.52C173.442 151.303 177.179 150.597 180.78 149.42L180.15 150.5C179.372 146.791 178.118 143.198 176.42 139.81C174.75 136.377 172.719 133.132 170.36 130.13C160.74 118.026 146.883 110.027 131.59 107.75C127.816 107.047 123.977 106.752 120.14 106.87C116.282 106.953 112.449 107.517 108.73 108.55ZM108.73 108.55C110.547 107.832 112.416 107.25 114.32 106.81C116.23 106.372 118.163 106.038 120.11 105.81C124.032 105.39 127.988 105.39 131.91 105.81C147.723 108.152 162.054 116.416 172 128.93C174.438 132.034 176.543 135.386 178.28 138.93C180.07 142.519 181.378 146.328 182.17 150.26L182.33 151.07L181.55 151.34C177.761 152.593 173.824 153.346 169.84 153.58C165.893 153.86 161.927 153.72 158.01 153.16C142.198 150.796 127.874 142.519 117.93 130C115.62 126.802 113.659 123.366 112.08 119.75C111.282 117.951 110.588 116.108 110 114.23C109.439 112.37 109.014 110.472 108.73 108.55Z" fill="#2C1D46"/>
<path d="M108.73 108.55C111.459 111.297 114.515 113.698 117.83 115.7C121.094 117.727 124.564 119.402 128.18 120.7C142.561 126.372 158.559 126.372 172.94 120.7C176.475 119.265 179.847 117.459 183 115.31C186.17 113.231 189.054 110.746 191.58 107.92V109.17C189.051 106.349 186.167 103.869 183 101.79C179.838 99.6469 176.456 97.8499 172.91 96.43C158.529 90.7583 142.531 90.7583 128.15 96.43C124.528 97.723 121.055 99.3992 117.79 101.43C114.489 103.422 111.446 105.813 108.73 108.55ZM108.73 108.55C109.955 107.02 111.292 105.583 112.73 104.25C114.172 102.926 115.688 101.684 117.27 100.53C120.441 98.1692 123.857 96.1576 127.46 94.53C142.322 88.6638 158.858 88.6638 173.72 94.53C177.396 95.9992 180.903 97.86 184.18 100.08C187.508 102.271 190.534 104.89 193.18 107.87L193.73 108.5L193.18 109.12C190.537 112.105 187.51 114.728 184.18 116.92C180.903 119.14 177.396 121.001 173.72 122.47C158.857 128.33 142.323 128.33 127.46 122.47C122.062 120.05 117.086 116.782 112.72 112.79C111.288 111.477 109.954 110.06 108.73 108.55Z" fill="#2C1D46"/>
<path d="M108.73 108.55C111.479 105.823 113.881 102.766 115.88 99.45C117.912 96.1889 119.589 92.719 120.88 89.1C126.57 74.7224 126.57 58.7176 120.88 44.34C119.447 40.7976 117.64 37.4185 115.49 34.26C113.411 31.093 110.931 28.209 108.11 25.68H109.36C106.548 28.2116 104.074 31.0954 102 34.26C99.8589 37.4228 98.0621 40.8053 96.64 44.35C90.9683 58.731 90.9683 74.729 96.64 89.11C97.9313 92.7322 99.6076 96.2054 101.64 99.47C103.618 102.779 106 105.829 108.73 108.55ZM108.73 108.55C107.201 107.327 105.767 105.99 104.44 104.55C103.113 103.108 101.867 101.592 100.71 100.01C98.3508 96.8381 96.3392 93.4218 94.71 89.82C88.8438 74.9579 88.8438 58.4221 94.71 43.56C96.1813 39.8852 98.042 36.3786 100.26 33.1C102.452 29.7696 105.075 26.7434 108.06 24.1L108.68 23.56L109.31 24.1C112.29 26.7459 114.909 29.7718 117.1 33.1C119.32 36.3774 121.181 39.8843 122.65 43.56C128.516 58.4221 128.516 74.9579 122.65 89.82C121.031 93.4301 119.019 96.8507 116.65 100.02C115.496 101.602 114.254 103.118 112.93 104.56C111.629 105.991 110.225 107.324 108.73 108.55Z" fill="#2C1D46"/>
<path d="M108.73 108.55C107.742 104.807 106.298 101.2 104.43 97.81C102.608 94.4325 100.432 91.258 97.94 88.34C88.3254 76.2418 74.468 68.2548 59.18 66C55.402 65.4587 51.5771 65.3213 47.77 65.59C43.9844 65.8097 40.2433 66.5189 36.64 67.7L37.27 66.62C38.0479 70.3131 39.3017 73.8896 41 77.26C42.6479 80.7108 44.6593 83.976 47 87C56.6241 99.0991 70.4794 107.097 85.77 109.38C89.5441 110.083 93.3828 110.378 97.22 110.26C101.113 110.173 104.98 109.598 108.73 108.55ZM108.73 108.55C106.916 109.27 105.051 109.851 103.15 110.29C101.236 110.728 99.3001 111.062 97.35 111.29C93.43 111.73 89.4743 111.75 85.55 111.35C69.7448 109.004 55.4233 100.735 45.49 88.22C43.0467 85.1197 40.9414 81.7674 39.21 78.22C37.4121 74.6701 36.0939 70.8971 35.29 67L35.13 66.19L35.92 65.92C39.708 64.6622 43.6452 63.909 47.63 63.68C51.5771 63.3996 55.5428 63.5404 59.46 64.1C75.2608 66.4387 89.5834 74.692 99.53 87.19C103.002 91.9752 105.676 97.2905 107.45 102.93C108.02 104.768 108.448 106.647 108.73 108.55Z" fill="#2C1D46"/>
<path d="M108.73 108.55C106.007 105.801 102.953 103.399 99.64 101.4C96.3745 99.3692 92.9015 97.693 89.28 96.4C74.899 90.7283 58.901 90.7283 44.52 96.4C40.9743 97.8199 37.5915 99.6169 34.43 101.76C31.263 103.839 28.379 106.319 25.85 109.14V107.89C28.3787 110.714 31.2628 113.198 34.43 115.28C37.5928 117.421 40.9753 119.218 44.52 120.64C58.9039 126.314 74.906 126.314 89.29 120.64C92.9073 119.344 96.3768 117.668 99.64 115.64C102.95 113.659 106.003 111.278 108.73 108.55ZM108.73 108.55C107.505 110.08 106.168 111.517 104.73 112.85C103.285 114.171 101.77 115.413 100.19 116.57C97.0181 118.929 93.6018 120.941 90 122.57C75.135 128.439 58.595 128.439 43.73 122.57C40.0544 121.092 36.5477 119.225 33.27 117C29.9438 114.802 26.9184 112.18 24.27 109.2L23.73 108.58L24.27 107.95C26.9236 104.978 29.9484 102.36 33.27 100.16C36.5486 97.942 40.0552 96.0813 43.73 94.61C58.5967 88.7502 75.1332 88.7502 90 94.61C95.401 97.0199 100.386 100.27 104.77 104.24C106.198 105.573 107.522 107.014 108.73 108.55Z" fill="#2C1D46"/>
<path d="M108.73 108.55C112.474 107.57 116.081 106.129 119.47 104.26C122.869 102.439 126.064 100.26 129 97.76C141.109 88.149 149.11 74.2923 151.38 59C151.921 55.2186 152.059 51.3904 151.79 47.58C151.569 43.7978 150.86 40.0601 149.68 36.46L150.76 37.09C147.026 37.8589 143.409 39.1129 140 40.82C136.564 42.4896 133.315 44.5211 130.31 46.88C118.241 56.5194 110.27 70.3716 108 85.65C107.297 89.4241 107.002 93.2628 107.12 97.1C107.179 100.969 107.72 104.815 108.73 108.55ZM108.73 108.55C108.021 106.744 107.443 104.889 107 103C106.562 101.09 106.228 99.1567 106 97.21C105.56 93.29 105.54 89.3343 105.94 85.41C108.3 69.5865 116.582 55.2499 129.11 45.3C132.216 42.8645 135.567 40.7598 139.11 39.02C142.677 37.2323 146.463 35.9178 150.37 35.11L151.18 34.95L151.45 35.74C152.709 39.5243 153.462 43.4584 153.69 47.44C153.98 51.3902 153.84 55.3603 153.27 59.28C150.924 75.0853 142.659 89.4086 130.15 99.35C126.956 101.666 123.519 103.627 119.9 105.2C118.106 105.99 116.27 106.681 114.4 107.27C112.544 107.835 110.649 108.263 108.73 108.55Z" fill="#C6BDD8"/>
<path d="M108.73 108.55C107.71 112.284 107.159 116.13 107.09 120C106.977 123.837 107.272 127.675 107.97 131.45C110.235 146.755 118.231 160.628 130.34 170.26C133.343 172.59 136.58 174.601 140 176.26C143.383 177.963 146.973 179.22 150.68 180L149.6 180.63C150.781 177.027 151.49 173.286 151.71 169.5C151.979 165.693 151.841 161.868 151.3 158.09C149.041 142.813 141.072 128.961 129 119.33C126.082 116.838 122.907 114.662 119.53 112.84C116.123 110.965 112.495 109.524 108.73 108.55ZM108.73 108.55C110.661 108.841 112.569 109.269 114.44 109.83C116.307 110.419 118.139 111.11 119.93 111.9C123.544 113.481 126.98 115.442 130.18 117.75C142.693 127.69 150.961 142.013 153.31 157.82C153.875 161.737 154.015 165.703 153.73 169.65C153.502 173.635 152.749 177.572 151.49 181.36L151.22 182.15L150.41 181.99C146.499 181.189 142.712 179.871 139.15 178.07C135.603 176.339 132.25 174.233 129.15 171.79C116.642 161.848 108.369 147.532 106 131.73C105.6 127.806 105.62 123.85 106.06 119.93C106.293 117.981 106.627 116.045 107.06 114.13C107.486 112.233 108.044 110.369 108.73 108.55Z" fill="#2C1D46"/>
<path d="M108.73 108.55C112.464 109.57 116.31 110.121 120.18 110.19C124.017 110.303 127.855 110.008 131.63 109.31C146.921 107.035 160.778 99.04 170.4 86.94C172.759 83.9347 174.79 80.6863 176.46 77.25C178.159 73.8661 179.413 70.2762 180.19 66.57L180.82 67.65C177.22 66.4698 173.482 65.7606 169.7 65.54C165.89 65.2712 162.061 65.4087 158.28 65.95C142.988 68.2198 129.131 76.2207 119.52 88.33C117.017 91.2466 114.831 94.4211 113 97.8C111.137 101.193 109.703 104.804 108.73 108.55ZM108.73 108.55C109.02 106.618 109.451 104.709 110.02 102.84C110.609 100.973 111.3 99.1406 112.09 97.35C113.669 93.7344 115.63 90.2982 117.94 87.1C127.874 74.5911 142.197 66.3321 158 64C161.917 63.4404 165.883 63.2996 169.83 63.58C173.815 63.8081 177.752 64.5613 181.54 65.82L182.32 66.09L182.16 66.9C181.357 70.8087 180.042 74.5946 178.25 78.16C176.51 81.7027 174.406 85.0542 171.97 88.16C162.027 100.671 147.706 108.942 131.9 111.3C126.015 111.923 120.068 111.565 114.3 110.24C112.406 109.807 110.545 109.242 108.73 108.55Z" fill="#2C1D46"/>
<path d="M108.73 108.55C109.75 104.816 110.301 100.97 110.37 97.1C110.481 93.2634 110.189 89.4258 109.5 85.65C107.223 70.3574 99.2238 56.5001 87.12 46.88C84.1182 44.5212 80.8732 42.4897 77.44 40.82C74.052 39.122 70.459 37.8683 66.75 37.09L67.83 36.46C66.6531 40.0605 65.9472 43.7982 65.73 47.58C65.4529 51.39 65.587 55.2187 66.13 59C68.4071 74.2926 76.4062 88.1499 88.51 97.77C91.4351 100.263 94.6162 102.438 98 104.26C101.385 106.129 104.99 107.57 108.73 108.55ZM108.73 108.55C106.79 108.265 104.875 107.834 103 107.26C101.13 106.671 99.294 105.98 97.5 105.19C93.8844 103.611 90.4482 101.65 87.25 99.34C74.7461 89.3927 66.4889 75.0659 64.15 59.26C63.5904 55.3394 63.4496 51.3704 63.73 47.42C63.9733 43.4442 64.7365 39.5175 66 35.74L66.27 34.95L67.08 35.11C70.9878 35.9069 74.7736 37.2148 78.34 39C81.8853 40.7351 85.2373 42.8401 88.34 45.28C100.851 55.2226 109.122 69.544 111.48 85.35C111.9 89.2721 111.9 93.2279 111.48 97.15C111.252 99.1001 110.918 101.036 110.48 102.95C110.04 104.858 109.454 106.73 108.73 108.55Z" fill="#2C1D46"/>
<path d="M108.73 108.55C104.991 109.539 101.387 110.983 98 112.85C94.6225 114.672 91.448 116.848 88.53 119.34C76.4209 128.954 68.4146 142.808 66.13 158.1C65.5871 161.878 65.453 165.703 65.73 169.51C65.9462 173.295 66.6521 177.036 67.83 180.64L66.75 180C70.461 179.219 74.0546 177.959 77.44 176.25C80.8732 174.58 84.1182 172.549 87.12 170.19C99.2238 160.57 107.223 146.713 109.5 131.42C110.201 127.646 110.499 123.807 110.39 119.97C110.308 116.11 109.75 112.274 108.73 108.55ZM108.73 108.55C109.45 110.364 110.031 112.229 110.47 114.13C111.805 119.897 112.143 125.849 111.47 131.73C109.126 147.536 100.857 161.858 88.34 171.79C85.2421 174.237 81.8894 176.342 78.34 178.07C74.778 179.875 70.9913 181.196 67.08 182L66.27 182.16L66 181.37C64.747 177.581 63.9939 173.644 63.76 169.66C63.4796 165.713 63.6204 161.747 64.18 157.83C66.5433 142.028 74.8086 127.71 87.31 117.76C92.081 114.293 97.3786 111.615 103 109.83C104.875 109.259 106.79 108.832 108.73 108.55Z" fill="#C6BDD8"/>
<path d="M108.73 108.55C105.981 111.277 103.579 114.334 101.58 117.65C99.5574 120.916 97.8817 124.385 96.58 128C90.9083 142.381 90.9083 158.379 96.58 172.76C98.0208 176.307 99.8379 179.69 102 182.85C104.088 186.013 106.571 188.896 109.39 191.43H108.14C110.961 188.901 113.441 186.017 115.52 182.85C117.663 179.688 119.46 176.306 120.88 172.76C126.56 158.381 126.56 142.379 120.88 128C119.589 124.378 117.912 120.905 115.88 117.64C113.881 114.327 111.479 111.273 108.73 108.55ZM108.73 108.55C110.26 109.775 111.697 111.112 113.03 112.55C114.355 113.995 115.6 115.51 116.76 117.09C119.094 120.26 121.085 123.669 122.7 127.26C128.58 142.123 128.58 158.667 122.7 173.53C121.229 177.208 119.369 180.718 117.15 184C114.959 187.328 112.34 190.354 109.36 193L108.73 193.54L108.11 193C105.13 190.352 102.508 187.326 100.31 184C98.0995 180.717 96.2394 177.211 94.76 173.54C88.9002 158.673 88.9002 142.137 94.76 127.27C96.3718 123.67 98.3666 120.253 100.71 117.08C101.87 115.5 103.115 113.985 104.44 112.54C105.771 111.108 107.205 109.774 108.73 108.55Z" fill="#2C1D46"/>
<path d="M108.73 108.55C104.996 107.53 101.15 106.979 97.28 106.91C93.443 106.798 89.6048 107.093 85.83 107.79C70.5346 110.052 56.6732 118.05 47.06 130.16C44.7202 133.163 42.7088 136.408 41.06 139.84C39.3545 143.226 38.0973 146.819 37.32 150.53L36.69 149.45C40.294 150.627 44.035 151.332 47.82 151.55C51.6267 151.827 55.4521 151.693 59.23 151.15C74.5226 148.873 88.3799 140.874 98 128.77C100.496 125.851 102.672 122.673 104.49 119.29C106.343 115.899 107.767 112.292 108.73 108.55ZM108.73 108.55C108.444 110.479 108.016 112.384 107.45 114.25C106.861 116.12 106.17 117.956 105.38 119.75C103.799 123.364 101.838 126.801 99.53 130C89.5803 142.501 75.2618 150.767 59.46 153.13C55.5428 153.69 51.5771 153.83 47.63 153.55C43.6458 153.316 39.7092 152.563 35.92 151.31L35.13 151.04L35.29 150.23C36.0931 146.329 37.4113 142.553 39.21 139C40.9414 135.453 43.0467 132.1 45.49 129C55.4256 116.485 69.7453 108.214 85.55 105.86C89.4721 105.44 93.4279 105.44 97.35 105.86C99.3001 106.088 101.236 106.422 103.15 106.86C105.048 107.288 106.913 107.852 108.73 108.55Z" fill="#2C1D46"/>
</svg>
