<svg id="Calque_1" data-name="Calque 1" xmlns="http://www.w3.org/2000/svg" viewBox="0 0 217.52 217.31"><defs><style>.cls-1{fill:#2c1d46;}.cls-2{fill:#c6bdd8;}</style></defs><path class="cls-1" d="M98.62,205.57l3,.12a13.6,13.6,0,0,1,2.34,3.05c.31.52.64,1,1,1.51a5.8,5.8,0,0,0,.75.89,1.12,1.12,0,0,0,.66.18h.45l.1-2.5a12.63,12.63,0,0,0,0-1.74.83.83,0,0,0-.31-.62,1.83,1.83,0,0,0-1-.24h-.54v-.38l5.39.22v.38h-.36a2,2,0,0,0-1,.15.8.8,0,0,0-.38.55,13.36,13.36,0,0,0-.14,1.79l-.22,5.52a12.63,12.63,0,0,0,0,1.74.76.76,0,0,0,.31.55,2.63,2.63,0,0,0,1.11.19H110v.38h-4.17a9.16,9.16,0,0,1-2.6-.4,3.6,3.6,0,0,1-1.59-1,2.39,2.39,0,0,1-.56-1.66,2.54,2.54,0,0,1,.89-1.85,4,4,0,0,1,2.43-.87,9,9,0,0,1-2.18-2.55,11,11,0,0,0-1.92-2.32,3,3,0,0,0-1.7-.64Zm8.27,6.15H105.6a5,5,0,0,0-1.16.13,1.89,1.89,0,0,0-.81.41,2,2,0,0,0-.51.73,3.34,3.34,0,0,0-.22,1.13,2.89,2.89,0,0,0,.52,1.93,3.39,3.39,0,0,0,2.55.81h.71Z"/><path class="cls-1" d="M98.53,211.26a5.36,5.36,0,0,1-2.37,3.86,6.28,6.28,0,0,1-4.55.88,6.37,6.37,0,0,1-4.09-2.23,5.4,5.4,0,0,1-1.08-4.48,5.61,5.61,0,0,1,2.33-3.92,6.86,6.86,0,0,1,8.74,1.39A5.61,5.61,0,0,1,98.53,211.26Zm-1.86-.35a6.44,6.44,0,0,0-.44-4.19,3.92,3.92,0,0,0-3-1.86,3.66,3.66,0,0,0-3.18.88,6.27,6.27,0,0,0-1.73,3.83,6.59,6.59,0,0,0,.44,4.15,4.27,4.27,0,0,0,5.9,1.21l.29-.21a6.38,6.38,0,0,0,1.72-3.79Z"/><path class="cls-1" d="M79.21,207.87l-1.8-4.22a11.36,11.36,0,0,0-1.32-2.57,2.27,2.27,0,0,0-1-.51l.11-.37,5.35,1.56-.1.37a2.9,2.9,0,0,0-1.17-.18.5.5,0,0,0-.47.39.82.82,0,0,0,0,.49,10.59,10.59,0,0,0,.47,1.22L80.51,207l2.3-1.57a10.69,10.69,0,0,0,1.08-.79,1,1,0,0,0,.34-.5c.16-.54-.17-.94-1-1.18l.11-.37,4.18,1.22-.11.36a3.61,3.61,0,0,0-1.31,0,3.79,3.79,0,0,0-1.21.42,20.82,20.82,0,0,0-1.77,1.17l-2.44,1.64,1.84,4.25.6,1.37a2.86,2.86,0,0,0,.46.77,2,2,0,0,0,.9.51l-.11.36-4.59-1.39.11-.37H80c.61.18,1,.1,1.06-.23a.9.9,0,0,0,0-.46,9.55,9.55,0,0,0-.41-1l-1.28-3L77,209.93l-1,.7a.74.74,0,0,0-.24.36.52.52,0,0,0,.18.56,3.34,3.34,0,0,0,1,.45l-.11.37-4-1.11.11-.37a2.65,2.65,0,0,0,1.92-.1,13.26,13.26,0,0,0,2-1.23Z"/><path class="cls-1" d="M67.1,201.16,71,202.85l.55-.54A7.68,7.68,0,0,0,73,200.7a.89.89,0,0,0,0-.84,1.52,1.52,0,0,0-.71-.59l.15-.35,3.07,1.33-.15.35a1.85,1.85,0,0,0-1.23,0,6.83,6.83,0,0,0-1.49,1.24c-.06.07-.31.31-.75.73l-6.1,5.87-.3-.12.09-9.7v-1.29a1.55,1.55,0,0,0-.18-.76,1.8,1.8,0,0,0-.7-.61l.15-.35,4.06,1.75-.15.35a3.26,3.26,0,0,0-1.06-.32.44.44,0,0,0-.45.32,4.43,4.43,0,0,0-.08,1.15Zm0,.39-.07,5.2,3.72-3.62Z"/><path class="cls-1" d="M56.27,190.36l1.55,13.13,3.94-6.75a5.56,5.56,0,0,0,.56-1.15,1.07,1.07,0,0,0-.18-.76,2.7,2.7,0,0,0-1-.9l.19-.33L65,195.72l-.2.33a3,3,0,0,0-1.21-.37,1,1,0,0,0-.69.19,7.8,7.8,0,0,0-.72,1.08l-3,5.15a8.08,8.08,0,0,0-.77,1.56.81.81,0,0,0,0,.68,3.44,3.44,0,0,0,1,.7l-.2.33-2.86-1.68-1.31-11-3.4,5.81a2.73,2.73,0,0,0-.4,1,1.1,1.1,0,0,0,.31.73,3.1,3.1,0,0,0,.89.72l-.19.33-3.53-2,.2-.33a2.86,2.86,0,0,0,1.1.33,1,1,0,0,0,.72-.18,3.12,3.12,0,0,0,.61-.83l4.7-8Z"/><path class="cls-1" d="M46.32,183l-.12,13.22,4.8-6.19a5.17,5.17,0,0,0,.71-1.08,1.14,1.14,0,0,0-.09-.77,2.82,2.82,0,0,0-.91-1l.23-.3,3.33,2.56-.23.3a3.1,3.1,0,0,0-1.16-.51.93.93,0,0,0-.71.1,7.37,7.37,0,0,0-.85,1l-3.64,4.73a8.5,8.5,0,0,0-1,1.45.81.81,0,0,0,0,.68,3.28,3.28,0,0,0,.85.81l-.24.3-2.63-2,.09-11-4.1,5.33a2.55,2.55,0,0,0-.52.92,1.09,1.09,0,0,0,.21.76,3.28,3.28,0,0,0,.79.83l-.23.3L37.66,191l.24-.3a2.81,2.81,0,0,0,1.06.47,1,1,0,0,0,.73-.09,3.61,3.61,0,0,0,.71-.75l5.6-7.5Z"/><path class="cls-1" d="M35.21,177.73l-.28-.28,2.62-2.34,6.67,6.5-.26.28-.17-.17c-.4-.39-.71-.59-.93-.59a1,1,0,0,0-.62.19A14.16,14.16,0,0,0,41,182.53l-3.85,4A14.57,14.57,0,0,0,36,187.74a.81.81,0,0,0-.16.64,2.21,2.21,0,0,0,.65.86l-.27.27-5.76-5.61,1.77-2.2.28.28a4.17,4.17,0,0,0-.7,1.65,1.64,1.64,0,0,0,.22,1.08A8.16,8.16,0,0,0,33.16,186l1.12,1.09,3.3-3.38-.86-.84a3.35,3.35,0,0,0-.92-.7.72.72,0,0,0-.61,0,3.91,3.91,0,0,0-.85.72l-.28-.27,2.69-2.76.28.27a3.27,3.27,0,0,0-.77,1,.72.72,0,0,0,0,.61,3.9,3.9,0,0,0,.67.79l.89.86,1.86-1.91a5.61,5.61,0,0,0,1.45-1.86,1.93,1.93,0,0,0-.74-1.22l-.6-.59a4.08,4.08,0,0,0-1.21-.85,2.52,2.52,0,0,0-1.44-.09A5.5,5.5,0,0,0,35.21,177.73Z"/><path class="cls-1" d="M26.06,170.68a4.81,4.81,0,0,1-1-2.84,2.66,2.66,0,0,1,1-2,2.81,2.81,0,0,1,1.94-.58,2.91,2.91,0,0,1,1.78.68,11.74,11.74,0,0,1,1.79,2l2.67,3.51-.3.23-.26-.34a2,2,0,0,0-.75-.69.87.87,0,0,0-.67.07,14.63,14.63,0,0,0-1.47,1L26.43,175a13.46,13.46,0,0,0-1.36,1.14.81.81,0,0,0-.23.59,2.72,2.72,0,0,0,.55,1l.13.17-.3.23L24,176.68,22.67,175q-2.8-3.66-.69-5.28a2.16,2.16,0,0,1,1.88-.43A4.8,4.8,0,0,1,26.06,170.68Zm1.11,1.71-.21-.28a3.84,3.84,0,0,0-2-1.61,2.29,2.29,0,0,0-1.85.59,3.07,3.07,0,0,0-.93,1,1.79,1.79,0,0,0-.12,1.07,4.38,4.38,0,0,0,.86,1.55c.13.17.27.35.42.52Zm.32-.25,2-1.52c.85-.65,1.38-1.07,1.59-1.28a1,1,0,0,0,.33-.64,1.61,1.61,0,0,0-.43-.93,2.61,2.61,0,0,0-1.75-1.17,2.83,2.83,0,0,0-2,.71A2.56,2.56,0,0,0,26,169.15a4,4,0,0,0,1.07,2.5Z"/><path class="cls-1" d="M14.23,162.16l-1.93-3.23.33-.19a2,2,0,0,0,.86.78,1.17,1.17,0,0,0,.78.06,8.07,8.07,0,0,0,1.24-.64L18.72,157a13.11,13.11,0,0,1,1.89-1,2.85,2.85,0,0,1,1.5-.15,3.67,3.67,0,0,1,1.7.74,6.55,6.55,0,0,1,2.36,4.17,3.31,3.31,0,0,1-.37,2,4.49,4.49,0,0,1-1.64,1.48l-1,.59-3,1.8a12,12,0,0,0-1.45,1,.77.77,0,0,0-.29.56,2.49,2.49,0,0,0,.44,1l.14.22-.33.19L16,165.16l.33-.19.11.19a2.85,2.85,0,0,0,.68.86.72.72,0,0,0,.61,0,10.29,10.29,0,0,0,1.57-.84l3-1.82a13.37,13.37,0,0,0,2.16-1.49,2.33,2.33,0,0,0,.67-1.51,3.56,3.56,0,0,0-.59-2.1,4.35,4.35,0,0,0-1.29-1.41,3,3,0,0,0-1.47-.58,2.68,2.68,0,0,0-1.28.18,13.68,13.68,0,0,0-1.69.9l-3.29,2a6,6,0,0,0-1.09.78,1,1,0,0,0-.29.71,2.58,2.58,0,0,0,.35,1.11Z"/><path class="cls-1" d="M17,141.78l1.21,2.78A13.85,13.85,0,0,1,16.49,148c-.32.52-.62,1.06-.9,1.59a6,6,0,0,0-.47,1.07,1.16,1.16,0,0,0,.13.68l.18.41,2.29-1c.81-.36,1.33-.61,1.57-.75a.89.89,0,0,0,.42-.55,1.82,1.82,0,0,0-.23-1l-.21-.49.35-.16,2.15,4.94-.35.15-.15-.33a2,2,0,0,0-.56-.84.77.77,0,0,0-.66-.1,12.68,12.68,0,0,0-1.68.65l-5.06,2.21a11.24,11.24,0,0,0-1.56.76.72.72,0,0,0-.36.52,2.53,2.53,0,0,0,.3,1.08l.08.17-.35.16-.72-1.45c-.47-1-.84-1.73-1.09-2.31a9.67,9.67,0,0,1-.77-2.52A3.5,3.5,0,0,1,9.08,149a2.33,2.33,0,0,1,1.25-1.22,2.49,2.49,0,0,1,2,0,4,4,0,0,1,1.84,1.81,8.89,8.89,0,0,1,1.35-3.07,11.35,11.35,0,0,0,1.26-2.74A3,3,0,0,0,16.6,142ZM15.08,151.9c-.18-.38-.36-.76-.56-1.16a5,5,0,0,0-.63-1,2,2,0,0,0-.72-.56,1.89,1.89,0,0,0-.88-.13,3.31,3.31,0,0,0-1.12.29,2.92,2.92,0,0,0-1.5,1.31,3.33,3.33,0,0,0,.38,2.65c.08.19.18.4.31.64Z"/><path class="cls-1" d="M14.39,132,6.5,142.56l7.5-2.2a5.1,5.1,0,0,0,1.2-.45,1.08,1.08,0,0,0,.39-.68,2.74,2.74,0,0,0-.13-1.36l.36-.11,1.18,4-.36.11a3.1,3.1,0,0,0-.63-1.1.91.91,0,0,0-.63-.33,6.13,6.13,0,0,0-1.27.28L8.39,142.4a7.85,7.85,0,0,0-1.64.6.84.84,0,0,0-.43.53,3.25,3.25,0,0,0,.21,1.15l-.37.11-.93-3.19,6.58-8.87-6.46,1.9a2.2,2.2,0,0,0-1,.44,1,1,0,0,0-.28.73,3.65,3.65,0,0,0,.15,1.14l-.37.11-1.14-3.92.36-.11a3,3,0,0,0,.58,1,1,1,0,0,0,.65.36,3.39,3.39,0,0,0,1-.18l8.94-2.62Z"/><path class="cls-1" d="M3,131.67l-.38.07-1-5.05.37-.07.05.23a2.58,2.58,0,0,0,.34,1,.67.67,0,0,0,.56.25,11.65,11.65,0,0,0,1.76-.25l5.42-1a16.71,16.71,0,0,0,1.7-.39.91.91,0,0,0,.54-.44,1.89,1.89,0,0,0,0-1l-.07-.33.38-.07,1,5-.37.07-.07-.32a2,2,0,0,0-.36-1,.87.87,0,0,0-.63-.24,13.42,13.42,0,0,0-1.78.27l-5.42,1a13.84,13.84,0,0,0-1.69.4.75.75,0,0,0-.46.43A2.49,2.49,0,0,0,3,131.4Z"/><path class="cls-1" d="M8,115.12v-.39l3.51-.14,1,9.27h-.38v-.23a1.79,1.79,0,0,0-.34-1,1,1,0,0,0-.6-.25,12.87,12.87,0,0,0-1.75.12L4,123.09a16.21,16.21,0,0,0-1.68.25.81.81,0,0,0-.53.39,2.19,2.19,0,0,0,0,1.08H1.36l-.87-8,2.76-.57v.39a4.45,4.45,0,0,0-1.6.83,1.68,1.68,0,0,0-.52,1,8.16,8.16,0,0,0,.06,1.71l.17,1.55L6,121.26l-.13-1.19a3.38,3.38,0,0,0-.26-1.13.72.72,0,0,0-.47-.38,4.2,4.2,0,0,0-1.12,0v-.38l3.82-.42,0,.39a3.51,3.51,0,0,0-1.24.29.75.75,0,0,0-.36.51,4.18,4.18,0,0,0,0,1l.14,1.23,2.65-.28a5.76,5.76,0,0,0,2.31-.51c.21-.2.28-.67.2-1.42l-.09-.83a4.15,4.15,0,0,0-.38-1.43,2.67,2.67,0,0,0-1-1A5.42,5.42,0,0,0,8,115.12Z"/><path class="cls-1" d="M11.48,101.8v3a13.69,13.69,0,0,1-3,2.41c-.51.35-1,.71-1.48,1.08a5.39,5.39,0,0,0-.87.78,1.13,1.13,0,0,0-.16.67v.52h2.5a16.83,16.83,0,0,0,1.74,0,.86.86,0,0,0,.61-.32,1.84,1.84,0,0,0,.22-1v-.54h.38l-.09,5.38H11v-.37a2,2,0,0,0-.17-1,.85.85,0,0,0-.56-.36,12.08,12.08,0,0,0-1.8-.11l-5.52-.09a11.12,11.12,0,0,0-1.73.05.69.69,0,0,0-.55.32,2.78,2.78,0,0,0-.17,1.11v.19H0v-4.23a9.67,9.67,0,0,1,.34-2.62,3.57,3.57,0,0,1,1-1.61,2.36,2.36,0,0,1,1.64-.6,2.56,2.56,0,0,1,1.87.85,4,4,0,0,1,.94,2.4,9,9,0,0,1,2.49-2.23,11.14,11.14,0,0,0,2.28-2,3,3,0,0,0,.59-1.72Zm-5.94,8.46V109a4.92,4.92,0,0,0-.17-1.15A1.87,1.87,0,0,0,5,107a1.85,1.85,0,0,0-.74-.49A3.14,3.14,0,0,0,3,106.26a2.86,2.86,0,0,0-1.91.57c-.49.38-.74,1.24-.76,2.57v.71Z"/><path class="cls-1" d="M4.88,93.85A2.08,2.08,0,1,1,9,94.42a2,2,0,0,1-.81,1.38,2,2,0,0,1-1.54.4,2.08,2.08,0,0,1-1.77-2.35Z"/><path class="cls-1" d="M9.06,82.81l-2-4.16c-.46-1-.84-1.49-1.14-1.57s-.78.19-1,1l-.37-.1,1.17-4.08.37.1A2.76,2.76,0,0,0,6,75a4.15,4.15,0,0,0,.27,1.09c.14.35.47,1,1,2L8.55,80.6l5.25-2.88A14.82,14.82,0,0,0,16,76.33a2.34,2.34,0,0,0,.65-1.14l.35.07-1.61,5.61-.37-.1.06-.22a2.59,2.59,0,0,0,.17-1.17.42.42,0,0,0-.31-.33c-.22-.07-.83.18-1.82.73L9.12,82l.46,1,2,.56a12.27,12.27,0,0,0,1.69.42.92.92,0,0,0,.68-.16,1.81,1.81,0,0,0,.48-.94l.06-.2.36.1-1.39,4.86-.37-.1.1-.34a2,2,0,0,0,.1-1,.89.89,0,0,0-.45-.5,12.57,12.57,0,0,0-1.7-.57L5.83,83.56a11.17,11.17,0,0,0-1.73-.41.72.72,0,0,0-.59.19A3.16,3.16,0,0,0,3,84.46l-.37-.1L4,79.57l.37.1-.06.2A2.9,2.9,0,0,0,4.14,81a.81.81,0,0,0,.4.47A12.78,12.78,0,0,0,6.22,82Z"/><path class="cls-1" d="M7.09,71.26l-.35-.14,1.89-4.86L9,66.4l-.09.22a2.77,2.77,0,0,0-.27,1.06.7.7,0,0,0,.38.58,9.8,9.8,0,0,0,1.62.73l5.13,2a14,14,0,0,0,1.65.58.85.85,0,0,0,.68-.08,1.93,1.93,0,0,0,.57-.89l.12-.31.36.14-1.92,4.83-.36-.14.12-.31a1.82,1.82,0,0,0,.2-1,.82.82,0,0,0-.4-.54,14.12,14.12,0,0,0-1.64-.73l-5.14-2A11.78,11.78,0,0,0,8.35,70a.72.72,0,0,0-.62.11,2.59,2.59,0,0,0-.55,1Z"/><path class="cls-1" d="M24,61l-13,2.3,7,3.54a5.85,5.85,0,0,0,1.19.49,1,1,0,0,0,.74-.23A2.69,2.69,0,0,0,20.77,66l.34.17-1.9,3.75-.34-.18a2.75,2.75,0,0,0,.29-1.23,1,1,0,0,0-.22-.68,7,7,0,0,0-1.12-.65L12.5,64.45a8.36,8.36,0,0,0-1.6-.68.81.81,0,0,0-.68.09,3.29,3.29,0,0,0-.64,1l-.34-.17,1.5-3,10.88-2-6-3a2.53,2.53,0,0,0-1-.34,1.05,1.05,0,0,0-.7.35,3.07,3.07,0,0,0-.67.93l-.34-.17,1.85-3.64.34.17a3.17,3.17,0,0,0-.27,1.13,1.05,1.05,0,0,0,.23.7,3.11,3.11,0,0,0,.86.56l8.3,4.22Z"/><path class="cls-1" d="M27.14,49.1l.22-.33,2.78,2.14L25,58.67l-.32-.21.13-.19a1.68,1.68,0,0,0,.41-1,1,1,0,0,0-.3-.57,11.7,11.7,0,0,0-1.42-1l-4.6-3.06a13.32,13.32,0,0,0-1.45-.88.82.82,0,0,0-.65,0,2.13,2.13,0,0,0-.73.79l-.32-.21,4.46-6.69L22.69,47l-.21.32a4.64,4.64,0,0,0-1.76-.38,1.61,1.61,0,0,0-1,.42,8.19,8.19,0,0,0-1.06,1.35L17.8,50l3.93,2.62.66-1a3.18,3.18,0,0,0,.52-1,.68.68,0,0,0-.11-.6,4.64,4.64,0,0,0-.88-.71l.22-.32,3.21,2.13-.22.33A3.26,3.26,0,0,0,24,50.87a.74.74,0,0,0-.61.16,4.09,4.09,0,0,0-.64.8l-.69,1,2.22,1.47a5.93,5.93,0,0,0,2.1,1.09c.29,0,.65-.33,1.06-1l.47-.69a4,4,0,0,0,.62-1.35,2.69,2.69,0,0,0-.18-1.43A5.57,5.57,0,0,0,27.14,49.1Z"/><path class="cls-1" d="M31,49.66l-2.8-2.29.26-.32q3.2,1.7,4.86-.35A2.46,2.46,0,0,0,34,44.85a2.12,2.12,0,0,0-.76-1.46,1.94,1.94,0,0,0-1.46-.46,7,7,0,0,0-2.26.85,14.4,14.4,0,0,1-2.08.94,3.06,3.06,0,0,1-1.56.11,3,3,0,0,1-1.39-.64,2.66,2.66,0,0,1-1-1.91,3,3,0,0,1,.72-2.15,4,4,0,0,1,1-.89,3.29,3.29,0,0,1,1.57-.39,1.86,1.86,0,0,0-.49-1l.23-.28,2.28,1.86-.23.28a4,4,0,0,0-2.28-.42,2.68,2.68,0,0,0-1.74,1,1.74,1.74,0,0,0,.11,2.61,1.76,1.76,0,0,0,1.38.36,7.73,7.73,0,0,0,2.28-.84c.7-.37,1.42-.7,2.15-1a3.09,3.09,0,0,1,1.51-.13,3.14,3.14,0,0,1,1.5.72,3,3,0,0,1,1.19,2.25,3.61,3.61,0,0,1-.93,2.56,3.87,3.87,0,0,1-3.05,1.49,2.68,2.68,0,0,0,.59,1Z"/><path class="cls-1" d="M28.59,35.77l-.27-.26,3.55-3.73.27.26-.14.22a2.8,2.8,0,0,0-.65.88.72.72,0,0,0,.13.6A12.5,12.5,0,0,0,32.71,35l4,3.81A15.71,15.71,0,0,0,38,40a.88.88,0,0,0,.68.18,1.86,1.86,0,0,0,.85-.61l.23-.24.28.26-3.58,3.68L36.19,43l.23-.24A2,2,0,0,0,37,41.9a.86.86,0,0,0-.17-.64A11.8,11.8,0,0,0,35.56,40l-4-3.8A14.24,14.24,0,0,0,30.26,35a.76.76,0,0,0-.62-.13,2.73,2.73,0,0,0-.88.7Z"/><path class="cls-1" d="M36.94,34.37a5.38,5.38,0,0,1-1.4-4.31,6.16,6.16,0,0,1,2.27-4,6.37,6.37,0,0,1,4.35-1.69,5.42,5.42,0,0,1,4.11,2.08,5.61,5.61,0,0,1,1.48,4.31A6.87,6.87,0,0,1,41,36.5,5.61,5.61,0,0,1,36.94,34.37Zm1.48-1.2a6.46,6.46,0,0,0,3.48,2.38,3.88,3.88,0,0,0,3.35-1.08,3.65,3.65,0,0,0,1.39-3,6.29,6.29,0,0,0-1.81-3.8,6.4,6.4,0,0,0-3.44-2.34A4.24,4.24,0,0,0,36.64,29c0,.13,0,.27,0,.4A6.44,6.44,0,0,0,38.42,33.17Z"/><path class="cls-1" d="M57,22.05l1.77,2.8-8,5.32-.21-.32.28-.19a1.8,1.8,0,0,0,.72-.7.89.89,0,0,0,0-.68,12.08,12.08,0,0,0-.94-1.53l-3.07-4.59a11.49,11.49,0,0,0-1-1.4A.73.73,0,0,0,46,20.5,2.46,2.46,0,0,0,45,21l-.21.14-.21-.32,4.49-3,.22.31-.42.28a3,3,0,0,0-.83.72.72.72,0,0,0,0,.61,10.34,10.34,0,0,0,.92,1.53l3.27,4.9a12.21,12.21,0,0,0,.91,1.23.71.71,0,0,0,.57.2A3.06,3.06,0,0,0,54.83,27l.71-.47a4.71,4.71,0,0,0,1.18-1,2.18,2.18,0,0,0,.35-1.19,6.19,6.19,0,0,0-.4-2.08Z"/><path class="cls-1" d="M56.5,19.48A5.33,5.33,0,0,1,56.15,15a6.25,6.25,0,0,1,3.16-3.39,6.35,6.35,0,0,1,4.62-.6,5.37,5.37,0,0,1,3.51,3,5.6,5.6,0,0,1,.42,4.54,6.84,6.84,0,0,1-7.88,4A5.65,5.65,0,0,1,56.5,19.48Zm1.72-.81A6.44,6.44,0,0,0,61,21.81a3.92,3.92,0,0,0,3.51-.26A3.67,3.67,0,0,0,66.57,19a6.34,6.34,0,0,0-.86-4.12A6.42,6.42,0,0,0,63,11.76a4.26,4.26,0,0,0-5.49,2.48c0,.11-.08.23-.11.34A6.41,6.41,0,0,0,58.22,18.67Z"/><path class="cls-1" d="M76.3,11.64,80.89,10l.13.38a2.27,2.27,0,0,0-1,.51.76.76,0,0,0-.18.63,10.77,10.77,0,0,0,.52,1.76l.39,1.13a2,2,0,0,0-.35.09,5,5,0,0,0-1.45.92,7.44,7.44,0,0,1-2.3,1.36,5.47,5.47,0,0,1-7.05-3.16l-.1-.3a6.34,6.34,0,0,1,0-4.5,5.12,5.12,0,0,1,3.32-3.08,4.77,4.77,0,0,1,4.07.34,4.07,4.07,0,0,0-.08-1.3l.37-.13,1.24,3.55L78,8.37a4.44,4.44,0,0,0-2-2.11,3.72,3.72,0,0,0-2.8-.1,3.81,3.81,0,0,0-2.22,2c-.49,1-.41,2.44.26,4.33s1.49,3.1,2.47,3.64a3.66,3.66,0,0,0,3.08.25,3.37,3.37,0,0,0,1.37-.85,2.08,2.08,0,0,0,.62-1.13,2.83,2.83,0,0,0-.18-1.29,3.8,3.8,0,0,0-.51-1.1.65.65,0,0,0-.48-.26,2.56,2.56,0,0,0-.9.2l-.25.09Z"/><path class="cls-1" d="M80.5,4l-.09-.38,5-1.22.09.37-.23.06a2.78,2.78,0,0,0-1,.39.79.79,0,0,0-.21.58,10.39,10.39,0,0,0,.33,1.75l1.31,5.36a12.23,12.23,0,0,0,.48,1.67.88.88,0,0,0,.46.52,2,2,0,0,0,1,0L88,13l.09.37-5,1.22L83,14.26l.32-.08a1.8,1.8,0,0,0,.93-.42.81.81,0,0,0,.21-.63,13.4,13.4,0,0,0-.36-1.76L82.79,6a11.83,11.83,0,0,0-.48-1.67.73.73,0,0,0-.45-.44A2.5,2.5,0,0,0,80.74,4Z"/><path class="cls-1" d="M97.29,8.26l.39-.06L98,11.7l-9.21,1.44-.06-.37H89a1.72,1.72,0,0,0,1-.39,1,1,0,0,0,.22-.61A14.72,14.72,0,0,0,90,10l-.86-5.46a15.72,15.72,0,0,0-.33-1.66.81.81,0,0,0-.41-.51,2.19,2.19,0,0,0-1.08,0L87.23,2l8-1.25.69,2.73-.38.06A4.35,4.35,0,0,0,94.63,2a1.59,1.59,0,0,0-1-.47,7.55,7.55,0,0,0-1.71.14l-1.54.24.73,4.66L92.3,6.4a3.3,3.3,0,0,0,1.11-.32.78.78,0,0,0,.36-.49,3.84,3.84,0,0,0-.07-1.12l.38-.06.6,3.81-.38.06A3.49,3.49,0,0,0,94,7.06a.8.8,0,0,0-.52-.34,3.75,3.75,0,0,0-1,.07L91.21,7l.41,2.63a5.66,5.66,0,0,0,.62,2.28c.21.21.68.25,1.42.14l.83-.13a4,4,0,0,0,1.41-.45,2.55,2.55,0,0,0,.93-1.1A5.38,5.38,0,0,0,97.29,8.26Z"/><path class="cls-1" d="M105.45,3.73a2.08,2.08,0,0,1,2.14,2A2,2,0,0,1,107,7.26a2,2,0,0,1-1.46.65,2.08,2.08,0,0,1-2.14-2h0a1.94,1.94,0,0,1,.57-1.5A2,2,0,0,1,105.45,3.73Z"/><path class="cls-1" d="M114.13,0,116,.1c1.54.08,2.58.15,3.11.21a8.28,8.28,0,0,1,3.81,1.16,5,5,0,0,1,1.86,2.28,6.42,6.42,0,0,1,.37,3.07A6.56,6.56,0,0,1,124.52,9a4.68,4.68,0,0,1-1.2,1.59,4.5,4.5,0,0,1-1.61.87,6.25,6.25,0,0,1-1.66.26,17.6,17.6,0,0,1-2.18-.14l-5-.52v-.38h.46a2,2,0,0,0,1-.07.87.87,0,0,0,.41-.53A13.42,13.42,0,0,0,115,8.33l.56-5.4a11.3,11.3,0,0,0,.11-1.74.75.75,0,0,0-.28-.57,2.72,2.72,0,0,0-1.08-.26H114Zm3.42.59-.78,7.48c-.09.71-.14,1.42-.16,2.14a.84.84,0,0,0,.3.71,2.67,2.67,0,0,0,1.29.34,6.27,6.27,0,0,0,2.44-.15,3.41,3.41,0,0,0,1.74-1.41,6.41,6.41,0,0,0,.94-2.94,7.92,7.92,0,0,0-.1-2.57,4.52,4.52,0,0,0-.86-1.92,3.51,3.51,0,0,0-1.42-1.11,7.69,7.69,0,0,0-2.11-.48C118.41.64,118,.61,117.55.59Z"/><path class="cls-1" d="M137.09,15.19l-3-.7a13.55,13.55,0,0,1-1.73-3.44c-.23-.57-.47-1.13-.74-1.68a5,5,0,0,0-.57-1,1.13,1.13,0,0,0-.62-.3L130,8l-.58,2.43a16.45,16.45,0,0,0-.33,1.7.89.89,0,0,0,.18.67,1.86,1.86,0,0,0,1,.44l.53.12-.09.37-5.25-1.23.09-.37.36.08a1.89,1.89,0,0,0,1,.05.82.82,0,0,0,.48-.47,13,13,0,0,0,.48-1.73l1.26-5.38a12.44,12.44,0,0,0,.33-1.7.81.81,0,0,0-.2-.61,3,3,0,0,0-1-.4H128l.09-.37,1.59.29c1.05.19,1.89.36,2.5.51a9.08,9.08,0,0,1,2.48.89,3.5,3.5,0,0,1,1.37,1.33,2.3,2.3,0,0,1,.23,1.72A2.51,2.51,0,0,1,135.06,8a4,4,0,0,1-2.55.4,9,9,0,0,1,1.65,2.91,11.74,11.74,0,0,0,1.44,2.65,3,3,0,0,0,1.55.94Zm-7-7.61,1.27.25a4.51,4.51,0,0,0,1.16.09,2,2,0,0,0,.87-.25,1.9,1.9,0,0,0,.64-.62A3.21,3.21,0,0,0,134.46,6a2.93,2.93,0,0,0-.14-2A3.35,3.35,0,0,0,132,2.69l-.69-.13Z"/><path class="cls-1" d="M145.15,13.77l-4-1.48-.52.57a7.34,7.34,0,0,0-1.3,1.68.89.89,0,0,0,.06.84,1.4,1.4,0,0,0,.74.55l-.13.33-3.14-1.15.13-.36a1.8,1.8,0,0,0,1.23-.11,6.37,6.37,0,0,0,1.42-1.32c.06-.07.29-.33.71-.77l5.76-6.21.3.11.45,9.69.08,1.28a1.53,1.53,0,0,0,.23.75,1.61,1.61,0,0,0,.73.58l-.13.36-4.16-1.53.13-.35a3.63,3.63,0,0,0,1.08.26.47.47,0,0,0,.43-.35,4.43,4.43,0,0,0,0-1.15Zm0-.4-.22-5.19L141.42,12Z"/><path class="cls-1" d="M152.37,9.45l.16-.34,4.66,2.18-.16.35-.22-.1a2.76,2.76,0,0,0-1-.34.72.72,0,0,0-.53.31,11.25,11.25,0,0,0-.84,1.57l-2.34,5a15.12,15.12,0,0,0-.69,1.6.83.83,0,0,0,0,.69,1.7,1.7,0,0,0,.85.62l.3.15-.17.34-4.64-2.22.16-.34.3.14a2.07,2.07,0,0,0,1,.26.81.81,0,0,0,.56-.37,12,12,0,0,0,.83-1.59l2.35-5a11.76,11.76,0,0,0,.67-1.6.74.74,0,0,0-.07-.63,2.77,2.77,0,0,0-.94-.61Z"/><path class="cls-1" d="M161.54,27,160,13.82l-4,6.73a4.93,4.93,0,0,0-.57,1.15,1.13,1.13,0,0,0,.19.76,2.7,2.7,0,0,0,1,.9l-.19.33-3.62-2.13.2-.33a3,3,0,0,0,1.2.37.89.89,0,0,0,.7-.19,5.9,5.9,0,0,0,.72-1.07l3-5.14a7.58,7.58,0,0,0,.78-1.56.81.81,0,0,0,0-.68,3.39,3.39,0,0,0-.94-.7l.19-.32,2.86,1.68,1.27,11,3.42-5.8a2.57,2.57,0,0,0,.4-1,1.11,1.11,0,0,0-.3-.73,3.1,3.1,0,0,0-.89-.72l.19-.33,3.52,2.07-.19.33a2.7,2.7,0,0,0-1.11-.33,1,1,0,0,0-.72.18,3.5,3.5,0,0,0-.61.82l-4.74,8Z"/><path class="cls-1" d="M171.3,28.61,167.9,26l-.67.39a7,7,0,0,0-1.74,1.23.94.94,0,0,0-.19.82,1.45,1.45,0,0,0,.55.74l-.23.3-2.66-2,.23-.3a1.8,1.8,0,0,0,1.2.25,6.45,6.45,0,0,0,1.75-.85l.9-.52,7.32-4.25.26.2-2.41,9.39-.3,1.25a1.47,1.47,0,0,0,0,.78,1.73,1.73,0,0,0,.53.77l-.23.3-3.53-2.67.23-.31a3.32,3.32,0,0,0,1,.57.49.49,0,0,0,.52-.21,4.62,4.62,0,0,0,.35-1.09Zm.12-.39,1.31-5-4.48,2.62Z"/><path class="cls-1" d="M180.42,35.76l3.5,3.36-.27.29a2.74,2.74,0,0,0-.9-.64.84.84,0,0,0-.65.13,10.55,10.55,0,0,0-1.33,1.26l-.83.86a2,2,0,0,0-.23-.27,4.84,4.84,0,0,0-1.48-.88A7.53,7.53,0,0,1,176,38.44a5.47,5.47,0,0,1-.36-7.74l.2-.21a6.36,6.36,0,0,1,4-2,5.13,5.13,0,0,1,4.25,1.56,4.77,4.77,0,0,1,1.54,3.79,4,4,0,0,0,1.12-.67l.29.28-2.6,2.71-.29-.27a4.5,4.5,0,0,0,1-2.9,3.68,3.68,0,0,0-1.18-2.54,3.81,3.81,0,0,0-2.81-1.06c-1.11,0-2.36.76-3.75,2.2s-2.09,2.72-2.12,3.85a3.75,3.75,0,0,0,2.55,3.69,2.18,2.18,0,0,0,1.29,0,3,3,0,0,0,1.07-.75,3.66,3.66,0,0,0,.75-1,.66.66,0,0,0,0-.55,2.66,2.66,0,0,0-.58-.71l-.19-.18Z"/><path class="cls-1" d="M189.49,48l.25.31-2.86,2L181,43.07l.3-.25.15.18c.35.43.64.67.86.7a1,1,0,0,0,.63-.12,12.05,12.05,0,0,0,1.4-1.07l4.27-3.5a11.29,11.29,0,0,0,1.26-1.13.77.77,0,0,0,.23-.61,2.15,2.15,0,0,0-.55-.93l.3-.24,5.1,6.22-2,2-.24-.3a4.49,4.49,0,0,0,.87-1.57,1.6,1.6,0,0,0-.1-1.1,7.6,7.6,0,0,0-1-1.4l-1-1.21-3.65,3,.76.92a2.91,2.91,0,0,0,.84.8.7.7,0,0,0,.6.06,3.87,3.87,0,0,0,.93-.62l.25.3-3,2.44-.25-.3a3.05,3.05,0,0,0,.87-.92.75.75,0,0,0,0-.62,3.55,3.55,0,0,0-.58-.85l-.78-1-2.06,1.69c-1,.85-1.58,1.42-1.65,1.7s.13.71.6,1.29l.54.65a3.89,3.89,0,0,0,1.1,1,2.49,2.49,0,0,0,1.42.25A5.35,5.35,0,0,0,189.49,48Z"/><path class="cls-1" d="M197.65,61.05l-2.89,1.64-4.92-8.2.33-.2.17.29a2,2,0,0,0,.67.76.79.79,0,0,0,.67,0,10.44,10.44,0,0,0,1.58-.85L198,51.64a12,12,0,0,0,1.45-1,.73.73,0,0,0,.29-.56,2.49,2.49,0,0,0-.44-1l-.13-.21.33-.2,2.78,4.63-.33.2-.25-.43a2.83,2.83,0,0,0-.69-.81.75.75,0,0,0-.62,0,11.72,11.72,0,0,0-1.56.84l-5,3a9.11,9.11,0,0,0-1.28.84.7.7,0,0,0-.22.55,3,3,0,0,0,.5,1.18l.44.73a5.13,5.13,0,0,0,.95,1.23,2.12,2.12,0,0,0,1.18.4,6.5,6.5,0,0,0,2.1-.29Z"/><path class="cls-1" d="M201.44,65.31l4.32.41a3.35,3.35,0,0,0,1.41-.06.89.89,0,0,0,.45-.54,1.46,1.46,0,0,0-.18-1.06l.34-.17,1.58,3.32-.35.17a2.12,2.12,0,0,0-1-.87,9.66,9.66,0,0,0-2-.37l-4.89-.47-1.35.64a11.82,11.82,0,0,0-1.61.86.79.79,0,0,0-.35.58,2.58,2.58,0,0,0,.34,1.08l-.34.17-2.06-4.34.34-.16.08.17a2,2,0,0,0,.6.82.81.81,0,0,0,.66.08,14.28,14.28,0,0,0,1.66-.71l1.25-.59,3-4.51a11.54,11.54,0,0,0,1-1.74,1.52,1.52,0,0,0-.17-1l.34-.17,2,4.13-.35.16c-.36-.77-.72-1.07-1.07-.9a2.37,2.37,0,0,0-.66.78Z"/><path class="cls-1" d="M203.43,78.59l10.11,1.1,1,3.29-.36.12-.13-.4a2.68,2.68,0,0,0-.46-1,.68.68,0,0,0-.59-.18,10.15,10.15,0,0,0-1.72.46L206,83.64a13.33,13.33,0,0,0-1.64.59.85.85,0,0,0-.48.5,1.9,1.9,0,0,0,.12,1l.15.47-.36.12-1.58-5.06.36-.12.12.38a1.89,1.89,0,0,0,.48.89.84.84,0,0,0,.65.17,11.3,11.3,0,0,0,1.73-.46L212.4,80l-11-1.21-.12-.37,8.27-7.33-6.29,2a13.24,13.24,0,0,0-1.73.63,1.51,1.51,0,0,0-.66.75,2,2,0,0,0,0,1.29l-.36.11L199.3,72l.36-.11a2.09,2.09,0,0,0,.73,1,1.43,1.43,0,0,0,1,.26,11.69,11.69,0,0,0,1.85-.48l4.67-1.47a11.79,11.79,0,0,0,1.63-.6.77.77,0,0,0,.42-.48,2.58,2.58,0,0,0-.19-1.1l-.09-.29.36-.12,1,3.27Z"/><path class="cls-1" d="M209.58,89.31l-2.33.42a16.62,16.62,0,0,0-1.7.37.91.91,0,0,0-.54.44,1.88,1.88,0,0,0,0,1l.07.37-.38.06L203.78,87l.38-.07v.3a2,2,0,0,0,.36,1,.84.84,0,0,0,.62.24,10.73,10.73,0,0,0,1.78-.24l5.44-1a12.18,12.18,0,0,0,1.69-.39.7.7,0,0,0,.47-.42,2.5,2.5,0,0,0-.05-1.12v-.2l.38-.07.3,1.38c.24,1.1.41,2,.53,2.58a10.22,10.22,0,0,1,.2,2.7,3.08,3.08,0,0,1-.68,1.69,2.52,2.52,0,0,1-1.62.9,3.1,3.1,0,0,1-1.68-.11,2.69,2.69,0,0,1-1.26-1,7,7,0,0,1-.84-2.59Zm.42,0,.14.79a5.75,5.75,0,0,0,.47,1.51,1.86,1.86,0,0,0,1,.83,3.27,3.27,0,0,0,3.47-.92,3.17,3.17,0,0,0,.25-2.3,8.45,8.45,0,0,0-.19-.84Z"/><path class="cls-1" d="M211.71,104.87,211.33,99l-2.7.17a17.1,17.1,0,0,0-1.74.18.85.85,0,0,0-.58.37,1.8,1.8,0,0,0-.14,1V101h-.38l-.32-5h.38v.29a2,2,0,0,0,.24,1,.85.85,0,0,0,.59.32,10.82,10.82,0,0,0,1.8,0l5.52-.36a11.17,11.17,0,0,0,1.73-.19.76.76,0,0,0,.52-.37,2.77,2.77,0,0,0,.07-1.11v-.21h.38l.32,5.05h-.38v-.2a2.8,2.8,0,0,0-.21-1.07.7.7,0,0,0-.53-.31,10.58,10.58,0,0,0-1.78,0L211.9,99l.37,5.87,2.22-.14a11.17,11.17,0,0,0,1.73-.19.72.72,0,0,0,.52-.36,2.61,2.61,0,0,0,.08-1.11v-.3h.38l.32,5.12h-.38v-.17a2.61,2.61,0,0,0-.2-1.07.7.7,0,0,0-.53-.31,8.82,8.82,0,0,0-1.78,0l-5.51.35a14.27,14.27,0,0,0-1.73.17.91.91,0,0,0-.59.38,1.8,1.8,0,0,0-.13,1v.25h-.38l-.32-5.11h.38v.39a1.84,1.84,0,0,0,.25,1,.85.85,0,0,0,.59.32,13.51,13.51,0,0,0,1.8,0Z"/><path class="cls-1" d="M210,116.36l.26-4.27-.7-.33a6.85,6.85,0,0,0-2-.77.91.91,0,0,0-.79.3,1.41,1.41,0,0,0-.31.86h-.38l.2-3.34h.38a1.81,1.81,0,0,0,.46,1.15,6.92,6.92,0,0,0,1.67,1,6.33,6.33,0,0,1,.94.45l7.6,3.74v.32l-9.15,3.22-1.21.44a1.49,1.49,0,0,0-.65.43,1.7,1.7,0,0,0-.34.87h-.38l.27-4.41h.38a3.13,3.13,0,0,0,.05,1.1.46.46,0,0,0,.46.32,4.85,4.85,0,0,0,1.11-.32Zm.38-.12,4.91-1.7-4.72-2.28Z"/><path class="cls-1" d="M214,120.93l.06-.38,2.66.5L215,131.83l-2.68-.39.06-.35a4.29,4.29,0,0,0,1.67-.25,1.37,1.37,0,0,0,.71-.61,5.57,5.57,0,0,0,.33-1.26l.29-1.79-7.84-1.3a14.19,14.19,0,0,0-1.72-.22.89.89,0,0,0-.66.23,1.9,1.9,0,0,0-.36,1l-.09.54-.38-.06.92-5.53.37.06-.09.57a1.89,1.89,0,0,0,0,1,.84.84,0,0,0,.5.44,11.74,11.74,0,0,0,1.76.38l7.84,1.29.27-1.64a7.15,7.15,0,0,0,.14-1.46,1.32,1.32,0,0,0-.51-.79A4.31,4.31,0,0,0,214,120.93Z"/><path class="cls-1" d="M214.13,133.34l.37.1-1.29,5-.37-.1.06-.23A2.69,2.69,0,0,0,213,137a.7.7,0,0,0-.41-.46,11,11,0,0,0-1.69-.53l-5.35-1.39a14.32,14.32,0,0,0-1.7-.37.88.88,0,0,0-.67.16,2,2,0,0,0-.45,1l-.09.32-.37-.1,1.3-5,.37.09-.09.33a2,2,0,0,0-.07,1,.85.85,0,0,0,.46.49,14.8,14.8,0,0,0,1.72.52l5.34,1.39a12.54,12.54,0,0,0,1.7.36.76.76,0,0,0,.61-.18,2.6,2.6,0,0,0,.42-1Z"/><path class="cls-1" d="M199.59,143.12c.07-.26.15-.52.25-.8a6.23,6.23,0,0,1,3.06-3.6,5.68,5.68,0,0,1,4.62-.11,5.36,5.36,0,0,1,3.32,3.08,6.3,6.3,0,0,1,0,4.64A7.62,7.62,0,0,1,209.1,149a4.91,4.91,0,0,1-2.74,1.41,6.35,6.35,0,0,1-6-2.47,5.29,5.29,0,0,1-1-3.46l-.42-2.81c-.05.17-.09.31-.13.43a13.32,13.32,0,0,1-2.26,3.69,9.4,9.4,0,0,0-1.61,2.52,1.58,1.58,0,0,0,.44,2.06l-.12.32a2.84,2.84,0,0,1-1.41-1.54,3,3,0,0,1,.06-2.21,3.91,3.91,0,0,1,.79-1.35,12.47,12.47,0,0,1,1.55-1.36,6.57,6.57,0,0,0,2.34-2.67,2.4,2.4,0,0,0-.06-1.67,1.43,1.43,0,0,1-.14-.79.24.24,0,0,1,.29-.2l.07,0q.19.08.27.48c.06.28.12.78.19,1.51l.06.46Zm7.22-2.75a6.46,6.46,0,0,0-4.2-.4,3.9,3.9,0,0,0-2.41,2.58,3.67,3.67,0,0,0,.23,3.29,8,8,0,0,0,7.57,2.82,4.26,4.26,0,0,0,2.36-5.54l-.15-.33A6.46,6.46,0,0,0,206.81,140.37Z"/><path class="cls-1" d="M203.77,161.2,202,164.53l-.34-.18a2,2,0,0,0,.23-1.14,1.19,1.19,0,0,0-.36-.7,6.85,6.85,0,0,0-1.19-.72L197,160.05a14.91,14.91,0,0,1-1.84-1.1,2.8,2.8,0,0,1-.91-1.21,3.7,3.7,0,0,1-.25-1.83,6.13,6.13,0,0,1,.69-2.17,5.88,5.88,0,0,1,1.64-2,3.23,3.23,0,0,1,1.86-.7,4.46,4.46,0,0,1,2.13.62l1,.54,3.1,1.63a10.22,10.22,0,0,0,1.57.74.77.77,0,0,0,.63,0,2.57,2.57,0,0,0,.65-.91l.12-.23.34.18-2.4,4.54L205,158l.1-.2a2.39,2.39,0,0,0,.38-1,.73.73,0,0,0-.29-.54,9.8,9.8,0,0,0-1.53-.91l-3.14-1.65a13.8,13.8,0,0,0-2.39-1.06,2.24,2.24,0,0,0-1.64.22,3.48,3.48,0,0,0-1.49,1.59,4.54,4.54,0,0,0-.53,1.83,3.11,3.11,0,0,0,.27,1.56,2.83,2.83,0,0,0,.82,1,13.29,13.29,0,0,0,1.66,1l3.39,1.79a6.09,6.09,0,0,0,1.23.53,1.07,1.07,0,0,0,.76-.13,2.37,2.37,0,0,0,.76-.87Z"/><path class="cls-1" d="M189.38,169.26l-.23.32-2.75-2.18,5.29-7.68.31.22-.13.19a1.71,1.71,0,0,0-.43,1,1,1,0,0,0,.29.58,15.59,15.59,0,0,0,1.41,1l4.55,3.13a14.27,14.27,0,0,0,1.43.9.84.84,0,0,0,.66,0,2.27,2.27,0,0,0,.73-.78l.32.21-4.56,6.63-2.46-1.37.19-.17a4.62,4.62,0,0,0,1.75.41,1.67,1.67,0,0,0,1-.4,8.62,8.62,0,0,0,1.07-1.34l.89-1.29L194.82,166l-.68,1a3.46,3.46,0,0,0-.54,1,.75.75,0,0,0,.11.6,4.23,4.23,0,0,0,.86.71l-.22.33-3.17-2.19.22-.32a3,3,0,0,0,1.12.58.78.78,0,0,0,.61-.14,3.56,3.56,0,0,0,.66-.79l.7-1-2.2-1.51a5.54,5.54,0,0,0-2.08-1.12c-.29,0-.65.32-1.08.94l-.47.69a3.9,3.9,0,0,0-.64,1.33,2.68,2.68,0,0,0,.15,1.43A5.72,5.72,0,0,0,189.38,169.26Z"/><path class="cls-1" d="M108.73,108.55A47,47,0,0,0,113,119.26a54.16,54.16,0,0,0,6.48,9.47,61,61,0,0,0,38.76,22.39,53.2,53.2,0,0,0,11.42.4,43.89,43.89,0,0,0,11.12-2.1l-.63,1.08a44.05,44.05,0,0,0-3.73-10.69,53.63,53.63,0,0,0-6.06-9.68,61,61,0,0,0-38.77-22.38,53.57,53.57,0,0,0-11.45-.88A46.35,46.35,0,0,0,108.73,108.55Zm0,0a39.3,39.3,0,0,1,5.59-1.74,53.88,53.88,0,0,1,5.79-1,55.41,55.41,0,0,1,11.8,0A63,63,0,0,1,172,128.93a56.37,56.37,0,0,1,6.28,10,45.49,45.49,0,0,1,3.89,11.33l.16.81-.78.27a45.86,45.86,0,0,1-11.71,2.24,55.73,55.73,0,0,1-11.83-.42A63.1,63.1,0,0,1,117.93,130a55.29,55.29,0,0,1-5.85-10.25,51.66,51.66,0,0,1-2.08-5.52A39.89,39.89,0,0,1,108.73,108.55Z"/><path class="cls-1" d="M108.73,108.55a47.27,47.27,0,0,0,9.1,7.15,54.55,54.55,0,0,0,10.35,5,61,61,0,0,0,44.76,0A53.75,53.75,0,0,0,183,115.31a43.54,43.54,0,0,0,8.58-7.39v1.25a43.82,43.82,0,0,0-8.58-7.38,53.29,53.29,0,0,0-10.09-5.36,61,61,0,0,0-44.76,0,54,54,0,0,0-10.36,5A46.86,46.86,0,0,0,108.73,108.55Zm0,0a39.7,39.7,0,0,1,4-4.3,52.18,52.18,0,0,1,4.54-3.72,54.94,54.94,0,0,1,10.19-6,63,63,0,0,1,46.26,0,55.15,55.15,0,0,1,10.46,5.55,45.5,45.5,0,0,1,9,7.79l.55.63-.55.62a45.27,45.27,0,0,1-9,7.8,55.15,55.15,0,0,1-10.46,5.55,63.06,63.06,0,0,1-46.26,0,55.45,55.45,0,0,1-14.74-9.68A39.51,39.51,0,0,1,108.73,108.55Z"/><path class="cls-1" d="M108.73,108.55a47,47,0,0,0,7.15-9.1,53.67,53.67,0,0,0,5-10.35,60.82,60.82,0,0,0,0-44.76,53.65,53.65,0,0,0-5.39-10.08,43.82,43.82,0,0,0-7.38-8.58h1.25A44,44,0,0,0,102,34.26a53.6,53.6,0,0,0-5.36,10.09,61,61,0,0,0,0,44.76,53.76,53.76,0,0,0,5,10.36A46.54,46.54,0,0,0,108.73,108.55Zm0,0a38.63,38.63,0,0,1-4.29-4,52.3,52.3,0,0,1-3.73-4.54,55.18,55.18,0,0,1-6-10.19,63,63,0,0,1,0-46.26,55.45,55.45,0,0,1,5.55-10.46,45.27,45.27,0,0,1,7.8-9l.62-.54.63.54a45.5,45.5,0,0,1,7.79,9,55.15,55.15,0,0,1,5.55,10.46,63,63,0,0,1,0,46.26,53.85,53.85,0,0,1-6,10.2,52.18,52.18,0,0,1-3.72,4.54A39.62,39.62,0,0,1,108.73,108.55Z"/><path class="cls-1" d="M108.73,108.55a47.28,47.28,0,0,0-4.3-10.74,54.21,54.21,0,0,0-6.49-9.47A60.85,60.85,0,0,0,59.18,66a53.76,53.76,0,0,0-11.41-.41,43.9,43.9,0,0,0-11.13,2.11l.63-1.08A43.63,43.63,0,0,0,41,77.26,53.76,53.76,0,0,0,47,87a61.06,61.06,0,0,0,38.77,22.38,53.57,53.57,0,0,0,11.45.88A46.65,46.65,0,0,0,108.73,108.55Zm0,0a38.78,38.78,0,0,1-5.58,1.74,54.06,54.06,0,0,1-5.8,1,55.41,55.41,0,0,1-11.8.06A62.94,62.94,0,0,1,45.49,88.22a55.45,55.45,0,0,1-6.28-10A44.92,44.92,0,0,1,35.29,67l-.16-.81.79-.27a45.43,45.43,0,0,1,11.71-2.24,55.73,55.73,0,0,1,11.83.42A63,63,0,0,1,99.53,87.19a54.81,54.81,0,0,1,7.92,15.74A37.46,37.46,0,0,1,108.73,108.55Z"/><path class="cls-1" d="M108.73,108.55a46.9,46.9,0,0,0-9.09-7.15,54,54,0,0,0-10.36-5,61,61,0,0,0-44.76,0,53.29,53.29,0,0,0-10.09,5.36,43.82,43.82,0,0,0-8.58,7.38v-1.25a43.87,43.87,0,0,0,8.58,7.39,53.6,53.6,0,0,0,10.09,5.36,61,61,0,0,0,44.77,0,54.26,54.26,0,0,0,10.35-5A46.9,46.9,0,0,0,108.73,108.55Zm0,0a39.7,39.7,0,0,1-4,4.3,54.08,54.08,0,0,1-4.54,3.72,55.18,55.18,0,0,1-10.19,6,63,63,0,0,1-46.27,0A55.45,55.45,0,0,1,33.27,117a45.88,45.88,0,0,1-9-7.8l-.54-.62.54-.63a46.46,46.46,0,0,1,9-7.79,55.45,55.45,0,0,1,10.46-5.55,63.09,63.09,0,0,1,46.27,0,56,56,0,0,1,14.77,9.63A38.27,38.27,0,0,1,108.73,108.55Z"/><path class="cls-2" d="M108.73,108.55a46.8,46.8,0,0,0,10.74-4.29,54.18,54.18,0,0,0,9.53-6.5A60.9,60.9,0,0,0,151.38,59a53.85,53.85,0,0,0,.41-11.42,43.9,43.9,0,0,0-2.11-11.12l1.08.63A43.72,43.72,0,0,0,140,40.82a53.71,53.71,0,0,0-9.69,6.06A61.11,61.11,0,0,0,108,85.65a53.57,53.57,0,0,0-.88,11.45A46.59,46.59,0,0,0,108.73,108.55Zm0,0A40.59,40.59,0,0,1,107,103a53.88,53.88,0,0,1-1-5.79,55.41,55.41,0,0,1-.06-11.8,63.11,63.11,0,0,1,23.17-40.11,56.73,56.73,0,0,1,10-6.28,45.85,45.85,0,0,1,11.26-3.91l.81-.16.27.79a45.28,45.28,0,0,1,2.24,11.7,54.53,54.53,0,0,1-.42,11.84,63,63,0,0,1-23.12,40.07,54.41,54.41,0,0,1-10.25,5.85,53.49,53.49,0,0,1-5.5,2.07A39.51,39.51,0,0,1,108.73,108.55Z"/><path class="cls-1" d="M108.73,108.55A46.62,46.62,0,0,0,107.09,120a54.22,54.22,0,0,0,.88,11.45,61,61,0,0,0,22.37,38.81,54.66,54.66,0,0,0,9.66,6A43.83,43.83,0,0,0,150.68,180l-1.08.63a43.9,43.9,0,0,0,2.11-11.13,53.76,53.76,0,0,0-.41-11.41A61,61,0,0,0,129,119.33a54.21,54.21,0,0,0-9.47-6.49A46.62,46.62,0,0,0,108.73,108.55Zm0,0a41.32,41.32,0,0,1,5.71,1.28,53.32,53.32,0,0,1,5.49,2.07,55.61,55.61,0,0,1,10.25,5.85,63,63,0,0,1,23.13,40.07,55.08,55.08,0,0,1,.42,11.83,45.35,45.35,0,0,1-2.24,11.71l-.27.79-.81-.16a44.92,44.92,0,0,1-11.26-3.92,55.45,55.45,0,0,1-10-6.28A63.13,63.13,0,0,1,106,131.73a55.41,55.41,0,0,1,.06-11.8,57,57,0,0,1,1-5.8A41.83,41.83,0,0,1,108.73,108.55Z"/><path class="cls-1" d="M108.73,108.55a46.62,46.62,0,0,0,11.45,1.64,54.22,54.22,0,0,0,11.45-.88A61,61,0,0,0,170.4,86.94a53.71,53.71,0,0,0,6.06-9.69,43.83,43.83,0,0,0,3.73-10.68l.63,1.08a43.9,43.9,0,0,0-11.12-2.11,53.85,53.85,0,0,0-11.42.41,60.9,60.9,0,0,0-38.76,22.38A54.21,54.21,0,0,0,113,97.8,46.72,46.72,0,0,0,108.73,108.55Zm0,0a40,40,0,0,1,1.29-5.71,53.32,53.32,0,0,1,2.07-5.49,55.29,55.29,0,0,1,5.85-10.25A62.88,62.88,0,0,1,158,64a55.73,55.73,0,0,1,11.83-.42,45.35,45.35,0,0,1,11.71,2.24l.78.27-.16.81a45.44,45.44,0,0,1-3.91,11.26,56.73,56.73,0,0,1-6.28,10,63.07,63.07,0,0,1-40.07,23.14,53.46,53.46,0,0,1-17.6-1.06A41.88,41.88,0,0,1,108.73,108.55Z"/><path class="cls-1" d="M108.73,108.55a46.62,46.62,0,0,0,1.64-11.45,54.94,54.94,0,0,0-.87-11.45A61,61,0,0,0,87.12,46.88a53.63,53.63,0,0,0-9.68-6.06,44.05,44.05,0,0,0-10.69-3.73l1.08-.63a43.89,43.89,0,0,0-2.1,11.12A53.2,53.2,0,0,0,66.13,59,61,61,0,0,0,88.51,97.77,54.37,54.37,0,0,0,98,104.26,46.72,46.72,0,0,0,108.73,108.55Zm0,0a38.89,38.89,0,0,1-5.73-1.29,53.49,53.49,0,0,1-5.5-2.07,55.29,55.29,0,0,1-10.25-5.85,63,63,0,0,1-23.1-40.08,55.82,55.82,0,0,1-.42-11.84A45.6,45.6,0,0,1,66,35.74l.27-.79.81.16A45.44,45.44,0,0,1,78.34,39a56,56,0,0,1,10,6.28,63.07,63.07,0,0,1,23.14,40.07,55.41,55.41,0,0,1,0,11.8,54.06,54.06,0,0,1-1,5.8A38.62,38.62,0,0,1,108.73,108.55Z"/><path class="cls-2" d="M108.73,108.55A47.28,47.28,0,0,0,98,112.85a54.21,54.21,0,0,0-9.47,6.49A61,61,0,0,0,66.13,158.1a53.11,53.11,0,0,0-.4,11.41,43.88,43.88,0,0,0,2.1,11.13L66.75,180a43.68,43.68,0,0,0,10.69-3.75,53.63,53.63,0,0,0,9.68-6.06,61,61,0,0,0,22.38-38.77,54.23,54.23,0,0,0,.89-11.45A47,47,0,0,0,108.73,108.55Zm0,0a38.78,38.78,0,0,1,1.74,5.58,51.88,51.88,0,0,1,1,17.6,62.92,62.92,0,0,1-23.13,40.06,54.9,54.9,0,0,1-10,6.28A44.92,44.92,0,0,1,67.08,182l-.81.16-.27-.79a45.86,45.86,0,0,1-2.24-11.71,55.73,55.73,0,0,1,.42-11.83,63.15,63.15,0,0,1,23.13-40.07A55,55,0,0,1,103,109.83,38.86,38.86,0,0,1,108.73,108.55Z"/><path class="cls-1" d="M108.73,108.55a47,47,0,0,0-7.15,9.1,55.16,55.16,0,0,0-5,10.35,61,61,0,0,0,0,44.76A53.56,53.56,0,0,0,102,182.85a44.51,44.51,0,0,0,7.39,8.58h-1.25a43.82,43.82,0,0,0,7.38-8.58,53.29,53.29,0,0,0,5.36-10.09,60.92,60.92,0,0,0,0-44.76,53.76,53.76,0,0,0-5-10.36A46.9,46.9,0,0,0,108.73,108.55Zm0,0a39.7,39.7,0,0,1,4.3,4,54.2,54.2,0,0,1,3.73,4.54,55.63,55.63,0,0,1,5.94,10.17,62.89,62.89,0,0,1,0,46.27A55.45,55.45,0,0,1,117.15,184a45.5,45.5,0,0,1-7.79,9l-.63.54-.62-.54a45.88,45.88,0,0,1-7.8-9,56.63,56.63,0,0,1-5.55-10.46,63.09,63.09,0,0,1,0-46.27,54.94,54.94,0,0,1,5.95-10.19,54.2,54.2,0,0,1,3.73-4.54A40.36,40.36,0,0,1,108.73,108.55Z"/><path class="cls-1" d="M108.73,108.55a46.62,46.62,0,0,0-11.45-1.64,54.27,54.27,0,0,0-11.45.88,60.87,60.87,0,0,0-38.77,22.37,53.33,53.33,0,0,0-6,9.68,43.66,43.66,0,0,0-3.74,10.69l-.63-1.08a44,44,0,0,0,11.13,2.1,53.11,53.11,0,0,0,11.41-.4A61,61,0,0,0,98,128.77a53.75,53.75,0,0,0,6.49-9.48A46.65,46.65,0,0,0,108.73,108.55Zm0,0a39.78,39.78,0,0,1-1.28,5.7,53.49,53.49,0,0,1-2.07,5.5A55.61,55.61,0,0,1,99.53,130a63.15,63.15,0,0,1-40.07,23.13,55.73,55.73,0,0,1-11.83.42,45.86,45.86,0,0,1-11.71-2.24l-.79-.27.16-.81A44.92,44.92,0,0,1,39.21,139a55.45,55.45,0,0,1,6.28-10,63,63,0,0,1,40.06-23.14,55.41,55.41,0,0,1,11.8,0,54.06,54.06,0,0,1,5.8,1A40.21,40.21,0,0,1,108.73,108.55Z"/></svg>