<svg id="Calque_1" data-name="Calque 1" xmlns="http://www.w3.org/2000/svg" viewBox="0 0 217.51 217.29"><defs><style>.cls-1{fill:#fff;}.cls-2{fill:#9d9d9c;}</style></defs><path class="cls-1" d="M98.69,205.57l3,.12a13.44,13.44,0,0,1,2.34,3.06c.34.52.68,1,1,1.5a5.8,5.8,0,0,0,.75.89,1.13,1.13,0,0,0,.67.18H107l.09-2.5a12.63,12.63,0,0,0,0-1.74.88.88,0,0,0-.3-.62,1.92,1.92,0,0,0-1-.24h-.54v-.39l5.38.22v.38h-.36a1.91,1.91,0,0,0-1,.14.82.82,0,0,0-.37.55,13.68,13.68,0,0,0-.16,1.8l-.22,5.51a12.63,12.63,0,0,0,0,1.74.76.76,0,0,0,.31.55,2.44,2.44,0,0,0,1.1.19h.19v.38H105.9a9.28,9.28,0,0,1-2.61-.4,3.6,3.6,0,0,1-1.59-1,2.37,2.37,0,0,1-.56-1.65,2.49,2.49,0,0,1,.89-1.85,4.06,4.06,0,0,1,2.43-.88,9,9,0,0,1-2.17-2.54,11.3,11.3,0,0,0-1.92-2.33,3,3,0,0,0-1.7-.64Zm8.27,6.15h-1.29a5,5,0,0,0-1.16.13,1.89,1.89,0,0,0-.81.41,1.84,1.84,0,0,0-.5.73,3,3,0,0,0-.22,1.14,2.91,2.91,0,0,0,.51,1.92,3.42,3.42,0,0,0,2.56.82h.7Z"/><path class="cls-1" d="M98.56,211.29a5.43,5.43,0,0,1-2.38,3.86,6.25,6.25,0,0,1-4.54.87,6.37,6.37,0,0,1-4.1-2.23,5.36,5.36,0,0,1-1.07-4.48,5.61,5.61,0,0,1,2.33-3.92,6.85,6.85,0,0,1,8.73,1.39A5.64,5.64,0,0,1,98.56,211.29Zm-1.87-.37a6.43,6.43,0,0,0-.43-4.19,3.92,3.92,0,0,0-3-1.86,3.66,3.66,0,0,0-3.18.88,6.27,6.27,0,0,0-1.73,3.83,6.52,6.52,0,0,0,.45,4.15A4.25,4.25,0,0,0,94.69,215l.3-.22A6.49,6.49,0,0,0,96.69,210.92Z"/><path class="cls-1" d="M79.23,207.92l-1.8-4.22a10.77,10.77,0,0,0-1.32-2.57,2.27,2.27,0,0,0-1-.51l.11-.37,5.36,1.56-.11.37A2.9,2.9,0,0,0,79.3,202a.5.5,0,0,0-.47.39,1.06,1.06,0,0,0,0,.5c.14.41.29.81.47,1.21L80.54,207l2.29-1.56c.37-.25.73-.51,1.08-.8a1.11,1.11,0,0,0,.35-.5c.16-.54-.18-.94-1-1.18l.11-.37,4.18,1.22-.1.37a3.21,3.21,0,0,0-1.31-.06,3.56,3.56,0,0,0-1.22.43,18.57,18.57,0,0,0-1.77,1.16l-2.46,1.6,1.85,4.24.59,1.37a2.66,2.66,0,0,0,.47.77,1.82,1.82,0,0,0,.89.51l-.11.37-4.6-1.35.1-.36H80c.6.18.95.1,1-.23a.9.9,0,0,0,0-.46,7.24,7.24,0,0,0-.41-1l-1.28-3L77,209.94l-1,.7a.88.88,0,0,0-.24.36.49.49,0,0,0,.19.56,3.11,3.11,0,0,0,1,.45l-.11.37-4.05-1.18.1-.37a2.65,2.65,0,0,0,1.92-.1,13.26,13.26,0,0,0,2-1.23Z"/><path class="cls-1" d="M67.12,201.16,71,202.85l.55-.54a6.89,6.89,0,0,0,1.4-1.6.89.89,0,0,0,0-.84,1.44,1.44,0,0,0-.71-.6l.15-.35,3.07,1.33-.15.35a1.85,1.85,0,0,0-1.23,0,6.83,6.83,0,0,0-1.49,1.24c-.06.07-.31.31-.75.73l-6.1,5.88-.29-.13.09-9.7v-1.29a1.55,1.55,0,0,0-.18-.76,1.59,1.59,0,0,0-.7-.61l.15-.35,4.06,1.75-.15.35a3.46,3.46,0,0,0-1.05-.32.45.45,0,0,0-.46.32,6.36,6.36,0,0,0-.08,1.15Zm0,.39-.07,5.2,3.72-3.62Z"/><path class="cls-1" d="M56.29,190.36l1.55,13.13,3.94-6.74a5,5,0,0,0,.57-1.16,1.13,1.13,0,0,0-.19-.76,2.7,2.7,0,0,0-1-.9l.19-.33L65,195.72l-.19.33a3.22,3.22,0,0,0-1.21-.37,1,1,0,0,0-.69.19,6.6,6.6,0,0,0-.73,1.08l-3,5.15a8.38,8.38,0,0,0-.77,1.56.81.81,0,0,0,0,.68,3.21,3.21,0,0,0,.94.7l-.19.33-2.87-1.68-1.31-11-3.4,5.82a2.41,2.41,0,0,0-.39,1,1.14,1.14,0,0,0,.3.72,3.1,3.1,0,0,0,.89.72l-.19.33-3.48-2.05.2-.33a2.7,2.7,0,0,0,1.11.33,1,1,0,0,0,.71-.18,3.12,3.12,0,0,0,.61-.83l4.7-8Z"/><path class="cls-1" d="M46.35,183l-.13,13.22L51,190.07a5.85,5.85,0,0,0,.71-1.07,1.17,1.17,0,0,0-.09-.78,2.73,2.73,0,0,0-.91-1l.24-.3,3.32,2.56-.23.3a3.05,3.05,0,0,0-1.15-.51,1,1,0,0,0-.71.1,6.25,6.25,0,0,0-.85,1L47.69,195a8.5,8.5,0,0,0-1,1.45.81.81,0,0,0,0,.68,3.12,3.12,0,0,0,.85.81l-.23.31-2.63-2,.08-11-4.1,5.33a2.55,2.55,0,0,0-.52.92,1.09,1.09,0,0,0,.21.76,3.5,3.5,0,0,0,.8.83l-.24.31-3.22-2.52.23-.3a2.81,2.81,0,0,0,1.06.47,1.05,1.05,0,0,0,.71-.17,3,3,0,0,0,.71-.75l5.68-7.38Z"/><path class="cls-1" d="M35.24,177.73l-.29-.28,2.62-2.34,6.68,6.5-.27.28-.17-.17a1.74,1.74,0,0,0-.93-.59,1,1,0,0,0-.62.19A14.52,14.52,0,0,0,41,182.53l-3.85,3.95A12.35,12.35,0,0,0,36,187.75a.76.76,0,0,0-.17.63,2.39,2.39,0,0,0,.65.86l-.26.27-5.77-5.59,1.77-2.19.28.27a4.55,4.55,0,0,0-.7,1.65,1.73,1.73,0,0,0,.22,1.09A9.23,9.23,0,0,0,33.17,186l1.12,1.09,3.29-3.38-.89-.81a3.35,3.35,0,0,0-.93-.7.7.7,0,0,0-.6,0,4,4,0,0,0-.86.72l-.28-.27,2.69-2.76.28.28a3.09,3.09,0,0,0-.76,1,.75.75,0,0,0,0,.62,4.13,4.13,0,0,0,.66.78l.89.86,1.86-1.91a5.64,5.64,0,0,0,1.46-1.86,2,2,0,0,0-.75-1.22l-.6-.59a4.08,4.08,0,0,0-1.21-.85,2.49,2.49,0,0,0-1.43-.09A5.55,5.55,0,0,0,35.24,177.73Z"/><path class="cls-1" d="M26.08,170.68a4.81,4.81,0,0,1-1-2.84,2.61,2.61,0,0,1,1.06-2,2.83,2.83,0,0,1,1.83-.61,2.91,2.91,0,0,1,1.78.68,10.63,10.63,0,0,1,1.79,2l2.68,3.51-.31.23-.26-.34a1.82,1.82,0,0,0-.75-.68.79.79,0,0,0-.67.06,14.63,14.63,0,0,0-1.47,1L26.41,175a13.46,13.46,0,0,0-1.36,1.14.79.79,0,0,0-.24.6,2.9,2.9,0,0,0,.56,1l.13.17-.31.23L24,176.71,22.69,175q-2.81-3.66-.69-5.28a2.16,2.16,0,0,1,1.88-.43A4.8,4.8,0,0,1,26.08,170.68Zm1.11,1.71-.2-.28a3.88,3.88,0,0,0-1.94-1.61,2.33,2.33,0,0,0-1.85.59,3,3,0,0,0-.92,1,1.71,1.71,0,0,0-.13,1.07,4.23,4.23,0,0,0,.86,1.55,5.4,5.4,0,0,0,.43.52Zm.32-.25,2-1.52a17.66,17.66,0,0,0,1.58-1.28,1,1,0,0,0,.33-.64,1.49,1.49,0,0,0-.43-.93,2.61,2.61,0,0,0-1.75-1.17,2.79,2.79,0,0,0-2,.71,2.57,2.57,0,0,0-1.18,1.84,4,4,0,0,0,1.08,2.5,3.94,3.94,0,0,0,.37.49Z"/><path class="cls-1" d="M14.25,162.16l-1.93-3.24.33-.19a2,2,0,0,0,.86.78,1.19,1.19,0,0,0,.79.06,8,8,0,0,0,1.23-.64L18.74,157a14.83,14.83,0,0,1,1.89-1,2.88,2.88,0,0,1,1.51-.15,3.63,3.63,0,0,1,1.69.74,6,6,0,0,1,1.49,1.72,5.56,5.56,0,0,1,.87,2.45,3.15,3.15,0,0,1-.37,1.95,4.51,4.51,0,0,1-1.63,1.5l-1,.58-3,1.8a11,11,0,0,0-1.45,1,.74.74,0,0,0-.3.56,2.66,2.66,0,0,0,.45,1l.13.22-.33.19-2.64-4.4.33-.2.11.19a2.85,2.85,0,0,0,.68.86.68.68,0,0,0,.62,0,11.84,11.84,0,0,0,1.57-.84l3-1.82a14.46,14.46,0,0,0,2.15-1.49,2.22,2.22,0,0,0,.67-1.51,3.47,3.47,0,0,0-.59-2.1,4.35,4.35,0,0,0-1.29-1.41,3,3,0,0,0-1.47-.58,2.63,2.63,0,0,0-1.27.18,13.18,13.18,0,0,0-1.7.91l-3.29,2a5.51,5.51,0,0,0-1.09.77,1,1,0,0,0-.28.71,2.57,2.57,0,0,0,.34,1.11Z"/><path class="cls-1" d="M17,141.78l1.21,2.78A13.55,13.55,0,0,1,16.5,148q-.48.8-.9,1.59a6.81,6.81,0,0,0-.47,1.07,1.24,1.24,0,0,0,.13.68l.18.41,2.29-1A15.06,15.06,0,0,0,19.3,150a.91.91,0,0,0,.43-.55,1.84,1.84,0,0,0-.23-1l-.22-.49.35-.16,2.15,4.94-.35.16-.14-.34a1.88,1.88,0,0,0-.57-.84.85.85,0,0,0-.66-.1,11.43,11.43,0,0,0-1.68.65l-5.06,2.21a12.49,12.49,0,0,0-1.56.76.72.72,0,0,0-.36.52,2.54,2.54,0,0,0,.31,1.08l.07.17-.35.16-.72-1.45c-.47-1-.83-1.73-1.09-2.31a9.67,9.67,0,0,1-.77-2.52A3.49,3.49,0,0,1,9.1,149a2.31,2.31,0,0,1,1.24-1.22,2.52,2.52,0,0,1,2.05,0,4.05,4.05,0,0,1,1.85,1.81,9.06,9.06,0,0,1,1.34-3.07,11.35,11.35,0,0,0,1.26-2.74,3.12,3.12,0,0,0-.15-1.86Zm-1.93,10.14c-.18-.38-.36-.76-.56-1.16a5,5,0,0,0-.63-1,1.94,1.94,0,0,0-.71-.56,2,2,0,0,0-.88-.13,2.92,2.92,0,0,0-1.12.3,2.87,2.87,0,0,0-1.51,1.3,3.33,3.33,0,0,0,.38,2.65c.08.19.19.4.31.64Z"/><path class="cls-1" d="M14.41,131.92l-7.88,10.6L14,140.33a5.62,5.62,0,0,0,1.2-.46,1,1,0,0,0,.39-.68,2.74,2.74,0,0,0-.13-1.36l.37-.11,1.18,4-.34.2a2.91,2.91,0,0,0-.63-1.09,1,1,0,0,0-.63-.34,6,6,0,0,0-1.26.28l-5.73,1.68a8,8,0,0,0-1.63.61.82.82,0,0,0-.44.52,3.25,3.25,0,0,0,.21,1.15l-.36.11-.94-3.18,6.58-8.88-6.46,1.9a2.49,2.49,0,0,0-1,.44,1.09,1.09,0,0,0-.28.73A3.65,3.65,0,0,0,4.27,137l-.36.11-1.15-3.92.37-.11a2.79,2.79,0,0,0,.58,1,1,1,0,0,0,.64.36,2.85,2.85,0,0,0,1-.18l8.93-2.62Z"/><path class="cls-1" d="M3,131.67l-.38.07-1-5.05.37-.07.05.23a2.76,2.76,0,0,0,.34,1.05.71.71,0,0,0,.57.24,11.6,11.6,0,0,0,1.76-.22l5.42-1a16.53,16.53,0,0,0,1.69-.39.91.91,0,0,0,.54-.44,1.7,1.7,0,0,0,0-1l-.06-.33.37-.07,1,5-.38.07-.06-.32a2.06,2.06,0,0,0-.37-.95.87.87,0,0,0-.63-.24,13.42,13.42,0,0,0-1.78.27l-5.42,1a10.83,10.83,0,0,0-1.68.41.7.7,0,0,0-.47.42,2.65,2.65,0,0,0,.06,1.12Z"/><path class="cls-1" d="M8,115.13v-.4l3.5-.14,1,9.27h-.38v-.23a1.65,1.65,0,0,0-.34-1,1,1,0,0,0-.6-.25,12.87,12.87,0,0,0-1.75.12L4,123a13.48,13.48,0,0,0-1.67.26.75.75,0,0,0-.53.38,2.32,2.32,0,0,0-.05,1.08H1.33l-.86-8,2.76-.56v.38a4.41,4.41,0,0,0-1.59.83,1.6,1.6,0,0,0-.52,1,8.14,8.14,0,0,0,0,1.71l.17,1.56,4.7-.51L5.86,120a3.17,3.17,0,0,0-.27-1.13.72.72,0,0,0-.47-.38,4.2,4.2,0,0,0-1.12,0v-.38l3.83-.42v.39a3.51,3.51,0,0,0-1.23.29.8.8,0,0,0-.37.51,4.18,4.18,0,0,0,0,1l.13,1.23L9,120.8a5.56,5.56,0,0,0,2.31-.51c.22-.19.28-.67.2-1.42l-.09-.83a4.15,4.15,0,0,0-.38-1.43,2.59,2.59,0,0,0-1.05-1A5.19,5.19,0,0,0,8,115.13Z"/><path class="cls-1" d="M11.51,101.8l0,3a13.69,13.69,0,0,1-3,2.41c-.51.35-1,.71-1.48,1.08a7.13,7.13,0,0,0-.87.78,1.13,1.13,0,0,0-.16.67v.45h2.5a16.83,16.83,0,0,0,1.74,0,.88.88,0,0,0,.62-.32,1.92,1.92,0,0,0,.21-1v-.54h.38l-.09,5.38h-.38v-.37a1.82,1.82,0,0,0-.17-1,.79.79,0,0,0-.56-.36,12.08,12.08,0,0,0-1.8-.11l-5.52-.09a11.12,11.12,0,0,0-1.73,0,.77.77,0,0,0-.55.32,2.77,2.77,0,0,0-.16,1.11v.19H.06L0,111.84v-2.56a9.59,9.59,0,0,1,.34-2.61,3.6,3.6,0,0,1,1-1.62,2.34,2.34,0,0,1,1.63-.6,2.59,2.59,0,0,1,1.88.85,4.07,4.07,0,0,1,.93,2.4,9,9,0,0,1,2.49-2.23,11.14,11.14,0,0,0,2.28-2,3.06,3.06,0,0,0,.6-1.72Zm-5.95,8.41v-1.29a5,5,0,0,0-.16-1.15A2,2,0,0,0,5,107a1.85,1.85,0,0,0-.74-.49,3.42,3.42,0,0,0-1.14-.2,2.92,2.92,0,0,0-1.91.57,3.36,3.36,0,0,0-.76,2.57v.71Z"/><path class="cls-1" d="M4.91,93.85a2.09,2.09,0,0,1,2.34-1.78A2.09,2.09,0,0,1,9,94.43a2.09,2.09,0,0,1-3.74.95A2,2,0,0,1,4.91,93.85Z"/><path class="cls-1" d="M9.09,82.81l-2-4.16c-.47-1-.85-1.48-1.14-1.57-.44-.12-.79.19-1,1l-.36-.1,1.16-4.08.37.1A3,3,0,0,0,6.05,75a3.66,3.66,0,0,0,.28,1.08c.14.35.47,1,1,2L8.58,80.6l5.26-2.88a15.62,15.62,0,0,0,2.24-1.37,2.4,2.4,0,0,0,.64-1.14l.37.11-1.71,5.6L15,80.81l.06-.22a2.59,2.59,0,0,0,.18-1.17.47.47,0,0,0-.31-.33c-.23-.07-.83.18-1.83.73L9.16,82l.45,1,2,.56A12.27,12.27,0,0,0,13.3,84a.91.91,0,0,0,.68-.16,1.85,1.85,0,0,0,.48-.93l.06-.21.37.1-1.4,4.86-.36-.1.09-.34a1.89,1.89,0,0,0,.1-1,.8.8,0,0,0-.45-.5,12.57,12.57,0,0,0-1.7-.57L5.86,83.6a11.17,11.17,0,0,0-1.73-.41.72.72,0,0,0-.59.19,3.44,3.44,0,0,0-.46,1.12l-.37-.1,1.38-4.79.36.11,0,.2A2.64,2.64,0,0,0,4.23,81a.71.71,0,0,0,.39.47A10.18,10.18,0,0,0,6.31,82Z"/><path class="cls-1" d="M7.11,71.21l-.35-.13,1.89-4.79.35.14-.08.22a2.78,2.78,0,0,0-.28,1.06.74.74,0,0,0,.35.51,10.75,10.75,0,0,0,1.62.74l5.14,2a13.29,13.29,0,0,0,1.64.58.88.88,0,0,0,.69-.08,1.91,1.91,0,0,0,.56-.89l.12-.31.36.14-1.89,4.79-.36-.14.13-.31a2,2,0,0,0,.19-1,.79.79,0,0,0-.4-.54,12.55,12.55,0,0,0-1.64-.72l-5.13-2a11.91,11.91,0,0,0-1.65-.57.72.72,0,0,0-.62.11,2.72,2.72,0,0,0-.55,1Z"/><path class="cls-1" d="M24,60.92,11,63.24l7,3.54a5.55,5.55,0,0,0,1.18.49,1.07,1.07,0,0,0,.75-.23A2.69,2.69,0,0,0,20.77,66l.34.17-1.95,3.79-.34-.18a2.9,2.9,0,0,0,.3-1.23,1,1,0,0,0-.23-.67,6,6,0,0,0-1.12-.66l-5.32-2.71a7.74,7.74,0,0,0-1.6-.67.78.78,0,0,0-.68.08,3.63,3.63,0,0,0-.64,1l-.34-.17,1.51-3,10.87-2-6-3a2.58,2.58,0,0,0-1-.34,1.08,1.08,0,0,0-.71.35,3.07,3.07,0,0,0-.67.93l-.34-.17,1.85-3.64L15,54a2.92,2.92,0,0,0-.26,1.13,1,1,0,0,0,.22.7,3.44,3.44,0,0,0,.86.56l8.31,4.22Z"/><path class="cls-1" d="M27.16,49.1l.22-.33,2.78,2.14L25,58.67l-.32-.21.13-.19a1.76,1.76,0,0,0,.42-1,1,1,0,0,0-.31-.57,11.7,11.7,0,0,0-1.42-1l-4.6-3.06a11.91,11.91,0,0,0-1.45-.88.82.82,0,0,0-.65,0,2.22,2.22,0,0,0-.72.8l-.32-.22,4.45-6.69,2.48,1.27-.22.33a4.42,4.42,0,0,0-1.75-.39,1.63,1.63,0,0,0-1,.42,7.64,7.64,0,0,0-1,1.35l-.87,1.3,3.93,2.62.67-1a3.4,3.4,0,0,0,.52-1,.75.75,0,0,0-.12-.6,3.67,3.67,0,0,0-.87-.7l.21-.33,3.21,2.13-.22.33A3.26,3.26,0,0,0,24,50.81a.73.73,0,0,0-.6.16,3.61,3.61,0,0,0-.65.8l-.68,1,2.21,1.47a5.67,5.67,0,0,0,2.11,1.09c.29,0,.64-.33,1.06-1l.46-.69a4,4,0,0,0,.62-1.35,2.48,2.48,0,0,0-.18-1.42A5.57,5.57,0,0,0,27.16,49.1Z"/><path class="cls-1" d="M31,49.67l-2.81-2.3.27-.32q3.18,1.7,4.85-.35A2.39,2.39,0,0,0,34,44.85a2.08,2.08,0,0,0-.76-1.46,2,2,0,0,0-1.5-.47,7,7,0,0,0-2.26.85,14.4,14.4,0,0,1-2.08.94,3.06,3.06,0,0,1-1.56.11,3,3,0,0,1-1.39-.64,2.66,2.66,0,0,1-1-1.91,2.91,2.91,0,0,1,.71-2.15,4.23,4.23,0,0,1,1-.89,3.29,3.29,0,0,1,1.57-.39,1.73,1.73,0,0,0-.49-1l.23-.28,2.28,1.86-.23.28a4,4,0,0,0-2.28-.41,2.64,2.64,0,0,0-1.74,1,1.77,1.77,0,0,0,0,2.49l.13.12a1.77,1.77,0,0,0,1.4.38,8,8,0,0,0,2.28-.85,21.85,21.85,0,0,1,2.14-1,3,3,0,0,1,1.52-.12,3.4,3.4,0,0,1,2.7,2.94,3.61,3.61,0,0,1-.93,2.56,4,4,0,0,1-3,1.5,2.68,2.68,0,0,0,.59,1Z"/><path class="cls-1" d="M28.62,35.77l-.28-.26,3.55-3.73.28.26-.17.18a2.8,2.8,0,0,0-.65.88.72.72,0,0,0,.13.6A10,10,0,0,0,32.71,35l4,3.81A15.85,15.85,0,0,0,38,40a.85.85,0,0,0,.67.18,1.86,1.86,0,0,0,.85-.61l.23-.24.28.26L36.5,43.27,36.22,43l.23-.24a2,2,0,0,0,.56-.85.8.8,0,0,0-.17-.65A12.8,12.8,0,0,0,35.59,40l-4-3.8A12.89,12.89,0,0,0,30.28,35a.73.73,0,0,0-.59-.11,2.63,2.63,0,0,0-.88.71Z"/><path class="cls-1" d="M37,34.37a5.35,5.35,0,0,1-1.41-4.31,6.25,6.25,0,0,1,2.27-4,6.37,6.37,0,0,1,4.35-1.69,5.42,5.42,0,0,1,4.11,2.08,5.61,5.61,0,0,1,1.48,4.31,6.85,6.85,0,0,1-6.7,5.77A5.59,5.59,0,0,1,37,34.37Zm1.47-1.2a6.53,6.53,0,0,0,3.48,2.39,3.92,3.92,0,0,0,3.35-1.09,3.64,3.64,0,0,0,1.4-3,8,8,0,0,0-5.26-6.14A4.25,4.25,0,0,0,36.66,29l0,.38A6.44,6.44,0,0,0,38.44,33.17Z"/><path class="cls-1" d="M57,22.05l1.77,2.8-8,5.32-.21-.32.28-.18a2,2,0,0,0,.73-.71.87.87,0,0,0,0-.67,10.57,10.57,0,0,0-.94-1.54l-3.06-4.59a13.7,13.7,0,0,0-1-1.4A.8.8,0,0,0,46,20.5,2.46,2.46,0,0,0,45,21l-.2.14-.21-.32,4.49-3,.21.31-.41.28a2.86,2.86,0,0,0-.83.72.75.75,0,0,0,0,.62A13.07,13.07,0,0,0,49,21.26l3.28,4.9a10.76,10.76,0,0,0,.9,1.23.71.71,0,0,0,.57.2A3.06,3.06,0,0,0,54.9,27l.72-.47a4.67,4.67,0,0,0,1.17-1,2.18,2.18,0,0,0,.35-1.19,6.18,6.18,0,0,0-.39-2.08Z"/><path class="cls-1" d="M56.52,19.49A5.35,5.35,0,0,1,56.18,15a6.19,6.19,0,0,1,3.15-3.39A6.38,6.38,0,0,1,64,11a5.35,5.35,0,0,1,3.5,3,5.51,5.51,0,0,1,.42,4.54,6.84,6.84,0,0,1-7.88,4A5.66,5.66,0,0,1,56.52,19.49Zm1.72-.82a6.48,6.48,0,0,0,2.82,3.14,3.92,3.92,0,0,0,3.51-.26A3.67,3.67,0,0,0,66.63,19a6.26,6.26,0,0,0-.86-4.12A6.42,6.42,0,0,0,63,11.76a4.26,4.26,0,0,0-5.49,2.48c0,.11-.08.23-.11.34A6.38,6.38,0,0,0,58.24,18.67Z"/><path class="cls-1" d="M76.32,11.64,80.91,10l.13.38a2.64,2.64,0,0,0-1,.51.84.84,0,0,0-.18.63,10.77,10.77,0,0,0,.52,1.76l.39,1.13a1.89,1.89,0,0,0-.34.09,4.94,4.94,0,0,0-1.46.92,7.23,7.23,0,0,1-2.28,1.36,5.47,5.47,0,0,1-7.06-3.16c0-.1-.07-.19-.1-.29a6.34,6.34,0,0,1,0-4.5,5.16,5.16,0,0,1,3.32-3.09,4.81,4.81,0,0,1,4.07.34,3.8,3.8,0,0,0-.08-1.3l.37-.13,1.24,3.55-.37.13a4.47,4.47,0,0,0-2.15-2.16,3.72,3.72,0,0,0-2.8-.1,3.81,3.81,0,0,0-2.22,2c-.48,1-.4,2.44.26,4.34s1.49,3.09,2.48,3.63a3.64,3.64,0,0,0,3.07.25,3.37,3.37,0,0,0,1.37-.85,2.08,2.08,0,0,0,.62-1.13,2.7,2.7,0,0,0-.17-1.29A3.7,3.7,0,0,0,78,12a.7.7,0,0,0-.48-.26,2.46,2.46,0,0,0-.89.2l-.26.09Z"/><path class="cls-1" d="M80.52,4l-.09-.37,5-1.23.09.38-.23.05a2.78,2.78,0,0,0-1,.39.77.77,0,0,0-.21.58,10.41,10.41,0,0,0,.34,1.75l1.27,5.35a14,14,0,0,0,.47,1.68.88.88,0,0,0,.47.51,1.79,1.79,0,0,0,1.05,0L88,13l.09.37-5,1.22L83,14.2l.32-.08a1.91,1.91,0,0,0,.93-.41.89.89,0,0,0,.21-.64,11.91,11.91,0,0,0-.35-1.76l-1.3-5.39a12.14,12.14,0,0,0-.49-1.66.72.72,0,0,0-.45-.45,2.47,2.47,0,0,0-1.11.12Z"/><path class="cls-1" d="M97.31,8.24l.39-.06.31,3.5L88.8,13.13l-.06-.38H89a1.66,1.66,0,0,0,1-.39,1,1,0,0,0,.22-.61A17.2,17.2,0,0,0,90,10l-.86-5.45a12,12,0,0,0-.33-1.67.81.81,0,0,0-.41-.51,2.19,2.19,0,0,0-1.08,0L87.24,2l8-1.25.7,2.73-.39.06a4.61,4.61,0,0,0-.86-1.62,1.7,1.7,0,0,0-1-.47A7.55,7.55,0,0,0,92,1.59l-1.55.24.74,4.67,1.18-.19A3.3,3.3,0,0,0,93.46,6a.7.7,0,0,0,.36-.49,3.84,3.84,0,0,0-.07-1.12l.39-.06.6,3.81-.39.06A3.43,3.43,0,0,0,94,7a.8.8,0,0,0-.52-.34,3.75,3.75,0,0,0-1,.07l-1.22.19.41,2.63a5.87,5.87,0,0,0,.62,2.29c.21.2.68.25,1.43.13l.83-.13a3.83,3.83,0,0,0,1.4-.45,2.58,2.58,0,0,0,.94-1.1A5.83,5.83,0,0,0,97.31,8.24Z"/><path class="cls-1" d="M105.47,3.73a2.07,2.07,0,0,1,2.14,2,2.08,2.08,0,1,1-4.16.13,2.07,2.07,0,0,1,2-2.14Z"/><path class="cls-1" d="M114.15,0,116,.1c1.54.08,2.58.15,3.11.21a8.14,8.14,0,0,1,3.81,1.17,4.86,4.86,0,0,1,1.86,2.27,6.34,6.34,0,0,1,.37,3.08A6.49,6.49,0,0,1,124.54,9a4.85,4.85,0,0,1-1.19,1.58,4.35,4.35,0,0,1-1.61.87,6.7,6.7,0,0,1-1.67.27,13.64,13.64,0,0,1-2.17-.14l-5-.52v-.38h.46a2,2,0,0,0,1-.07.83.83,0,0,0,.42-.53A15.27,15.27,0,0,0,115,8.34l.57-5.4a12.69,12.69,0,0,0,.1-1.74.79.79,0,0,0-.28-.57,2.72,2.72,0,0,0-1.08-.26H114Zm3.42.59-.78,7.48c-.11,1.11-.17,1.82-.16,2.14a.93.93,0,0,0,.3.72,2.91,2.91,0,0,0,1.29.33,6.27,6.27,0,0,0,2.44-.15A3.28,3.28,0,0,0,122.4,9.7a6.41,6.41,0,0,0,1-2.94,7.93,7.93,0,0,0-.11-2.57,4.4,4.4,0,0,0-.86-1.92A3.51,3.51,0,0,0,121,1.16,7.69,7.69,0,0,0,118.9.68L117.57.59Z"/><path class="cls-1" d="M137.11,15.19l-3-.7a13.2,13.2,0,0,1-1.72-3.44c-.23-.57-.48-1.13-.74-1.67a5.54,5.54,0,0,0-.58-1,1.17,1.17,0,0,0-.61-.3l-.44-.1-.57,2.43a14,14,0,0,0-.34,1.71.94.94,0,0,0,.18.67,2,2,0,0,0,1,.43l.53.12-.09.37-5.24-1.23.09-.37.35.08a2,2,0,0,0,1,.05.78.78,0,0,0,.47-.47,12.64,12.64,0,0,0,.48-1.73l1.27-5.38a12.41,12.41,0,0,0,.32-1.7.74.74,0,0,0-.2-.6,2.45,2.45,0,0,0-1-.4h-.18l.08-.37,1.59.29c1.06.19,1.89.37,2.51.51a9.55,9.55,0,0,1,2.48.89,3.48,3.48,0,0,1,1.36,1.33,2.3,2.3,0,0,1,.23,1.72A2.47,2.47,0,0,1,135.12,8a4,4,0,0,1-2.55.4,9,9,0,0,1,1.65,2.91,11.14,11.14,0,0,0,1.47,2.63,3,3,0,0,0,1.55.95Zm-7-7.61c.4.09.82.17,1.26.25a4.62,4.62,0,0,0,1.17.09,2,2,0,0,0,.87-.25,1.87,1.87,0,0,0,.63-.62A3,3,0,0,0,134.52,6a2.82,2.82,0,0,0-.14-2c-.27-.55-1.06-1-2.35-1.29-.2,0-.43-.09-.7-.12Z"/><path class="cls-1" d="M145.18,13.77l-4-1.48-.49.63a7.28,7.28,0,0,0-1.3,1.67.89.89,0,0,0,.06.84,1.32,1.32,0,0,0,.74.55l-.13.36-3.14-1.15.13-.36a1.77,1.77,0,0,0,1.22-.11,6.19,6.19,0,0,0,1.43-1.32c.05-.07.28-.33.7-.77l5.76-6.21.3.11.46,9.69.07,1.29a1.53,1.53,0,0,0,.23.75,1.64,1.64,0,0,0,.73.57l-.13.36-4.16-1.52.14-.36a3.57,3.57,0,0,0,1.07.26.45.45,0,0,0,.43-.35,4.43,4.43,0,0,0,0-1.15Zm0-.4L145,8.18,141.45,12Z"/><path class="cls-1" d="M152.39,9.45l.16-.34,4.66,2.18-.16.35-.22-.1a2.76,2.76,0,0,0-1-.34.72.72,0,0,0-.53.31,10.33,10.33,0,0,0-.83,1.58l-2.35,5a13.24,13.24,0,0,0-.68,1.6.85.85,0,0,0,0,.7,1.88,1.88,0,0,0,.85.62l.3.14-.16.34-4.66-2.19.16-.34.3.14a2.07,2.07,0,0,0,1,.26.87.87,0,0,0,.57-.36,14.27,14.27,0,0,0,.83-1.6l2.34-5a10.2,10.2,0,0,0,.67-1.6.7.7,0,0,0-.07-.63,2.63,2.63,0,0,0-.94-.61Z"/><path class="cls-1" d="M161.56,26.92l-1.49-13.13-4,6.73a5.56,5.56,0,0,0-.56,1.15,1.07,1.07,0,0,0,.18.76,2.82,2.82,0,0,0,1,.91l-.2.32-3.62-2.13.2-.33a3,3,0,0,0,1.21.37,1,1,0,0,0,.69-.18,5.64,5.64,0,0,0,.72-1.08l3-5.14a7.76,7.76,0,0,0,.78-1.55.81.81,0,0,0,0-.68,3.08,3.08,0,0,0-.94-.7l.2-.33,2.86,1.69,1.26,11,3.42-5.8a2.3,2.3,0,0,0,.4-1,1.16,1.16,0,0,0-.3-.73,3.1,3.1,0,0,0-.89-.72l.2-.33,3.51,2.07-.19.33a2.7,2.7,0,0,0-1.11-.33,1,1,0,0,0-.71.18,3.11,3.11,0,0,0-.62.82l-4.73,8Z"/><path class="cls-1" d="M171.33,28.61,167.92,26l-.66.4a7.27,7.27,0,0,0-1.74,1.22.87.87,0,0,0-.19.82,1.44,1.44,0,0,0,.54.74l-.23.3-2.66-2,.23-.3a1.8,1.8,0,0,0,1.2.25,6.31,6.31,0,0,0,1.75-.85l.9-.52,7.33-4.25.26.2-2.41,9.39-.31,1.25a1.51,1.51,0,0,0,0,.79,1.7,1.7,0,0,0,.53.76l-.23.3-3.54-2.69.24-.31a3.24,3.24,0,0,0,.94.57.48.48,0,0,0,.52-.2,5.22,5.22,0,0,0,.35-1.1Zm.11-.39,1.31-5-4.48,2.62Z"/><path class="cls-1" d="M180.44,35.76,184,39.13l-.28.28a2.74,2.74,0,0,0-.9-.64.81.81,0,0,0-.64.13,10.64,10.64,0,0,0-1.34,1.26L180,41a1.49,1.49,0,0,0-.23-.27,4.84,4.84,0,0,0-1.48-.88A7.49,7.49,0,0,1,176,38.44a5.44,5.44,0,0,1-.4-7.7l.24-.25a6.36,6.36,0,0,1,4-2,5.13,5.13,0,0,1,4.25,1.56,4.84,4.84,0,0,1,1.55,3.79,4.08,4.08,0,0,0,1.12-.66l.28.27-2.6,2.71-.29-.27a4.45,4.45,0,0,0,1-2.9A3.61,3.61,0,0,0,184,30.46a3.74,3.74,0,0,0-2.8-1.07c-1.12,0-2.37.76-3.75,2.2s-2.09,2.73-2.12,3.85a3.67,3.67,0,0,0,1.17,2.86,3.51,3.51,0,0,0,1.37.83,2,2,0,0,0,1.29,0,2.77,2.77,0,0,0,1.07-.75,3.66,3.66,0,0,0,.75-1,.75.75,0,0,0,0-.55,2.51,2.51,0,0,0-.59-.71l-.19-.18Z"/><path class="cls-1" d="M189.51,47.92l.25.31-2.86,2L181,43l.29-.25.15.18c.35.44.64.67.86.7a1,1,0,0,0,.64-.12,13.16,13.16,0,0,0,1.39-1.07l4.27-3.5a11.29,11.29,0,0,0,1.26-1.13.81.81,0,0,0,.24-.61,2.37,2.37,0,0,0-.55-.93l.29-.24,5.11,6.22-2,2-.25-.3a4.4,4.4,0,0,0,.88-1.56,1.64,1.64,0,0,0-.1-1.11,8.11,8.11,0,0,0-1-1.4l-1-1.21-3.65,3,.76.92a3,3,0,0,0,.84.8.74.74,0,0,0,.6.07,4.23,4.23,0,0,0,.93-.63l.25.3-3,2.44-.25-.3a3.35,3.35,0,0,0,.88-.92.83.83,0,0,0,0-.62,4.12,4.12,0,0,0-.58-.85l-.79-1-2.06,1.7c-1,.84-1.58,1.41-1.65,1.69s.13.71.61,1.29l.53.65a3.89,3.89,0,0,0,1.1,1,2.66,2.66,0,0,0,1.42.24A5.29,5.29,0,0,0,189.51,47.92Z"/><path class="cls-1" d="M197.69,61.05l-2.88,1.64-4.93-8.2.33-.2.17.29a1.89,1.89,0,0,0,.67.76.87.87,0,0,0,.67,0,12.65,12.65,0,0,0,1.58-.86L198,51.63a10.27,10.27,0,0,0,1.44-1,.7.7,0,0,0,.29-.56,2.49,2.49,0,0,0-.44-1l-.13-.21.33-.2,2.78,4.64-.32.19-.26-.43a2.7,2.7,0,0,0-.68-.86.72.72,0,0,0-.61,0,10.29,10.29,0,0,0-1.57.84l-5,3a11.74,11.74,0,0,0-1.28.84.74.74,0,0,0-.22.56,3,3,0,0,0,.51,1.17l.44.73a4.74,4.74,0,0,0,1,1.23,2.06,2.06,0,0,0,1.17.4,6.24,6.24,0,0,0,2.1-.29Z"/><path class="cls-1" d="M201.47,65.31l4.31.41a3.06,3.06,0,0,0,1.41-.06.89.89,0,0,0,.45-.54,1.46,1.46,0,0,0-.18-1.06l.35-.17,1.57,3.33-.34.16a2.09,2.09,0,0,0-1-.87,9,9,0,0,0-2-.37l-4.88-.47-1.35.64a11.43,11.43,0,0,0-1.62.86.8.8,0,0,0-.34.58,2.61,2.61,0,0,0,.33,1.09l-.34.16-2.1-4.33.35-.17.07.17a2,2,0,0,0,.6.82.81.81,0,0,0,.66.08,12.75,12.75,0,0,0,1.66-.71l1.25-.59,3-4.51a11.54,11.54,0,0,0,1-1.74,1.46,1.46,0,0,0-.17-1l.34-.16,2,4.12-.34.16q-.56-1.16-1.08-.9a2.23,2.23,0,0,0-.65.78Z"/><path class="cls-1" d="M203.45,78.59l10.12,1.1,1,3.3-.37.11-.12-.39a2.85,2.85,0,0,0-.46-1,.71.71,0,0,0-.59-.17,10.12,10.12,0,0,0-1.72.45L206,83.65a13.19,13.19,0,0,0-1.63.59.85.85,0,0,0-.48.5,1.73,1.73,0,0,0,.12,1.05l.15.47-.37.12-1.62-5.13.37-.12.12.38a1.91,1.91,0,0,0,.47.9.84.84,0,0,0,.65.16,11.74,11.74,0,0,0,1.74-.46L212.39,80l-11-1.21-.12-.37L209.54,71l-6.28,2a12,12,0,0,0-1.73.64,1.4,1.4,0,0,0-.67.75,2,2,0,0,0,0,1.28l-.37.11L199.28,72l.36-.11a2.09,2.09,0,0,0,.73,1,1.44,1.44,0,0,0,1,.27,14.38,14.38,0,0,0,1.85-.49l4.67-1.47a11.79,11.79,0,0,0,1.63-.6.75.75,0,0,0,.41-.48,2.44,2.44,0,0,0-.19-1.1l-.09-.29.36-.12,1,3.27Z"/><path class="cls-1" d="M209.6,89.31l-2.32.42a14.32,14.32,0,0,0-1.7.37.85.85,0,0,0-.54.44,1.87,1.87,0,0,0,0,1l.07.37-.38.07L203.82,87l.37-.07.06.3a1.93,1.93,0,0,0,.35.95.89.89,0,0,0,.62.25,13.52,13.52,0,0,0,1.79-.25l5.43-1a13.77,13.77,0,0,0,1.69-.38.72.72,0,0,0,.47-.43,2.64,2.64,0,0,0,0-1.12V85l.37-.07.3,1.38c.24,1.1.42,2,.53,2.59a10.12,10.12,0,0,1,.21,2.69,3.27,3.27,0,0,1-.68,1.69,2.6,2.6,0,0,1-1.63.91,3.16,3.16,0,0,1-1.67-.12,2.67,2.67,0,0,1-1.27-1,7,7,0,0,1-.84-2.59Zm.41-.07.15.79a5,5,0,0,0,.47,1.51,1.86,1.86,0,0,0,1,.83,2.75,2.75,0,0,0,1.58.12,2.65,2.65,0,0,0,1.89-1,3.17,3.17,0,0,0,.25-2.3,8.45,8.45,0,0,0-.19-.84Z"/><path class="cls-1" d="M211.69,104.92l-.37-5.87-2.71.17a16.62,16.62,0,0,0-1.73.18.89.89,0,0,0-.59.37,1.9,1.9,0,0,0-.14,1v.29h-.38l-.32-5h.38v.29a1.84,1.84,0,0,0,.25,1,.82.82,0,0,0,.59.32,10.82,10.82,0,0,0,1.8,0l5.5-.35a11.17,11.17,0,0,0,1.73-.19.75.75,0,0,0,.52-.36,2.65,2.65,0,0,0,.08-1.12v-.21h.38l.33,5h-.39v-.21a2.61,2.61,0,0,0-.2-1.07.75.75,0,0,0-.53-.31,13.22,13.22,0,0,0-1.78,0l-2.23.15.37,5.86,2.23-.14a12.38,12.38,0,0,0,1.72-.18.76.76,0,0,0,.52-.37,2.46,2.46,0,0,0,.08-1.11v-.3h.38l.33,5.11h-.38v-.16a2.85,2.85,0,0,0-.21-1.08.7.7,0,0,0-.53-.31,10.58,10.58,0,0,0-1.78,0l-5.51.35c-.88.06-1.46.12-1.73.17a.91.91,0,0,0-.59.38,1.91,1.91,0,0,0-.13,1v.25h-.39l-.32-5.11h.38v.39a2,2,0,0,0,.24,1,.85.85,0,0,0,.59.32,13.52,13.52,0,0,0,1.8,0Z"/><path class="cls-1" d="M210,116.36l.26-4.27-.69-.33a6.85,6.85,0,0,0-2-.77.89.89,0,0,0-.78.3,1.42,1.42,0,0,0-.32.86h-.38l.2-3.34h.38a1.89,1.89,0,0,0,.46,1.15,6.79,6.79,0,0,0,1.68,1,6.9,6.9,0,0,1,.94.46l7.59,3.73v.33l-9.15,3.21-1.21.44a1.49,1.49,0,0,0-.65.43,1.7,1.7,0,0,0-.34.87h-.38l.27-4.41h.38a3.38,3.38,0,0,0,.05,1.1.45.45,0,0,0,.46.32,4.85,4.85,0,0,0,1.11-.32Zm.38-.12,4.91-1.7-4.67-2.27Z"/><path class="cls-1" d="M214.06,120.92l.07-.38,2.66.5L215,131.82l-2.68-.38.06-.36a4.29,4.29,0,0,0,1.67-.25,1.39,1.39,0,0,0,.72-.61,5.07,5.07,0,0,0,.32-1.26l.29-1.79-7.83-1.3a16.5,16.5,0,0,0-1.72-.22,1,1,0,0,0-.67.23,1.9,1.9,0,0,0-.36,1l-.09.54-.38-.07.92-5.53.38.06-.1.57a1.89,1.89,0,0,0,0,1,.89.89,0,0,0,.5.45,15.29,15.29,0,0,0,1.76.37l7.84,1.29.27-1.64a6.51,6.51,0,0,0,.14-1.46,1.32,1.32,0,0,0-.51-.79A4,4,0,0,0,214.06,120.92Z"/><path class="cls-1" d="M214.16,133.34l.36.1-1.29,5-.37-.09.06-.24a2.64,2.64,0,0,0,.14-1.08.72.72,0,0,0-.4-.47A11.16,11.16,0,0,0,211,136l-5.34-1.38a14.36,14.36,0,0,0-1.7-.38.87.87,0,0,0-.68.17,1.91,1.91,0,0,0-.45.95l-.08.32-.37-.1,1.29-5,.37.1-.08.32a2,2,0,0,0-.08,1,.88.88,0,0,0,.46.49A14.8,14.8,0,0,0,206,133l5.35,1.39a12.54,12.54,0,0,0,1.7.36.73.73,0,0,0,.6-.18,2.62,2.62,0,0,0,.43-1Z"/><path class="cls-1" d="M199.62,143.12a5.7,5.7,0,0,1,.25-.8,6.16,6.16,0,0,1,3-3.59,5.6,5.6,0,0,1,4.62-.12,5.36,5.36,0,0,1,3.32,3.08,6.21,6.21,0,0,1,0,4.64,7.19,7.19,0,0,1-1.74,2.67,4.91,4.91,0,0,1-2.74,1.41,6.35,6.35,0,0,1-6-2.47,5.27,5.27,0,0,1-.95-3.46l-.42-2.81a1.28,1.28,0,0,1-.13.43,13.68,13.68,0,0,1-2.25,3.69,9.44,9.44,0,0,0-1.62,2.52,1.58,1.58,0,0,0,.44,2.06l-.12.32a2.84,2.84,0,0,1-1.41-1.54,3,3,0,0,1,.06-2.21,4.48,4.48,0,0,1,.79-1.35,11,11,0,0,1,1.55-1.35,6.59,6.59,0,0,0,2.34-2.68,2.32,2.32,0,0,0,0-1.66,1.44,1.44,0,0,1-.15-.79c.07-.19.19-.25.36-.19s.22.21.28.48.11.78.19,1.51v.46Zm7.21-2.75a6.59,6.59,0,0,0-4.2-.4,3.89,3.89,0,0,0-2.4,2.58,3.61,3.61,0,0,0,.23,3.29,6.31,6.31,0,0,0,3.42,2.44,6.37,6.37,0,0,0,4.15.38,4.24,4.24,0,0,0,2.38-5.51c0-.12-.11-.24-.17-.36A6.39,6.39,0,0,0,206.83,140.37Z"/><path class="cls-1" d="M203.79,161.21,202,164.53l-.33-.17a2.07,2.07,0,0,0,.22-1.15,1.19,1.19,0,0,0-.36-.7,6.85,6.85,0,0,0-1.19-.72l-3.31-1.74a16.18,16.18,0,0,1-1.84-1.09,3.1,3.1,0,0,1-.91-1.21,3.62,3.62,0,0,1-.24-1.84,5.75,5.75,0,0,1,.69-2.17,5.85,5.85,0,0,1,1.63-2,3.23,3.23,0,0,1,1.86-.7,4.57,4.57,0,0,1,2.13.62l1,.54,3.1,1.63a10.22,10.22,0,0,0,1.57.74.77.77,0,0,0,.63,0,2.46,2.46,0,0,0,.65-.91l.12-.23.34.18-2.39,4.55-.34-.18.1-.2a2.55,2.55,0,0,0,.39-1,.73.73,0,0,0-.29-.54,11.26,11.26,0,0,0-1.54-.9l-3.13-1.65a13.84,13.84,0,0,0-2.39-1.07,2.26,2.26,0,0,0-1.65.22,3.46,3.46,0,0,0-1.48,1.59,4.44,4.44,0,0,0-.53,1.84,3.05,3.05,0,0,0,.26,1.55,2.83,2.83,0,0,0,.82,1,15.55,15.55,0,0,0,1.66,1l3.39,1.78a6.17,6.17,0,0,0,1.24.53,1.07,1.07,0,0,0,.77-.21,2.47,2.47,0,0,0,.77-.87Z"/><path class="cls-1" d="M189.4,169.28l-.22.33-2.75-2.19,5.28-7.68.32.22-.14.19a1.84,1.84,0,0,0-.43,1,1,1,0,0,0,.3.58,13.7,13.7,0,0,0,1.4,1l4.53,3.19a13.35,13.35,0,0,0,1.44.9.82.82,0,0,0,.65.06,2.43,2.43,0,0,0,.74-.79l.31.22-4.54,6.61-2.46-1.37.22-.32a4.62,4.62,0,0,0,1.75.41,1.67,1.67,0,0,0,1-.4,8.68,8.68,0,0,0,1.08-1.34l.88-1.28-3.86-2.7-.68,1a3,3,0,0,0-.53,1,.79.79,0,0,0,.1.6,4.27,4.27,0,0,0,.87.72l-.23.32-3.17-2.19.22-.32a3.31,3.31,0,0,0,1.13.59.8.8,0,0,0,.6-.15,3.56,3.56,0,0,0,.66-.79l.7-1-2.19-1.51a5.58,5.58,0,0,0-2.09-1.12c-.29,0-.65.32-1.07.94l-.48.69a4.09,4.09,0,0,0-.64,1.33,2.73,2.73,0,0,0,.15,1.44A5.93,5.93,0,0,0,189.4,169.28Z"/><path class="cls-1" d="M108.76,108.55a47,47,0,0,0-7.15,9.1,54.26,54.26,0,0,0-5,10.35,60.92,60.92,0,0,0,0,44.76A53.25,53.25,0,0,0,102,182.85a44.51,44.51,0,0,0,7.39,8.58H108.1a44.51,44.51,0,0,0,7.39-8.58,53.25,53.25,0,0,0,5.35-10.09,60.92,60.92,0,0,0,0-44.76,53.18,53.18,0,0,0-5-10.36A46.85,46.85,0,0,0,108.76,108.55Zm0,0a38.63,38.63,0,0,1,4.29,4,50.53,50.53,0,0,1,3.73,4.54,55.18,55.18,0,0,1,6,10.19,63,63,0,0,1,0,46.26A56.08,56.08,0,0,1,117.22,184a45.22,45.22,0,0,1-7.79,9l-.62.54-.63-.54a45.22,45.22,0,0,1-7.79-9,56.08,56.08,0,0,1-5.56-10.46,63,63,0,0,1,0-46.27,55.09,55.09,0,0,1,5.86-10.22,54.2,54.2,0,0,1,3.73-4.54A39.65,39.65,0,0,1,108.76,108.55Z"/><path class="cls-1" d="M108.76,108.55a46.83,46.83,0,0,0,4.3,10.74,55.09,55.09,0,0,0,6.48,9.47,61,61,0,0,0,38.77,22.39,53.76,53.76,0,0,0,11.41.41,43.9,43.9,0,0,0,11.12-2.11l-.62,1.08a44.08,44.08,0,0,0-3.74-10.69,53.63,53.63,0,0,0-6.06-9.68,60.92,60.92,0,0,0-38.73-22.38,53.57,53.57,0,0,0-11.45-.88A46.4,46.4,0,0,0,108.76,108.55Zm0,0a39.17,39.17,0,0,1,5.58-1.74,53.88,53.88,0,0,1,5.79-1,56.08,56.08,0,0,1,11.8,0A62.94,62.94,0,0,1,172,128.92a54.9,54.9,0,0,1,6.28,10,45.44,45.44,0,0,1,3.91,11.26l.16.81-.78.27a45.86,45.86,0,0,1-11.71,2.24,55.73,55.73,0,0,1-11.83-.42A62.92,62.92,0,0,1,118,130,55.35,55.35,0,0,1,110,114.21,38.93,38.93,0,0,1,108.76,108.55Z"/><path class="cls-1" d="M108.76,108.55a46.9,46.9,0,0,0,9.09,7.15,54.64,54.64,0,0,0,10.36,5,61,61,0,0,0,44.76,0,54.18,54.18,0,0,0,10.09-5.36,43.2,43.2,0,0,0,8.57-7.39v1.26a43.2,43.2,0,0,0-8.57-7.39A54.18,54.18,0,0,0,173,96.46a61,61,0,0,0-44.77,0,54.26,54.26,0,0,0-10.35,5A46.6,46.6,0,0,0,108.76,108.55Zm0,0a38.73,38.73,0,0,1,4-4.3,52.18,52.18,0,0,1,4.54-3.72,54.94,54.94,0,0,1,10.19-6,63,63,0,0,1,46.27,0,55.15,55.15,0,0,1,10.46,5.55,45.5,45.5,0,0,1,9,7.79l.55.63-.55.63a45.5,45.5,0,0,1-9,7.79,55.72,55.72,0,0,1-10.53,5.55,63.09,63.09,0,0,1-46.27,0,54.39,54.39,0,0,1-10.19-6,52.3,52.3,0,0,1-4.54-3.73A38,38,0,0,1,108.76,108.55Z"/><path class="cls-1" d="M108.76,108.55a46.53,46.53,0,0,0,7.14-9.1,54.26,54.26,0,0,0,5-10.35,60.92,60.92,0,0,0,0-44.76,53.25,53.25,0,0,0-5.35-10.09,44.51,44.51,0,0,0-7.39-8.58h1.25A44.51,44.51,0,0,0,102,34.25a53.47,53.47,0,0,0-5.33,10.09,60.92,60.92,0,0,0,0,44.76,53.18,53.18,0,0,0,5,10.36A46.5,46.5,0,0,0,108.76,108.55Zm0,0a38.73,38.73,0,0,1-4.3-4,54.2,54.2,0,0,1-3.73-4.54,55.18,55.18,0,0,1-6-10.19,63,63,0,0,1,0-46.26,56.08,56.08,0,0,1,5.56-10.46,45.22,45.22,0,0,1,7.79-9l.63-.54.62.54a45.22,45.22,0,0,1,7.79,9,55.79,55.79,0,0,1,5.57,10.49,63,63,0,0,1,0,46.27,54.89,54.89,0,0,1-5.94,10.19,54.2,54.2,0,0,1-3.73,4.54A40.93,40.93,0,0,1,108.76,108.55Z"/><path class="cls-1" d="M108.76,108.55a47.32,47.32,0,0,0-4.31-10.74A54.16,54.16,0,0,0,98,88.34,61,61,0,0,0,59.21,65.92a53.85,53.85,0,0,0-11.42-.41,43.71,43.71,0,0,0-11.1,2.14l.62-1.08a43.86,43.86,0,0,0,3.74,10.68,53.45,53.45,0,0,0,6,9.67A61,61,0,0,0,85.86,109.3a53.53,53.53,0,0,0,11.44.88A46.29,46.29,0,0,0,108.76,108.55Zm0,0a39.3,39.3,0,0,1-5.59,1.74,51.37,51.37,0,0,1-5.79.95,55.41,55.41,0,0,1-11.8.06A62.92,62.92,0,0,1,45.51,88.17a55.45,55.45,0,0,1-6.28-10,45.63,45.63,0,0,1-3.91-11.25l-.16-.81.78-.27a45.3,45.3,0,0,1,11.75-2.29A55.73,55.73,0,0,1,59.52,64,63,63,0,0,1,99.6,87.1a55.71,55.71,0,0,1,7.92,15.74A39.8,39.8,0,0,1,108.76,108.55Z"/><path class="cls-1" d="M108.76,108.55a47,47,0,0,0-9.1-7.15,53.67,53.67,0,0,0-10.35-5,61,61,0,0,0-44.77,0,54.5,54.5,0,0,0-10.09,5.36,43.2,43.2,0,0,0-8.57,7.39v-1.23a43.2,43.2,0,0,0,8.57,7.39,54.5,54.5,0,0,0,10.09,5.36,61,61,0,0,0,44.77,0,54.26,54.26,0,0,0,10.35-5A46.81,46.81,0,0,0,108.76,108.55Zm0,0a39.7,39.7,0,0,1-4,4.3,54.08,54.08,0,0,1-4.54,3.72,55.18,55.18,0,0,1-10.19,6,63,63,0,0,1-46.27,0A55.37,55.37,0,0,1,33.31,117a45.5,45.5,0,0,1-9-7.79l-.55-.63.55-.63a45.5,45.5,0,0,1,9-7.79,55.37,55.37,0,0,1,10.45-5.55,63.09,63.09,0,0,1,46.27,0,54.93,54.93,0,0,1,10.2,6,54.2,54.2,0,0,1,4.54,3.73A40.5,40.5,0,0,1,108.76,108.55Z"/><path class="cls-2" d="M108.76,108.55a47.21,47.21,0,0,0,10.73-4.3A54.29,54.29,0,0,0,129,97.76,61,61,0,0,0,151.36,59a53.85,53.85,0,0,0,.4-11.42,43.85,43.85,0,0,0-2.07-11.12l1.09.63a44.05,44.05,0,0,0-10.69,3.73,53.63,53.63,0,0,0-9.68,6.06A61,61,0,0,0,108,85.65a55,55,0,0,0-.88,11.45A47.15,47.15,0,0,0,108.76,108.55Zm0,0A40.5,40.5,0,0,1,107,103a54.06,54.06,0,0,1-1-5.8,55.41,55.41,0,0,1-.06-11.8A63.07,63.07,0,0,1,129.1,45.3a56.37,56.37,0,0,1,10-6.28,45.85,45.85,0,0,1,11.26-3.91l.82-.16.27.79a45.79,45.79,0,0,1,2.24,11.7,55.82,55.82,0,0,1-.42,11.84,63.15,63.15,0,0,1-23.13,40.07,54.41,54.41,0,0,1-10.25,5.85,53.49,53.49,0,0,1-5.5,2.07A39.91,39.91,0,0,1,108.76,108.55Z"/><path class="cls-1" d="M108.76,108.55a46.62,46.62,0,0,0,11.45,1.64,54.22,54.22,0,0,0,11.45-.88,61,61,0,0,0,38.76-22.39,53.36,53.36,0,0,0,6.06-9.69,43.86,43.86,0,0,0,3.74-10.68l.62,1.08a43.67,43.67,0,0,0-11.15-2.09,53.76,53.76,0,0,0-11.41.41,61,61,0,0,0-38.77,22.38A53.75,53.75,0,0,0,113,97.81,46.26,46.26,0,0,0,108.76,108.55Zm0,0a38.19,38.19,0,0,1,1.28-5.7,53.49,53.49,0,0,1,2.07-5.5A55.61,55.61,0,0,1,118,87.1,62.92,62.92,0,0,1,158,64a55.73,55.73,0,0,1,11.83-.42,45.35,45.35,0,0,1,11.71,2.24l.78.27-.16.81a45.44,45.44,0,0,1-3.91,11.26,54.9,54.9,0,0,1-6.28,10,63,63,0,0,1-40.07,23.14,54.77,54.77,0,0,1-11.8-.06,51.37,51.37,0,0,1-5.79-.95A39,39,0,0,1,108.76,108.55Z"/><path class="cls-1" d="M108.76,108.55A46.62,46.62,0,0,0,110.4,97.1a55,55,0,0,0-.88-11.45A61,61,0,0,0,87.14,46.92a53.63,53.63,0,0,0-9.68-6.06,44.05,44.05,0,0,0-10.69-3.73l1.09-.63a43.9,43.9,0,0,0-2.11,11.12A53.2,53.2,0,0,0,66.16,59,61,61,0,0,0,88.54,97.81,53.67,53.67,0,0,0,98,104.3,47.39,47.39,0,0,0,108.76,108.55Zm0,0a40,40,0,0,1-5.71-1.29,53.49,53.49,0,0,1-5.5-2.07,55.2,55.2,0,0,1-10.24-5.85A63,63,0,0,1,64.17,59.28a55.82,55.82,0,0,1-.42-11.84A45.79,45.79,0,0,1,66,35.74l.27-.79.82.16A45.85,45.85,0,0,1,78.34,39a56.37,56.37,0,0,1,10,6.28,63.07,63.07,0,0,1,23.14,40.07,55.37,55.37,0,0,1-1,17.6A39.09,39.09,0,0,1,108.76,108.55Z"/><path class="cls-2" d="M108.76,108.55A47.28,47.28,0,0,0,98,112.85a54.29,54.29,0,0,0-9.48,6.49A60.9,60.9,0,0,0,66.16,158.1a53.2,53.2,0,0,0-.41,11.42,43.9,43.9,0,0,0,2.11,11.12L66.77,180a44.05,44.05,0,0,0,10.69-3.73,53.63,53.63,0,0,0,9.68-6.06,61,61,0,0,0,22.39-38.77,54.22,54.22,0,0,0,.88-11.45A47.12,47.12,0,0,0,108.76,108.55Zm0,0a37.52,37.52,0,0,1,1.73,5.58,54.06,54.06,0,0,1,1,5.8,55.41,55.41,0,0,1,.06,11.8,63,63,0,0,1-23.14,40.06,54.9,54.9,0,0,1-10,6.28A45.32,45.32,0,0,1,67.15,182l-.82.16-.27-.79a45.79,45.79,0,0,1-2.24-11.7,55.82,55.82,0,0,1,.42-11.84,63.15,63.15,0,0,1,23.13-40.07,54.63,54.63,0,0,1,10.18-5.83,53.49,53.49,0,0,1,5.5-2.07A40,40,0,0,1,108.76,108.55Z"/><path class="cls-1" d="M108.76,108.55A47.68,47.68,0,0,0,107.11,120a55,55,0,0,0,.88,11.45,61,61,0,0,0,22.38,38.77,53.63,53.63,0,0,0,9.68,6.06A44.05,44.05,0,0,0,150.74,180l-1.09.63a43.9,43.9,0,0,0,2.11-11.12,53.85,53.85,0,0,0-.4-11.42A61,61,0,0,0,129,119.33a53.67,53.67,0,0,0-9.47-6.49A46.8,46.8,0,0,0,108.76,108.55Zm0,0a39.51,39.51,0,0,1,5.7,1.29,53.43,53.43,0,0,1,5.5,2.06,55.25,55.25,0,0,1,10.24,5.86,63,63,0,0,1,23.14,40.06,55.82,55.82,0,0,1,.42,11.84,45.79,45.79,0,0,1-2.24,11.7l-.27.79-.82-.16a45.46,45.46,0,0,1-11.26-3.92,54.9,54.9,0,0,1-10-6.28A63,63,0,0,1,106,131.73a53.19,53.19,0,0,1,1-17.6A38.55,38.55,0,0,1,108.76,108.55Z"/><path class="cls-1" d="M108.76,108.55a47.24,47.24,0,0,0-11.46-1.63,54.18,54.18,0,0,0-11.44.88,60.84,60.84,0,0,0-38.77,22.37A53.63,53.63,0,0,0,41,139.85a44.08,44.08,0,0,0-3.74,10.69l-.62-1.08a43.9,43.9,0,0,0,11.12,2.11,53.85,53.85,0,0,0,11.42-.41A61,61,0,0,0,98,128.78a53.75,53.75,0,0,0,6.49-9.48A46.28,46.28,0,0,0,108.76,108.55Zm0,0a39.81,39.81,0,0,1-1.29,5.7,53.49,53.49,0,0,1-2.07,5.5A55.61,55.61,0,0,1,99.55,130a62.9,62.9,0,0,1-40.07,23.13,55.73,55.73,0,0,1-11.83.42,45.86,45.86,0,0,1-11.71-2.24l-.78-.27.16-.81A45.44,45.44,0,0,1,39.23,139a55.45,55.45,0,0,1,6.28-10,63,63,0,0,1,40.07-23.14,55.41,55.41,0,0,1,11.8,0,53.88,53.88,0,0,1,5.79,1A40.34,40.34,0,0,1,108.76,108.55Z"/></svg>