<?xml version="1.0" encoding="UTF-8"?>
<svg viewBox="0 0 827.59 699.48" xmlns="http://www.w3.org/2000/svg">
 <g fill="#3f3f3f">
  <path d="m402.56 416.1c-3.153-0.86462-6.3077 0.10223-9.4644 0.6293-6.1427 1.2428-12.129 3.076-18.175 4.7014-6.4272 1.8036-11.982 5.3436-17.604 8.8334-4.3344 3.1756-7.5366 7.1602-10.512 11.516-3.4533 5.6718-5.3512 12.077-7.0964 18.434-2.3567 7.9478-3.5007 16.189-4.8514 24.354-1.1583 8.4066-2.6001 16.755-3.9554 25.122-0.83945 7.253-2.3943 14.365-4.2493 21.416-1.5575 5.5068-3.425 10.924-4.9878 16.44-1.3827 2.9432-2.6364 5.9787-3.9377 8.8773-0.56924 1.805-1.4744 3.4984-2.2054 5.1696 1.8059-4.4449-0.6463-6.1269-5.2486-7.4742-0.23242 0.57458 2.3868-1.1935 3.0944-1.5476 3.7971-3.4465 7.5294-6.9507 10.967-10.75 4.8956-5.5164 10.542-10.311 16.261-14.94 5.2651-4.2526 10.874-8.1006 16.39-12.001 6.1885-4.0942 12.317-8.2796 18.006-13.063 7.4845-6.5574 13.531-14.289 19.489-22.185 5.002-7.7356 8.7927-16.067 12.184-24.6 2.9303-7.0661 5.4993-14.266 8.0434-21.477 3.2156-3.1688 2.5231-6.4848 3.3475-9.9068 0.46982-1.9501 2.0312-2.314 2.7991-0.46091 1.5911 3.8397 2.8199 7.8987 4.4711 11.869 0.27106 9.1004-2.3616 17.431-6.4226 25.541-4.5321 8.8473-8.9243 17.862-14.764 25.937-5.9876 8.812-13.073 16.925-20.521 24.531-5.7146 5.8634-11.375 11.827-18.406 16.144-5.4319 3.391-10.938 6.6988-16.109 10.509-5.2962 4.3723-10.397 8.8613-15.1 13.862-4.6083 3.949-8.9512 8.3296-14.6 10.896-2.5306 1.436-5.0672 3.1472-7.9447 3.6986-6.4305-1.6005-7.8381-4.1159-5.7286-9.7888 0.77652-1.3286 1.6259-2.8425 2.4774-4.2388 1.1184-2.824 2.4613-5.6834 3.3585-8.6591 2.5109-4.7964 4.5955-9.7176 6.2459-14.88 1.9226-6.7566 3.8284-13.507 5.2014-20.4 1.6576-8.2614 3.0257-16.573 4.4146-24.888 1.4354-8.3978 3.1996-16.72 4.846-25.075 2.0319-7.0786 3.8166-14.212 7.2276-20.793 3.44-5.6487 6.7624-11.236 12.661-14.666 6.0579-4.1139 12.343-7.71 18.905-10.972 6.0349-3.0318 12.176-5.7535 18.623-7.8232 3.9943-1.3454 8.0262-2.5496 12.066-3.7295 10.766-3.1438 11.62 18.806 0.80344 15.84z"/>
  <path d="m422.62 408.38c2.5502 0.10217 5.0945 1.0389 7.5599 1.8132 4.7011 1.2169 9.4211 2.1827 14.219 2.945 5.7833 1.552 11.793 1.811 17.719 2.0288 5.3325 0.17566 10.52-0.38327 15.74-1.2896 6.1498-1.0595 11.703-3.8919 17.302-6.5092 5.3115-2.7933 9.9189-6.4038 14.385-10.35 2.5394-2.0786 3.8762-5.0324 5.424-7.6137 1.0847-1.1005 0.4773-2.5347 0.69537-3.6933-0.023926-0.49838-0.19989-0.82153-0.31879-1.3101-0.18634-0.3652 0.27753 0.77148 0.41632 1.1573 0.52026 0.30685 1.1634 0.32556 1.745 0.48834-3.6735-0.1705-7.4167 0.8808-11.021 1.6629-6.4804 1.7937-13.031 3.2984-19.535 5.0303-6.3689 1.5064-12.733 2.9981-19.129 4.3768-6.611 2.4366-13.118 3.239-19.704 2.7599-6.9421 1.6302-14.02 2.4802-21.089 3.3194-1.9919 0.23645-2.3078-2.5828-0.31583-2.8191 6.9608-0.82562 13.93-1.6599 20.766-3.2642 5.563-3.3111 11.815-5.7049 18.66-6.8228 6.3559-1.6149 12.782-2.8423 19.205-4.2095 6.423-1.4924 12.708-3.3113 18.821-5.8025 4.0153-1.5396 8.0525-3.0191 12.114-4.3832 3.1945-0.46561 5.2116-1.1699 7.985 1.1347 0.81244 1.5126 2.4328 2.795 2.3658 4.6653 0.14294 1.6064 0.67145 3.1786 0.43256 4.8637-0.59979 2.6429-1.1304 5.3009-2.3064 7.7694-2.7812 3.6474-5.2701 7.463-9.3972 9.8036-5.3108 3.7388-10.759 7.3373-16.68 10.053-6.1635 3.3118-12.364 6.6531-19.15 8.5156-5.9272 0.76254-11.823 1.1282-17.791 0.34906-6.2546-0.47937-12.56-1.0135-18.832-1.7066-4.8425-1.0956-9.6853-2.1348-14.58-2.9835-2.9792-0.63678-6.0113-0.98523-8.5251-2.8444-4.361-3.2253-2.6018-7.3516 2.8179-7.1344z"/>
  <path d="m538.61 378.25c5.8267 0.65549 10.789-0.86737 16.739-0.71466 10.042 1.1869 20.058 2.419 30.071 3.7823 11.815 2.4799 22.907 7.2764 34.312 11.095 10.144 4.4864 20.496 8.4705 30.53 13.197 6.5745 2.3268 12.491 6.0216 18.682 9.1615 3.7474 1.1712 6.6035 3.7535 9.5526 6.2104 4.0476 3.8326 5.2192 7.239 4.5532 12.933-3.2073 6.3704-6.1693 5.4562-12.61 3.3907-1.91-0.61261-1.1951-0.31784-1.7241-2.2527-0.31696-1.1593-2.0265-10.222-3.9742-5.3949 0.076416 0.71893 1.1943 7.7785 0.66864 4.1742-1.8163-1.8362-3.517-3.8799-5.4515-5.6378-4.8976-4.1947-10.069-7.9949-15.24-11.857-9.3822-5.3107-18.841-10.44-28.968-14.248-10.283-5.0919-21.126-8.9183-32.264-11.681-9.3597-2.7859-18.722-3.9203-28.523-3.3806-5.6592-0.20486-10.436-2.1825-15.925-0.89603-5.4345 1.2737-5.9747-8.5061-0.42786-7.8821z"/>
 </g>
 <g fill="#ff007f">
  <path d="m426.8 382.59c1.3033-2.2836 3.2116-4.18 4.6689-6.4447 1.7377-2.4266 2.8324-5.176 3.9375-7.9201 0.87592-2.623 1.4652-5.3132 2.1441-7.9992 0.63208-2.8209 0.33331-5.6322 0.039398-8.4691-0.76373-3.8476-2.2641-7.4796-3.5602-11.168-2.2235-4.6918-4.1213-9.492-6.7397-13.992-2.3908-5.026-6.0941-9.2661-9.625-13.522-3.6915-4.4409-8.4339-7.7756-12.633-11.666-3.9094-3.3362-7.9194-6.5397-12.093-9.5352-2.6667-2.0403-5.601-3.6836-8.4007-5.5142-1.5754-0.70624-2.9332-1.7268-4.4136-2.5969-0.75046-0.17984-1.4822-0.33362-2.2271-0.50134-0.41214-1.9713-0.9415-1.0858-2.3672-1.4607-1.3866 0.93192-2.4256 2.228-3.3886 3.575-1.4119 2.4447-2.4573 5.0624-3.4928 7.671-1.3325 3.2592-1.7735 6.7749-2.1903 10.25-0.30313 4.1807-0.45709 8.4248-0.34228 12.622 0.26776 5.2236 1.107 10.417 2.1008 15.552 1.2823 5.546 3.0938 10.935 4.7896 16.362 2.1956 5.2787 4.4035 10.511 7.089 15.566 2.859 4.5463 5.2511 9.3416 8.5294 13.616 3.5457 4.6432 7.6529 9.0291 12.214 12.688 3.2624 2.4313 5.5778 5.5962 9.114 7.625 0.86993 0.49912 0.16336 1.7297-0.70627 1.23-3.5995-2.0682-7.7612-3.0047-10.839-5.9491-4.7039-4.0935-9.5989-7.9628-13.448-12.938-3.16-4.5966-6.2468-9.3029-8.4183-14.463-2.5738-5.2708-5.1964-10.594-6.9036-16.214-2.0556-5.4612-3.4203-11.151-4.4396-16.892-1.1946-5.3189-2.2984-10.625-2.5018-16.094-0.10843-4.4003-0.17261-8.7406 0.52078-13.111 0.58475-3.7068 1.1142-7.3846 2.2428-10.984 0.9996-2.8422 2.0043-5.6929 3.5024-8.3228 1.0227-2.1254 1.7952-4.2613 3.7601-5.7967 1.7061-1.6566 3.3827-3.2515 5.3597-4.5656 2.1141 0.042236 4.1378 0.004211 6.0694 1.0533 2.2812 0.85367 4.3807 1.8203 6.1768 3.5135 2.9474 2.1034 5.6928 4.4457 8.4456 6.8036 3.9564 3.5151 7.8753 7.0644 11.721 10.701 4.585 3.958 8.6701 8.4928 12.81 12.916 4.046 4.5306 7.551 9.4455 10.959 14.461 2.6118 4.7942 5.3541 9.5754 7.3 14.684 2.0613 4.0863 3.8593 8.3257 4.9044 12.794 0.70428 3.9735 1.1488 7.8785 0.2149 11.891-0.65604 3.4709-1.4374 6.8429-3.2056 9.9538-1.7129 3.0249-3.5505 5.9928-5.8106 8.6737-1.7414 2.0356-3.1479 4.4922-5.0956 6.2155-3.8107 3.3716-8.2932 0.12085-5.7711-4.2982z"/>
  <path d="m475.85 381.57c2.1218-0.10553 4.1752-0.87277 6.24-1.5978 5.6091-2.5177 9.6338-7.3562 13.44-12.011 5.7897-7.9302 9.777-16.89 13.399-25.962 3.6106-9.3086 6.3608-18.911 8.9163-28.552 2.0338-7.8636 3.4568-15.855 4.7187-23.872 0.98523-6.2933 1.4544-12.664 1.2908-19.031 0.001282-4.7704-0.79932-9.4423-1.5852-14.124-0.76166-3.5722-1.837-7.0736-2.9603-10.535-0.4314-2.0888-1.5923-3.7099-2.8122-5.3702-0.36292-0.61119-0.948-1.0594-1.422-1.5891 2.0679-1.3906-2.6144 0.46745-3.2145 0.75301-4.3531 3.036-7.7797 7.0458-10.978 11.242-4.8719 6.9137-8.4799 14.539-12.149 22.125-4.6993 9.5788-8.8258 19.412-12.599 29.388-4.0134 10.844-7.3993 21.91-10.281 33.105-2.6014 10.646-4.6118 21.444-5.6701 32.354-0.90182 4.4569-0.67505 8.9592-0.44696 13.458 0.050781 1.0017-1.3663 1.0732-1.4166 0.071503-0.23019-4.5814-0.32822-9.1603-0.36343-13.748 1.0898-11.047 2.9914-21.954 6.3321-32.569 3.2907-11.125 6.3858-22.32 10.519-33.174 3.789-10.017 7.7064-19.998 12.601-29.537 3.7961-7.6116 7.4288-15.304 11.27-22.887 2.706-5.0409 5.6962-9.9044 9.742-13.993 2.8961-3.2202 5.6813-6.5792 10.458-5.7815 2.5822 1.3112 4.5945 2.6897 6.2637 5.1658 1.3621 2.7065 2.5386 5.4628 3.2596 8.4294 0.82263 3.8946 1.6107 7.7991 2.1954 11.74 0.70459 5.155 1.1357 10.351 0.88568 15.562-0.30798 6.7773-0.85834 13.542-2.2839 20.193-1.7651 8.095-4.1199 16.042-6.5209 23.968-2.8374 9.7406-5.8091 19.42-9.4551 28.898-3.6774 9.4719-7.6244 18.894-12.746 27.688-3.7199 6.3327-7.8933 12.194-14.017 16.436-2.6649 1.7102-5.4779 3.6912-8.55 4.2418-7.4376 1.3328-9.6066-10.11-2.0598-10.485z"/>
 </g>
 <path d="m505.27 376.6c2.7101-1.1843 5.2436-3.0666 7.6403-4.8435 5.7001-4.5624 10.771-9.8462 15.736-15.181 5.2618-5.9358 9.9716-12.312 14.363-18.908 3.9323-6.2544 7.8278-12.506 11.487-18.924 3.387-5.686 6.6402-11.364 8.7082-17.707 0.29187-0.99924 0.58368-1.9985 0.87549-2.9978 0.28113-0.96274 1.6428-0.56491 1.3615 0.39774-0.2962 1.0133-0.59241 2.0266-0.88855 3.0398-2.0854 6.3909-3.8366 12.998-6.8709 18.986-3.408 6.6741-7.1805 13.246-11.62 19.289-4.6299 6.6186-9.1106 13.37-14.43 19.467-4.7889 5.682-9.9935 10.989-14.812 16.644-2.2958 2.765-4.4675 5.6536-7.098 8.118-4.4476 4.1669-10.037-4.9398-4.452-7.3802z" fill="#3f3f3f"/>
 <g fill="#ff007f">
  <path d="m572.09 249.84c-0.31995-1.3267 0.39319-3.3199 0.77887-4.8633 0.5874-2.5177 0.62958-5.0677 0.49542-7.6301 0.16217-2.1013-0.2088-4.1807-0.44373-6.255 0.096741-0.69608-0.54724-1.9355-0.62103-2.1968 1.8324 1.14 0.01886-0.097961-0.172 0.89223-3.7191 2.8529-6.2226 6.9049-8.6088 10.867-4.4964 7.3484-9.2991 14.502-14.088 21.661-5.3066 7.812-10.713 15.554-15.93 23.427-5.2128 7.8292-10.127 15.849-14.697 24.069-0.48737 0.87662-1.7271 0.18741-1.2398-0.68915 4.588-8.2521 9.5207-16.304 14.754-24.164 5.2184-7.8741 10.626-15.618 15.934-23.432 4.7762-7.1405 9.5665-14.275 14.052-21.604 2.563-4.2553 4.5558-8.8268 7.3547-12.932 2.1985-2.2879 3.8514-3.344 6.6744-1.2509 0.86725 1.609 1.7391 2.9822 1.5337 5.0122-0.018555 2.258-0.12524 4.5112-0.12415 6.7703-0.39716 2.6776-0.68488 5.349-0.8858 8.0471-0.095154 1.7436 0.051392 3.9426-0.79498 5.2731-1.5544 2.4436-3.2926 1.8142-3.9716-1.0012z"/>
  <path d="m541.2 355.8c1.6824-3.7489 4.7643-6.3436 7.4977-9.2902 6.3781-6.7682 11.069-14.833 16.748-22.16 7.351-8.8208 14.333-17.922 20.994-27.272 7.0526-10.355 14.543-20.579 19.968-31.902 4.3348-8.9557 7.4042-18.375 9.985-27.953 2.3402-7.6264 4.0415-15.425 5.8516-23.189 1.0163-5.7976 1.8141-11.612 2.0782-17.491 0.51624-3.1155-0.41278-6.014-1.1827-8.8772-0.41705-0.98875-1.3597-1.3144-2.1236-1.9117-0.099548-0.3365-1.3831 0.29524-1.9847 0.42364-6.6935 2.2276-11.571 6.062-16.037 11.421-4.1724 5.5367-2.0972 2.6458-6.2035 8.6885-0.56372 0.82951-1.737 0.031998-1.1731-0.79738 4.1602-6.1179 2.0571-3.1902 6.287-8.7992 4.7216-5.664 8.1361-12.167 13.119-17.534 3.9396-2.8608 7.7843-3.8068 12.129-1.2186 2.2578 2.206 4.1569 4.4532 4.7127 7.6997 0.22644 4.0372 0.024292 7.8565-0.99091 11.809-1.349 5.9034-2.885 11.754-4.6798 17.546-1.9695 7.7998-4.2573 15.516-6.2293 23.313-3.2152 9.5412-7.0791 18.876-11.9 27.726-6.142 11.064-11.509 22.574-18.627 33.094-6.334 9.6693-13.197 18.941-20.21 28.126-5.6072 7.3806-11.848 14.301-16.62 22.284-2.2123 3.4429-4.0731 7.052-7.4315 9.551-2.9272 2.1783-5.4712 0.041412-3.9774-3.2875z"/>
  <path d="m399.65 403.55c-3.262-1.0575-6.519-2.0744-9.8268-3.0031-8.8369-2.6171-17.444-5.8741-26-9.2946-12.162-3.8592-23.489-9.4936-34.132-16.469-11.258-7.7536-20.432-17.874-29.06-28.362-7.0769-8.6695-13.249-18.001-19.219-27.449-3.2971-5.5508-5.5053-11.607-7.9811-17.537-1.2543-2.6161-2.3341-5.3129-3.5001-7.9707-0.6496-1.2391-1.2981-2.4262-2.002-3.6355-0.79187-4.0069 1.5746-5.2265 5.1886-5.1184 3.4569 1.3672 6.6689 3.2594 10.189 4.4572 6.5151 2.9497 13.398 5.0143 20.187 7.2323 9.5981 4.0439 18.682 9.2359 27.312 15.053 8.7977 5.2431 16.884 11.419 24.512 18.224 3.7614 4.1391 7.0043 8.6407 10.693 12.865 0.65964 0.75549-0.40894 1.6884-1.0685 0.9328-3.6605-4.1935-7.6926-7.6437-12.156-10.966-7.4642-6.6839-15.334-12.927-23.428-18.829-8.631-5.403-17.127-11.185-26.846-14.507-6.7032-2.5659-13.694-4.1447-20.7-5.6702-3.1594-1.1041-6.4629-1.9912-9.8109-2.2119 0.96198-0.69757 3.409-1.3702 2.6406-3.6659 0.33545 1.0082 0.61218 2.4958 1.106 3.6033 0.85672 2.9133 1.6047 5.878 1.8403 8.9237 1.2354 6.1121 3.4223 11.957 6.0185 17.627 4.6544 10.101 11.135 19.117 18.121 27.741 8.5351 10.378 17.606 20.399 28.742 28.077 10.517 6.9 21.72 12.586 33.826 16.175 8.7588 2.1132 17.631 4.1944 26.644 4.761 2.9205 0.27234 5.9769 0.84442 8.862 0.24872 6.0733-1.254 5.7484 10.681-0.15073 8.7687z"/>
 </g>
 <path d="m391.66 403.07c-2.2668 1.0435-4.7923 1.3788-7.2766 1.6754-6.1021 0.56165-12.206 1.0846-18.341 1.136-10.108 0.01062-20.218-0.19724-30.329-0.15039-12.816 0.17676-25.561-0.77777-38.342-1.5709-14.215-1.0194-28.285-3.061-42.218-6.024-13.969-2.9444-27.529-7.2989-41.028-11.868-11.169-3.6889-21.945-8.371-32.567-13.387-6.8539-3.5294-13.892-6.7862-20.568-10.66-3.797-1.9559-7.2886-4.4972-10.721-7.0269-2.5194-1.8787-4.3221-4.2188-5.8491-6.903-1.1647-2.1208-1.6542-4.4506-2.1909-6.7673-0.41951-1.5602-0.41379-3.1177-0.36136-4.7086 0.097321-2.552 1.4314-4.019 3.0118-5.834 2.6189-1.34 5.2709-0.9454 8.0584-0.76511 4.1121-0.1915 8.2291 0.087067 12.346 0.089844 6.5045 0.45206 13.005 0.78448 19.484 1.5438 7.6219 0.88168 15.224 1.9114 22.844 2.8113 7.9536 0.78922 15.63 3.0306 23.286 5.2088 8.0723 2.484 16.141 4.9912 24.258 7.3272 7.8881 2.2357 15.122 6.0094 22.729 8.9755 0.93445 0.36432 0.41904 1.6859-0.51535 1.3214-7.6159-2.9706-15.52-4.0392-23.385-6.2413-8.112-2.3486-16.215-4.6771-24.318-7.0495-7.4645-2.1166-15.035-3.7443-22.697-4.9834-7.5096-1.2306-15.061-1.9224-22.652-2.4348-6.2827-0.40424-12.567-0.99304-18.857-0.36789-3.9624 0.24011-7.8357 0.96881-11.744 1.6133-0.33784 0.10135-4.6925 1.4875-2.3932 1.0686 0.24217-0.39682 1.2902-1.5689 1.1134-1.7889 0.026566 0.2225 0.34396 1.6314 0.27602 2.3121 0.22496 1.1657 0.34244 2.3391 1.0124 3.3527 0.98819 1.3486 1.9066 2.7195 3.2673 3.7373 3.0642 2.4708 6.2443 4.8123 9.3599 7.2297 6.0676 4.3932 12.036 8.8869 18.564 12.596 9.877 5.8398 20.023 11.279 30.693 15.541 13.155 4.8808 26.685 8.8047 40.424 11.669 13.758 2.5962 27.669 4.5345 41.651 5.3535 12.614 0.78094 25.268 0.59146 37.888-0.001434 10.004-0.3779 20.007-1.0235 29.964-2.0285 5.9592-0.64508 11.928-1.0559 17.882-1.7245 2.4416-0.19202 4.9568-0.46188 7.289 0.34424 4.9717 1.7186 5.7296 5.1786 0.95117 7.3782z" fill="#3f3f3f"/>
 <path d="m422.71 300.12c0.98376-2.7539 2.769-5.0754 4.6832-7.2582 3.3298-4.8767 6.6735-9.7559 10.162-14.523 3.4661-5.0682 7.0815-10.009 11.153-14.609 3.2585-3.747 7.1894-6.2271 11.963-7.4647 5.0443-0.88782 9.301 1.3386 13.135 4.3754 4.8054 2.9821 6.7045 7.9534 9.6512 12.387 0.40137 0.68533 0.80267 1.3707 1.204 2.0561 0.50678 0.86548-0.71838 1.5821-1.2243 0.71612-0.38712-0.66257-0.77423-1.3251-1.1614-1.9877-2.6733-4.0302-7.0844-6.8132-10.61-10.089-3.208-1.8948-6.4133-3.6526-10.245-3.5288-4.1213 0.8082-7.7279 2.2797-10.761 5.3965-4.3188 4.1854-8.12 8.864-11.477 13.855-3.1202 4.9332-6.2972 9.8274-8.9741 15.023-0.70151 2.2192-1.6794 4.3586-1.9474 6.6594-0.46136 3.962-6.892 2.7473-5.5501-1.009z" fill="#ff007f"/>
 <path d="m435.43 279.64c-0.59827-0.92773-1.6834-1.6426-2.5537-2.3925-1.3915-1.5608-3.1766-2.6614-4.8551-3.8664-1.7905-1.027-3.7832-1.5392-5.7669-2.0406-2.2426-0.42682-4.5027-0.43445-6.7686-0.48453-2.147 0.051117-4.1804 0.67667-6.2218 1.2573-1.8652 0.66296-3.3298 1.9882-4.8786 3.1617-1.6883 1.5206-3.0223 3.3585-4.2946 5.2209-1.204 1.7283-1.9987 3.6683-2.9207 5.5598-0.14432 0.29181-0.28864 0.58365-0.43295 0.87552-0.44461 0.89899-1.546 0.51987-1.3411-0.46191 0.067383-0.32272 0.13474-0.64548 0.20209-0.9682 0.54096-2.2161 1.0785-4.4848 2.2681-6.4546 1.3715-2.0571 2.7508-4.1225 4.494-5.91 1.7816-1.7123 3.4756-3.3704 5.9492-4.0464 2.3196-0.69244 4.6733-1.104 7.1004-1.242 2.5017-0.046875 4.9969 0.06601 7.4411 0.66046 2.3571 0.5119 4.6582 1.0451 6.6733 2.46 1.8452 1.2232 3.6966 2.4224 5.4609 3.7512 1.1056 0.95801 2.2008 1.8709 3.0983 3.0214 1.4189 1.819-1.4028 3.8375-2.6531 1.8987z" fill="#3f3f3f"/>
 <g fill="#ff007f">
  <path d="m349.49 322.53c0.095367-1.5128-0.36664-3.0105-0.65973-4.4869-1.0006-3.8223-1.838-7.6847-2.7587-11.544-0.97675-5.3794-2.4246-10.66-3.4962-16.028-0.77231-5.3677-1.4331-10.72-1.642-16.148-0.20706-4.9204 0.88077-9.7358 1.6989-14.551 0.59671-3.4476 1.1126-6.903 1.9367-10.296 0.49106-2.6764 1.9632-4.1168 4.1039-5.5173 3.2704-1.2118 5.3619 0.18091 7.8074 2.2773 3.2127 3.4817 6.4539 6.9571 9.695 10.425 3.8299 3.9441 6.9762 8.4421 9.989 13.018 0.55151 0.83771-0.6333 1.6176-1.1847 0.77991-2.9684-4.5096-6.0653-8.9443-9.8406-12.83-3.1418-3.3622-6.2553-6.8057-10.114-9.3672-1.6083-0.65002-2.9436-1.6245-4.753-1.292-1.1858 1.0497-2.4262 1.7694-3.0018 3.4162-1.2175 3.1742-2.4156 6.3414-3.1109 9.6847-1.0371 4.6596-1.4119 9.4368-1.4094 14.205 0.071045 5.2957 0.43283 10.672 1.7467 15.812 1.0543 5.2859 2.0836 10.659 4.0838 15.674 1.3062 3.7013 2.9506 7.1687 4.8322 10.594 0.84753 1.6045 1.6408 3.2253 2.3588 4.8919 1.7936 4.1632-6.5666 5.8063-6.2814 1.2822z"/>
  <path d="m301.88 294.83c-0.7478-1.5894-0.99246-3.3826-1.3765-5.0865-0.858-3.6482-1.6621-7.2876-2.2475-10.996-0.8529-5.4211-1.7775-10.836-3.0007-16.187-0.88196-4.7091-2.1469-9.3499-2.8326-14.092-0.68713-3.7291-1.2991-7.4685-1.8505-11.22-0.40012-2.0862-0.75803-4.1451-0.99612-6.2518 0.095123-3.031 1.4447-3.7107 4.0515-4.6286 2.2351 0.73882 3.6939 2.5919 5.266 4.2524 2.6354 2.7528 4.9527 5.7778 7.3453 8.7375 3.3238 3.6683 6.2071 7.6373 9.0312 11.699 3.0903 4.4881 6.0134 9.0823 8.9774 13.652 2.8698 4.067 5.254 8.3953 7.6606 12.737 1.695 4.2514 3.6064 8.3956 5.1416 12.716 1.4327 3.839 2.5351 7.7833 3.7339 11.697 0.51108 3.0701 0.97214 6.1396 1.5724 9.1925 0.19354 0.9841-1.0497 1.3162-1.3703 0.36588-0.98953-2.9324-2.0795-5.809-3.2945-8.6621-1.098-3.8986-2.3247-7.7588-3.4682-11.646-1.3934-4.2085-2.5176-8.5606-4.8474-12.377-2.0451-4.4229-4.5283-8.6483-7.0082-12.839-2.8201-4.6066-5.7743-9.1351-8.9804-13.485-2.8963-3.9059-5.7695-7.8205-8.9443-11.497-2.4856-2.6825-5.0435-5.2971-8.0608-7.3907-0.45575-0.30078-3.1-2.3742-2.7058-1.3757 0.15253-0.10701 2.6544-1.6724 1.8384-1.16-0.094177 1.8976-0.30496 3.8123-0.11105 5.7183 0.30212 3.7159 0.54098 7.4255 1.0163 11.127 0.8157 4.667 1.3035 9.3956 2.326 14.031 0.91647 5.3309 1.9292 10.683 3.6298 15.825 1.2492 3.4165 2.4748 6.8488 3.9333 10.177 0.68195 1.6153 1.4757 3.2094 1.9045 4.9185 1.1455 4.5648-4.3296 6.3054-6.3332 2.0469z"/>
  <path d="m300.85 295.44c-1.3204-1.7875-2.1752-3.9276-3.1512-5.9438-1.9892-4.4877-4.3401-8.7816-6.3519-13.268-2.5375-5.0545-5.5565-9.8472-7.8695-15.011-2.5133-5.4135-4.4831-11.043-6.2092-16.748-1.5261-5.2248-3.5451-10.257-5.2687-15.412-1.7982-4.2101-2.7622-8.699-3.9203-13.108-0.7738-3.8642-1.1977-7.7754-1.8151-11.666-0.25345-2.8459-1.0594-5.5292-1.2417-8.373-0.28671-2.3048-0.49262-4.5993-0.67755-6.9166-0.2554-1.4824-0.23721-2.9932-0.34112-4.4774-0.033142-2.1129 0.84329-4.0652 1.4822-6.0126 0.41757-1.3761 0.81149-2.6935 1.2216-4.021 0.37302-1.8176 1.6998-2.6845 2.9663-3.8535 2.1216-1.3541 4.3749-1.0837 6.7486-0.73723 3.139 1.3238 5.7494 3.4954 8.4001 5.5917 3.8844 2.9876 7.4613 6.346 11.193 9.5158 4.3107 4.2634 8.4544 8.7162 12.488 13.247 4.2647 4.6242 7.9505 9.7439 11.734 14.772 3.4176 4.7982 5.8878 10.131 7.9699 15.614 1.2852 2.658 2.4147 5.3846 3.5333 8.1153 0.38019 0.92807-0.9325 1.4657-1.3125 0.53758-1.1081-2.7058-2.2271-5.4075-3.5005-8.0412-2.9-4.9521-5.5932-9.998-8.6975-14.83-3.3681-5.2606-7.3944-9.789-11.85-14.158-4.236-4.211-8.1906-8.6943-12.743-12.58-3.442-3.203-7.2381-5.9829-11.294-8.3663-2.4519-1.1342-4.8864-2.4046-7.605-2.7575-0.49225-0.1766-0.80017-0.50407-1.179-0.42299-0.15942 0.21226-0.41565 0.42128-0.54044 0.71942-0.51599 1.2133-1.0728 2.4034-1.5342 3.6877-0.38135 1.2361-0.81781 2.3877-0.71793 3.7389 0.006287 1.5165 0.17377 3.0662-0.071625 4.5867-0.036652 2.217-0.13055 4.417-0.022186 6.6316 0.25021 2.8018-0.1312 5.5519 0.12393 8.3612 0.14969 3.7852 0.51782 7.5614 1.2578 11.28 0.85306 4.3627 1.8276 8.6854 2.9297 12.998 1.4875 5.2219 2.6766 10.51 4.3254 15.69 1.8378 5.5617 3.3476 11.266 5.9427 16.545 2.5556 5.0118 4.9094 10.115 7.7655 14.97 2.5584 4.1011 4.8102 8.4003 7.8481 12.169 1.4032 1.6808 2.9045 3.3145 4.1904 5.0407 2.1562 2.8945-2.0616 5.795-4.2062 2.8919z"/>
  <path d="m335.9 261.54c-1.081-2.4476-1.6337-5.075-2.2969-7.6431-1.4271-4.6782-2.8723-9.3616-4.6505-13.921-2.1832-5.428-3.5261-11.112-4.6545-16.836-1.012-5.7731-2.052-11.541-3.0929-17.309-0.86011-4.3664-1.4292-8.7765-1.9448-13.191-0.27768-3.6214-0.57211-7.2424-0.74088-10.872-0.27356-2.6444-0.35458-5.3235-0.3418-7.9792-0.12509-2.0101 0.50729-3.9088 0.92902-5.8425 0.96548-2.3667 2.0616-3.1383 4.4582-3.6586 3.2653 0.52714 6.037 2.3744 8.7589 4.1549 4.0919 3.2091 8.3161 6.2355 12.344 9.5266 4.4175 3.6179 8.0629 8.0064 11.522 12.516 2.253 2.8701 4.4256 5.7667 6.4374 8.808 0.55334 0.8365-0.53778 1.6178-1.1531 0.82584-2.2235-2.8616-4.3243-5.8042-6.4098-8.7708-3.3916-4.4233-6.962-8.7316-11.294-12.281-3.9433-3.223-7.932-6.5309-12.549-8.7479-2.3856-1.1285-4.6002-2.7097-7.321-2.5974-0.47388 0.37331-1.8852-0.12851-1.5856 1.2491-0.55359 1.645-1.061 3.2619-1.1948 5.0098-0.27393 2.5835-0.38666 5.1884-0.62015 7.7812-0.112 3.5902-0.25384 7.1598 0.2403 10.734 0.43848 4.3871 1.0019 8.7541 1.8609 13.083 1.0395 5.7604 2.0784 11.521 3.0887 17.287 1.1087 5.6288 2.381 11.254 4.6392 16.552 1.908 4.5361 4.2349 8.8806 6.0925 13.441 1.074 2.2226 2.184 4.4596 3.1694 6.7225 1.1794 2.7087-2.4972 4.6607-3.6909 1.9582z"/>
  <path d="m338.77 259.75c0.39597-2.1086 0.37744-4.2785 0.41406-6.422 0.15372-3.5171-0.070679-7.0488-0.21573-10.571-0.17334-3.6452-0.14389-7.2936-0.096497-10.941 0.10132-2.6527-0.23514-5.2465-0.62884-7.8513-0.21057-2.1635-0.30325-4.3164-0.47974-6.4449-0.38467-1.8577-0.001373-3.6352 0.33078-5.4506 0.13397-1.5538 1.2106-2.4751 2.042-3.6458 1.3546-1.6939 2.7889-1.4103 4.6602-1.5778 2.986 0.48973 5.3733 2.1528 7.7274 3.9345 3.0293 2.4968 5.5981 5.4111 7.8285 8.6277 2.5768 4.0128 4.7193 8.2812 6.9154 12.508 2.1213 4.2296 4.1334 8.5138 6.1275 12.805 1.7757 3.5366 3.0754 7.2303 4.3763 10.946 0.15732 0.49226 0.31461 0.98451 0.47189 1.4767 0.30527 0.95535-1.046 1.387-1.3511 0.43167-0.155-0.48532-0.31003-0.97058-0.46509-1.4559-1.2811-3.6613-2.7317-7.2565-4.3183-10.801-1.9854-4.272-3.9886-8.5372-6.0999-12.748-2.1686-4.1742-4.2838-8.3892-6.823-12.355-2.1121-3.0572-4.4796-5.9888-7.6114-8.0514-2.1978-1.1484-4.3218-2.5597-6.9072-2.6977-0.86972 0.25467-1.7991 0.014435-2.4239 0.83296-0.5654 0.78104-1.2607 1.4466-1.6556 2.338-0.1604 1.5871-0.36124 3.1738-0.39291 4.7759 0.070648 2.1068 0.2204 4.2453 0.36697 6.3908-0.053101 2.6767-0.13858 5.3574-0.27185 8.0351-0.04718 3.6215-0.076569 7.2441 0.095642 10.863 0.14444 3.5087 0.22327 7.0401 0.83136 10.5 0.28946 2.0621 0.48532 4.195 1.2884 6.1253 1.021 2.4542-4.2259 3.035-3.7354 0.42258z"/>
  <path d="m359.65 220.57c0.31909-1.8272 0.4379-3.6983 0.56451-5.5494 0.006897-2.9572 0.67517-5.8112 1.377-8.6635 0.61493-3.2249 1.7332-6.3238 2.945-9.3648 1.326-2.8924 3.4467-4.883 5.8845-6.8041 2.1017-1.638 4.5227-2.7083 6.8625-3.9423 2.5627-1.3723 5.0984-1.4355 7.8649-1.2612 3.665 1.1309 6.2539 3.7758 8.9746 6.3016 3.5655 3.352 5.2556 7.9943 6.9363 12.473 0.35239 0.939-0.97708 1.437-1.3282 0.49753-1.6071-4.299-3.8975-8.004-7.2288-11.215-2.4256-1.9481-4.85-3.9524-7.9678-4.6289-2.1369-0.14807-3.8904-0.33263-5.8636 0.87553-2.2375 0.94589-4.369 2.0883-6.4073 3.4235-1.9482 1.5809-3.7913 3.2426-4.8241 5.6037-1.2382 2.8117-2.3957 5.6138-2.9175 8.6678-0.37149 2.682-0.79086 5.3804-0.75208 8.0986 0.080261 1.689 0.05954 3.4615 0.63294 5.0616 1.1383 3.1764-5.3334 3.7507-4.7528 0.42671z"/>
  <path d="m397.85 231.69c0.30585-1.6054 0.39233-3.2072 0.64404-4.8237 0.26504-3.3105 0.68662-6.5607 1.222-9.8434 0.77853-3.7436 1.734-7.4354 2.6605-11.144 0.57971-3.2036 1.5769-6.3027 2.6913-9.3483 0.80872-2.4429 1.9676-4.6824 3.3531-6.8351 1.1211-1.8722 2.8264-3.1952 4.4558-4.551 1.6928-1.6549 3.512-2.147 5.7747-2.4531 3.0449-0.08812 5.6095 1.0741 8.2407 2.334 3.1785 2.4668 5.7741 5.5305 7.9768 8.888 2.9112 4.0449 4.6252 8.7254 6.7936 13.165 2.5931 4.4642 4.3259 9.3552 6.0505 14.202 1.4059 4.4902 2.0671 9.1334 3.45 13.627 0.29495 0.95859-1.0607 1.3758-1.3556 0.41718-1.3714-4.4568-3.4509-8.5794-5.2676-12.866-1.8219-4.7062-3.914-9.2715-5.9437-13.887-2.0688-4.2621-4.4522-8.3864-6.9305-12.42-2.0435-2.8218-4.1049-5.6507-7.0268-7.6212-1.7768-1.2941-3.4483-2.6265-5.7367-2.6513-1.4674 0.36324-3.0289 0.49197-4.3256 1.4527-1.394 1.2361-2.8477 2.3758-4.0276 3.8558-1.275 1.974-2.673 3.9041-3.5278 6.1222-1.1636 2.9518-2.3408 5.8787-3.2105 8.9364-0.97299 3.6374-2.0283 7.2875-2.4682 11.037-0.39416 3.2242-0.84192 6.4527-0.85742 9.7113 0.1023 1.5707 0.022858 3.1459 0.37454 4.695 0.47116 2.0751-3.4076 2.0903-3.0094 0z"/>
  <path d="m433.04 169.22c2.1526-2.3951 3.4283-5.4326 5.0318-8.2141 2.3962-4.0564 5.1233-7.9007 7.9002-11.702 2.2368-3.186 4.7449-6.1562 7.289-9.0961 1.413-2.0371 3.2564-3.5396 5.1741-5.0427 2.3025-1.3104 3.5295-0.50972 5.6918 0.42593 1.8476 1.7184 3.6189 3.5301 5.3672 5.322 2.4052 3.5189 4.7866 7.0228 6.7103 10.839 2.079 4.0525 4.1591 8.058 5.7058 12.356 1.4807 3.6599 2.6685 7.4219 3.7822 11.208 0.9469 2.4858 0.8555 5.1753 0.86197 7.7284 0.002533 1.003-0.93582 1.2004-1.3854 0.30394-1.1014-2.1962-2.3001-4.5078-2.9518-6.9912-1.1808-3.6885-2.2997-7.3957-3.4535-11.09-1.5449-4.1184-3.0295-8.3052-5.0673-12.201-1.9368-3.5568-3.6876-7.3112-6.4666-10.303-1.334-1.8194-2.537-3.6777-4.5672-4.7999-1.0212-0.32404-1.8887-1.0841-3.0857-0.72414-1.8803 1.114-3.7496 2.2358-5.2386 3.921-2.5324 2.8922-5.013 5.8274-7.221 8.981-2.747 3.7597-5.4453 7.5618-7.8166 11.574-1.6185 2.807-3.3834 5.594-4.2407 8.7368-0.44019 1.6137-3.138 0.012955-2.0199-1.2311z"/>
  <path d="m447.9 230.07c0.8392-1.8525 2.193-3.3954 3.3096-5.0922 2.4209-3.721 5.2438-7.1414 7.8774-10.711 3.1821-4.1867 6.859-7.9457 10.211-11.988 2.8748-3.4977 6.0199-6.7412 9.2758-9.8799 2.3411-2.3103 4.7414-4.5475 7.1419-6.7977 1.4817-1.5858 3.3637-2.6555 5.1634-3.7789 3.4126-0.88327 4.4746 1.1358 4.9771 4.1077 0.97378 2.8802 1.377 5.8565 1.7077 8.8905 0.57706 4.3252 0.78738 8.6854 0.97946 13.041 0.11813 3.0434 0.3002 6.0838 0.4537 9.1255 0.050568 1.0017-1.366 1.0732-1.4166 0.071518-0.15366-3.0448-0.33585-6.0882-0.4541-9.1346-0.18924-4.2919-0.34592-8.6036-1.0248-12.852-0.74402-2.6824-1.3493-5.5844-2.7289-7.9704-1.0089 0.17189-1.5631-0.1628-0.33524 0.057114-1.35 0.74019-2.7127 1.462-3.8737 2.5654-2.5851 1.9354-5.1292 3.8984-7.6503 5.9176-3.26 2.8899-6.522 5.7784-9.3786 9.0834-3.4515 3.8473-6.4283 8.0691-9.5592 12.177-2.612 3.3729-4.5661 7.1008-6.3225 10.983-0.83462 1.7052-1.436 3.512-2.4494 5.1074-2.4978 3.9322-7.8263 1.3201-5.904-2.9232z"/>
  <path d="m464.05 253.2c1.138-1.6188 2.2736-3.1919 3.593-4.6697 1.2606-2.0171 3.0602-3.3772 4.9845-4.6922 0.82803-0.56587 1.556 0.37247 0.8794 1.1128-1.4281 1.5627-2.8725 3.1461-4.283 4.746-0.84024 1.5371-1.8281 3.0334-1.9578 4.8159-0.17822 2.4498-4.6287 0.69643-3.216-1.3129z"/>
  <path d="m487.36 251.04c-0.42776-1.0206-1.1936-1.8063-1.822-2.6998-1.6639-1.4733-3.6642-2.2576-5.6466-3.1688-0.46738 0.024933-0.93478 0.049881-1.4022 0.074814-1.0015 0.053452-1.0713-1.3716-0.069305-1.4167 0.53003-0.023849 1.0601-0.047684 1.5901-0.071533 2.9197-0.23352 5.43-0.15157 7.9148 1.8393 1.3098 1.081 2.576 2.0743 3.1646 3.7502 0.95962 2.7323-2.61 4.3634-3.7293 1.6926z"/>
  <path d="m496.39 226.46c-1.7266 1.632-2.389 4.1811-3.0123 6.4656-1.4688 6.0802-1.809 12.431-2.193 18.667-0.20758 3.2965-0.097198 6.5953 0.027313 9.8912 0.037842 1.0022-1.3798 1.0556-1.4174 0.053345-0.12543-3.3428-0.23645-6.6885-0.025635-10.032 0.39056-6.3305 1.1854-12.618 1.6787-18.932 0.30026-3.0503 0.25946-6.2153 1.3214-9.1227 1.1421-3.1272 6.0406 0.72252 3.621 3.0094z"/>
  <path d="m501.31 225.61c-0.31808 1.1962-0.070526 2.3753-0.025177 3.5738 0.037933 1.0022-1.0636 1.1803-1.3988 0.23503-0.36227-1.0216-0.36093-2.1444-1.3283-2.863-1.6519-1.2272 3.281-2.9346 2.7523-0.94586z"/>
  <path d="m506.36 232.19c-0.14877-2.1572-0.35452-4.121-0.1654-6.2833 0.23242-3.0138 1.0804-5.9858 1.8669-8.9062 0.48459-2.5891 1.5397-4.9319 2.7464-7.2419 1.1275-1.9244 2.5232-3.2794 4.3546-4.4333 4.1251-0.46619 4.75 2.2588 6.2667 5.5112 1.6558 4.9057 3.7692 9.6247 5.4444 14.525 0.34351 1.0752 0.68707 2.1504 1.0307 3.2256 0.3053 0.95535-1.046 1.387-1.3511 0.43166-0.34058-1.0662-0.68115-2.1324-1.0217-3.1986-1.6181-4.7377-3.1343-9.6414-6.6134-13.382-0.66571-0.64275-3.7756-2.3181-1.782-2.2209-0.646 0.52032-1.9017 0.96643-2.2896 2.0702-1.1349 1.8534-2.3145 3.6912-2.9081 5.8144-0.71872 2.7482-1.4029 5.486-1.9208 8.2635-0.23694 1.9791-0.91959 3.8444-0.90741 5.8251 0.011871 1.9446-2.6163 1.94-2.7501 0z"/>
  <path d="m493.75 169.51c1.8365-2.7732 3.9996-5.4117 5.7936-8.3092 3.0338-4.8712 5.9555-9.8109 8.8648-14.757 2.0689-3.5778 4.3893-6.9964 6.6774-10.434 1.6179-2.5834 3.6909-4.1572 6.3903-5.3642 3.437-0.2852 5.3034 1.6885 7.3629 4.1496 2.701 2.9059 3.8332 6.6223 4.8704 10.374 1.5259 5.2644 2.78 10.628 3.5255 16.059 0.97797 5.6011 1.0541 11.279 1.3038 16.939 0.16156 2.3758-0.15796 4.7272-0.23383 7.0994-0.032104 1.0024-1.4498 0.95702-1.4177-0.04541 0.0755-2.3554-0.10974-4.683 0.016357-7.0383 0.14197-5.5908-0.32019-11.193-1.1211-16.725-0.95465-5.312-1.7144-10.674-3.4272-15.818-1.4209-3.3279-3.3771-6.2209-5.4749-9.1476-1.4724-1.3111-2.6522-2.8468-4.7316-3.0363-2.2965 0.72368-4.1343 1.5041-5.6595 3.6323-2.5967 3.1472-4.8602 6.5059-6.8584 10.075-2.9148 4.9554-5.842 9.9042-8.8814 14.785-1.7553 2.835-3.1808 5.8368-4.5781 8.7614-0.82361 1.724-3.4765 0.39404-2.4215-1.1989z"/>
  <path d="m533.96 188.43c2.3252-1.4853 4.063-3.6964 5.9184-5.7063 1.8351-2.1817 3.4024-4.5356 5.1312-6.7958 1.1323-1.6012 2.6642-2.8514 4.1446-4.123 2.7817-0.82103 4.2734-0.18881 6.2654 1.6193 1.7978 2.8457 2.6255 5.9217 3.3065 9.1774 0.57172 5.5524 0.87988 11.127 0.74469 16.709-0.13226 6.6742-1.0541 13.3-1.888 19.914-1.504 7.3413-3.4296 14.559-5.9164 21.631-2.8492 6.695-4.3497 13.909-7.7974 20.333-2.2577 2.55-3.8535 5.1551-5.0375 8.3145-0.35199 0.93915-1.6802 0.44134-1.3282-0.49777 1.1825-3.155 1.6866-6.1525 1.6285-9.5549 1.5279-7.075 5.1924-13.438 7.1383-20.408 2.165-6.7559 4.6757-13.498 5.0741-20.652 0.89777-6.3338 1.308-12.709 1.4271-19.104-0.095398-5.1172-0.1767-10.254-1.5041-15.237-0.52862-2.3804-0.98035-4.7838-1.2899-7.1864 0.18561-0.23151 0.99054-0.81718 0.96271-1.2006-1.2274 0.57286-2.7613 1.1163-3.8536 2.2878-2.1541 1.7787-4.3044 3.5818-6.1424 5.7097-1.6791 2.0126-3.739 3.8966-4.3703 6.504-0.52179 2.1555-4.4825-0.54001-2.6136-1.7339z"/>
  <path d="m376.05 183.62c1.0692-2.9437 2.6921-5.7207 3.9931-8.6095 2.7577-6.0802 5.0895-12.36 7.4868-18.595 2.1048-5.4712 3.8864-11.061 6.0797-16.499 1.1429-3.6709 2.4962-7.2584 4.0798-10.75 1.247-2.7784 3.083-4.7349 5.474-6.4745 3.8929-2.0131 6.5008-0.12868 9.6148 2.2637 3.1195 3.3316 6.2069 6.7486 8.6186 10.633 2.8842 4.4307 5.589 9.0173 8.1276 13.662 2.2062 4.215 4.0137 8.6207 5.8811 12.992 0.39404 0.92229-0.91315 1.4729-1.3072 0.55057-1.8486-4.327-3.6372-8.6886-5.8187-12.862-2.4927-4.5652-5.3418-8.7828-9.2452-12.287-3.2425-2.6773-5.9888-5.9685-9.5796-8.2143-1.0107-0.51253-2.031-1.1092-3.0498-1.5474-1.2922 1.2345-2.6068 2.3291-3.3733 4.0214-1.7666 3.2094-3.551 6.4466-5.0619 9.8061-2.2591 5.3898-4.7595 10.679-6.9064 16.114-2.4892 6.0373-5.2129 12.146-6.2469 18.624-0.46356 2.8735-0.77908 5.7575-0.96326 8.6334-0.35873 5.602-9.7196 3.8161-7.8033-1.4601z"/>
  <path d="m330.18 165.22c1.7236-1.4213 3.1111-3.1699 4.5453-4.845 1.8904-2.9585 3.6666-5.9894 5.5087-8.9789 0.50934-0.89351 1.1176-1.7243 1.676-2.586 0.54547-0.84163 1.7245-0.053131 1.179 0.7885-0.55072 0.84964-1.1518 1.668-1.6527 2.5499-1.8338 2.9759-3.7015 5.9382-5.3573 9.0177-0.74393 2.038-1.5994 4.0768-1.9703 6.2421-0.5368 3.1343-6.3823-0.16528-3.9288-2.1884z"/>
  <path d="m364.36 138.68c2.0954 0.28693 3.7158 1.5523 5.5361 2.549 2.343 1.5391 4.7573 2.9412 7.1472 4.3889 2.1868 1.1605 3.9748 2.7706 5.6914 4.5218 1.2378 1.5463 2.4127 2.9507 3.8554 4.239 0.97 0.82654 1.8104 1.8216 2.6499 2.7558l-0.79507 1.4006c-0.56342 0.99248-0.17651 0.54547-1.1634 1.1187-0.45807 0.26613-0.91617 0.53223-1.3742 0.79834-0.95312-0.91727-1.9441-1.8482-2.8205-2.8555-1.0902-1.6052-2.2601-3.0487-3.5817-4.497-1.492-1.4515-2.9662-2.9504-4.6652-4.1876-2.171-1.6122-4.3274-3.203-6.8861-4.1851-1.584-0.86185-3.1854-1.5927-4.7825-2.347-2.4849-1.1735-1.5341-4.0729 1.1886-3.7001z"/>
  <path d="m464.26 135.34c1.8288-1.0303 3.3142-2.5488 4.8483-3.9531 2.8424-2.2374 5.1299-5.0431 7.5673-7.6941 1.6234-2.0998 3.4308-4.0407 5.2812-5.9368 2.0785-1.9896 4.1076-2.0001 6.7745-1.8138 3.1826 1.245 5.3963 4.0246 7.7353 6.3915 2.8335 3.1928 5.253 6.72 7.7999 10.143 1.8219 2.6395 3.6486 5.2208 5.0559 8.1016 0.50723 1.2229 0.1506 2.5043-0.03006 3.7715-0.14148 0.99292-0.50604 1.0646-1.33 0.49281-0.92648-0.64296-1.9416-1.2791-2.5843-2.2224-1.5446-2.6288-2.7396-5.4411-4.3525-8.0401-2.055-3.5159-4.2151-6.9164-7.0978-9.8353-1.835-1.8307-3.5125-3.6746-6.1599-4.4429-1.1424 0.071075-2.0626-0.48288-3.0744 0.64613-1.9601 1.5769-3.9047 3.1676-5.7491 4.8845-2.5152 2.5581-5.1543 5.0145-7.1175 8.0431-1.2594 1.6851-2.6053 3.3494-3.5582 5.2403-1.7523 3.4774-7.4014-1.8645-4.0087-3.7758z"/>
  <path d="m280.95 172.19c0.27268-2.0628 0.49988-4.1525 0.8446-6.2096 0.47253-2.9328 0.85913-5.8668 1.0939-8.8267 0.15707-2.4818 1.1168-4.5756 2.3888-6.6561 2.4161-2.5414 4.7121-2.2991 7.8008-1.8935 3.3144 0.96991 6.2211 2.4606 9.1052 4.3086 3.0118 2.4681 5.9124 4.9894 8.7169 7.6907 2.1127 1.7284 3.5885 3.8828 4.9937 6.1734 0.52444 0.8549-0.33008 1.5693-1.087 0.91124-1.971-1.7136-3.8136-3.4992-5.4038-5.5878-2.6223-2.6641-5.1589-5.5066-8.3657-7.4854-2.5511-1.6088-4.9283-3.5126-8.0959-3.0715-1.4112 0.50714-2.8802 0.67148-3.9386 1.8302-0.75198 1.4523-1.8394 2.7463-1.9977 4.5561-0.76624 2.7736-1.252 5.5855-1.4931 8.4671-0.15881 2.1414-0.46695 4.2692-0.77243 6.3791-0.38852 2.6836-4.1451 2.1024-3.7898-0.58582z"/>
 </g>
 <g fill="#3f3f3f">
  <path d="m396 253.58c1.109 1.8478 1.2931 3.947 1.511 6.0592 0.61859 3.8731 0.89841 7.1456-0.89478 10.714 0.086273 0.71167 0.17261 1.4233 0.25894 2.135 0.12073 0.99567-1.2873 1.1664-1.4081 0.17081-0.08609-0.7099-0.17218-1.4197-0.25827-2.1296-2.5338-2.9504-3.0707-6.1188-3.6491-9.887-0.4126-2.168-0.92133-4.3127-0.13065-6.4298 1.1416-3.0567 2.8918-3.4309 4.5709-0.63313z"/>
  <path d="m410.07 250.08c0.13232 2.6372-0.22992 5.7579-0.22873 8.5944 0.18094 3.4746-0.67841 6.7342-0.32752 10.172 0.10184 0.99774-1.2866 1.1543-1.4094 0.15897-0.4285-3.4717-1.9482-6.5771-2.1836-10.114-0.29959-2.7356-0.83719-5.7113-1.2243-8.2322-0.58008-3.7773 5.182-4.3957 5.3736-0.5789z"/>
  <path d="m425.24 236.92c0.24289 2.8383-0.35751 5.5732-0.81592 8.3614-0.16275 5.3944-2.427 10.135-3.9395 15.19-0.28754 0.96082-1.213 0.92349-1.4172-0.058441-1.0736-5.1635-2.696-10.1-2.2362-15.47-0.1958-2.423-0.56683-4.8454-0.74576-7.2579-0.48047-6.4779 8.6006-7.2372 9.1545-0.76518z"/>
 </g>
 <path d="m435.29 250.15c-0.38556 2.3922-0.94235 4.8063-1.2892 7.2396-0.33487 2.8468-1.2916 5.4827-1.8013 8.287-0.17938 0.98676-1.4054 0.88165-1.4132-0.12125-0.022491-2.8922-0.47943-5.689-0.072174-8.5848 0.25088-2.3718 0.37042-4.7398 0.38828-7.1054 0.022369-2.9678 4.6599-2.6452 4.1876 0.28493z"/>
 <g fill="#3f3f3f">
  <path d="m449.68 243.94c-0.66006 3.4092-2.0139 6.9089-2.9968 10.32-1.4006 4.5679-3.5271 8.6029-4.3178 13.348-0.16486 0.98932-1.564 0.75616-1.3991-0.23312 0.7822-4.6939 0.22043-9.2004 0.349-13.93 0.05072-3.4059-0.30878-6.8444-0.59341-10.143-0.54596-6.3268 10.165-5.5959 8.9581 0.63867z"/>
  <path d="m472.39 420.38c1.8294 2.404 3.9464 4.6163 5.9841 6.8648 5.0648 3.3502 10.132 7.1811 14.421 11.561 5.1382 5.4179 10.208 10.866 15.338 16.314 4.1249 4.4514 9.4451 7.5693 14.373 11.075 4.9773 2.8847 10.278 4.5738 15.765 6.137 7.4927 1.7086 15.234 1.8523 22.888 1.8743 10.968-0.31644 21.891-1.3286 32.695-3.2304 12.559-2.1005 24.673-6.0579 36.569-10.505 9.8974-3.8419 19.528-8.3398 28.997-13.134 5.0624-2.774 10.22-5.3764 15.292-8.1212 2.934-1.611 5.7652-2.7234 9.0186-3.1565 2.0122 1.0141 4.1743 1.5926 6.1984 2.3842 1.3209 0.51666 1.2133 0.39227 0.92346 1.7807-0.44818 2.1472-1.0479 4.336-1.5423 6.5348-2.7948 2.5962-5.7037 4.2539-9.5355 5.1565-5.5186 1.5348-10.96 3.3426-16.471 4.9193-10.229 3.2515-20.294 6.9682-30.39 10.605-12.368 4.2211-24.824 8.1833-37.546 11.208-11.15 2.4274-22.343 4.7926-33.755 5.595-8.7335 0.78519-17.528 1.351-26.223-0.1962-6.9263-1.4919-13.824-4.0331-19.417-8.483-5.5971-4.1831-10.59-8.5533-14.91-14.109-4.8173-5.6469-9.3267-11.528-14.142-17.15-4.0132-4.4955-7.623-9.3838-11.464-13.963-2.4182-2.0473-4.8186-4.1429-7.2355-6.1614-3.0609-2.5564 1.7533-6.9728 4.1684-3.7992z"/>
  <path d="m550.59 377.37c5.5568 0.67218 11.078-0.06781 16.568-0.95584 13.491-1.6379 26.369-6.1302 39.128-10.595 14.284-4.9254 28.257-10.658 41.985-16.955 9.1964-4.7415 17.76-10.533 26.24-16.426 5.4046-3.7737 10.838-7.4813 16.051-11.508 3.8217-2.8888 7.2078-6.2327 10.449-9.728 1.8406-1.8704 3.2474-3.9284 4.5779-6.1525 0.14746-0.53458 0.024414-1.1087 0.036682-1.6631 0.70715 0.11609-3.735-1.3815-4.4767-1.5998-7.6926-1.3582-15.586-1.0605-23.356-0.5777-10.698 0.47693-21.31 2.0984-31.904 3.5874-10.265 1.6606-20.543 3.2525-30.789 5.0262-1.3976 0.24191-1.7397-1.7346-0.3421-1.9765 10.268-1.777 20.566-3.3729 30.852-5.0361 10.642-1.4957 21.306-2.7579 31.969-4.0675 8.0858-0.90146 16.096-2.263 24.187-3.0683 4.701 0.19437 9.135-0.081879 12.039 4.1919 0.60083 3.1445 0.92035 5.6157-0.8559 8.4998-1.622 3.1312-3.1529 6.4154-5.7601 8.8682-3.8621 3.4701-7.834 6.8932-12.186 9.7988-5.6946 3.698-11.249 7.6239-17.365 10.624-9.3101 4.7695-18.875 9.0126-28.531 13.031-13.785 6.3221-27.815 12.079-42.158 17.025-12.889 4.5103-25.776 9.0306-38.511 13.965-5.7986 1.8876-11.43 4.1782-17.201 6.0958-6.9947 2.3243-7.9638-11.289-0.64636-10.404z"/>
 </g>
</svg>
