<?xml version="1.0" standalone="no"?>
<!DOCTYPE svg PUBLIC "-//W3C//DTD SVG 20010904//EN"
 "http://www.w3.org/TR/2001/REC-SVG-20010904/DTD/svg10.dtd">
<svg version="1.0" xmlns="http://www.w3.org/2000/svg"
 width="597.000000pt" height="111.000000pt" viewBox="0 0 597.000000 111.000000"
 preserveAspectRatio="xMidYMid meet">

<g transform="translate(0.000000,111.000000) scale(0.100000,-0.100000)"
fill="#000000" stroke="none">
<path d="M3176 810 c-81 -25 -122 -131 -81 -210 33 -65 154 -91 221 -49 36 22
46 36 17 24 -70 -29 -145 -20 -183 20 -50 53 -31 151 35 182 87 41 166 -55 99
-121 -18 -19 -65 -21 -82 -4 -18 18 -15 55 6 67 9 6 12 11 7 11 -36 1 -46 -57
-15 -85 47 -43 120 0 120 71 0 50 -13 69 -60 88 -45 18 -44 18 -84 6z"/>
<path d="M2780 795 c0 -44 38 -84 98 -100 18 -5 22 -2 22 17 0 33 -23 63 -64
82 -43 20 -56 20 -56 1z"/>
<path d="M2930 772 c0 -27 7 -45 23 -60 31 -30 37 -28 37 12 0 32 -32 86 -51
86 -5 0 -9 -17 -9 -38z"/>
<path d="M3477 736 c-62 -22 -107 -76 -107 -127 0 -19 4 -21 38 -15 63 12 110
59 127 129 8 31 0 33 -58 13z"/>
<path d="M2670 723 c-42 -8 -43 -19 -5 -52 40 -35 96 -42 130 -17 19 14 19 15
1 35 -16 18 -80 44 -96 40 -3 -1 -16 -4 -30 -6z"/>
<path d="M2845 653 c-16 -8 -37 -21 -45 -28 -8 -7 -34 -16 -58 -20 -52 -8
-100 -52 -124 -113 -16 -41 -16 -42 3 -42 62 0 145 63 155 118 9 45 52 72 117
72 59 0 102 -21 122 -60 54 -104 -60 -219 -149 -149 -49 39 -20 129 41 129 52
0 71 -68 23 -81 -21 -6 -22 -7 -5 -8 44 -2 61 52 27 82 -10 10 -32 17 -49 17
-72 0 -107 -107 -50 -156 57 -49 144 -36 191 29 29 40 29 136 1 167 -50 55
-140 75 -200 43z"/>
<path d="M1238 629 c-30 -17 -16 -69 18 -69 14 0 44 27 44 40 0 10 -29 40 -38
40 -4 0 -15 -5 -24 -11z"/>
<path d="M2158 629 c-37 -21 -10 -77 30 -64 26 8 34 41 15 60 -17 17 -22 18
-45 4z"/>
<path d="M3968 629 c-37 -21 -9 -77 32 -64 25 8 28 60 4 69 -19 7 -15 8 -36
-5z"/>
<path d="M4882 628 c-23 -23 -7 -68 24 -68 14 0 44 27 44 40 0 13 -30 40 -44
40 -6 0 -17 -5 -24 -12z"/>
<path d="M525 616 c-82 -26 -86 -35 -14 -36 36 0 90 -5 120 -10 42 -8 65 -7
99 4 35 11 39 14 19 15 -15 1 -55 10 -89 21 -72 23 -80 23 -135 6z"/>
<path d="M945 610 c-33 -11 -71 -20 -85 -20 -22 -1 -23 -2 -8 -11 23 -13 77
-14 202 -4 l99 8 -36 18 c-55 29 -105 31 -172 9z"/>
<path d="M1420 607 l-55 -22 95 -8 c133 -11 185 -11 206 2 17 9 17 10 -6 11
-14 0 -54 9 -88 20 -78 24 -83 24 -152 -3z"/>
<path d="M1860 610 c-30 -11 -68 -20 -85 -21 -27 -1 -26 -2 15 -15 34 -11 57
-12 99 -4 30 5 84 10 120 11 l66 1 -41 18 c-64 30 -112 33 -174 10z"/>
<path d="M2330 607 l-55 -22 96 -6 c52 -4 105 -10 117 -13 11 -4 40 -2 64 5
l43 12 -40 8 c-22 4 -60 15 -84 23 -56 21 -74 20 -141 -7z"/>
<path d="M3675 610 c-27 -10 -63 -19 -80 -20 -26 0 -28 -2 -12 -11 23 -13 80
-14 207 -2 l95 8 -58 23 c-68 26 -86 26 -152 2z"/>
<path d="M4150 607 l-55 -22 95 -8 c133 -11 185 -11 206 2 17 9 17 10 -6 11
-14 0 -54 9 -88 20 -78 24 -83 24 -152 -3z"/>
<path d="M4590 610 c-30 -10 -68 -19 -85 -20 -28 -2 -26 -3 15 -16 34 -11 57
-12 99 -4 30 5 84 10 120 11 l66 1 -41 18 c-62 29 -112 32 -174 10z"/>
<path d="M5060 607 l-55 -22 96 -6 c52 -4 105 -10 117 -13 11 -4 40 -1 64 5
36 11 39 13 18 17 -14 2 -51 12 -83 23 -71 24 -88 23 -157 -4z"/>
<path d="M5505 610 c-27 -10 -63 -19 -80 -20 -27 0 -28 -2 -11 -11 21 -13 73
-13 206 -2 l95 8 -58 23 c-68 26 -86 26 -152 2z"/>
<path d="M3371 551 c-34 -9 -36 -23 -5 -52 22 -20 35 -24 85 -23 33 1 62 4 66
8 10 10 -29 47 -64 62 -35 15 -45 16 -82 5z"/>
<path d="M3158 493 c-3 -37 3 -58 24 -80 29 -31 38 -29 38 11 0 51 -57 115
-62 69z"/>
<path d="M3250 481 c0 -30 45 -76 85 -89 l37 -11 -6 32 c-12 61 -116 122 -116
68z"/>
</g>
</svg>
