<?xml version="1.0" standalone="no"?>
<!DOCTYPE svg PUBLIC "-//W3C//DTD SVG 20010904//EN"
 "http://www.w3.org/TR/2001/REC-SVG-20010904/DTD/svg10.dtd">
<svg version="1.0" xmlns="http://www.w3.org/2000/svg"
 width="828.000000pt" height="231.000000pt" viewBox="0 0 828.000000 231.000000"
 preserveAspectRatio="xMidYMid meet">

<g transform="translate(0.000000,231.000000) scale(0.100000,-0.100000)"
fill="#e57002" stroke="none">
<path d="M4123 2248 c-12 -15 -56 -101 -71 -138 -16 -37 -32 -125 -32 -171 l0
-41 -34 21 c-42 26 -72 27 -86 2 -5 -11 -10 -56 -10 -100 l0 -81 -61 0 c-70 0
-69 -9 4 -43 87 -40 164 -131 232 -272 53 -112 62 -151 41 -180 -20 -26 -20
-105 0 -133 19 -28 38 -28 64 0 25 27 27 98 4 133 -11 17 -14 34 -9 57 21 93
116 262 187 332 22 21 64 49 94 63 30 13 54 29 54 34 0 5 -25 9 -55 9 l-55 0
0 74 c0 96 -11 126 -46 126 -14 0 -38 -9 -54 -20 l-27 -20 -12 88 c-12 95 -31
151 -75 225 -29 50 -37 55 -53 35z m57 -95 c32 -64 35 -76 38 -184 3 -98 1
-121 -13 -143 -10 -14 -24 -43 -32 -64 -13 -34 -13 -26 -9 99 5 137 -5 214
-27 206 -21 -7 -27 -62 -22 -207 2 -80 2 -136 -1 -125 -3 11 -16 43 -30 72
-24 48 -25 60 -22 165 3 102 7 120 35 181 18 37 36 67 40 67 5 0 24 -30 43
-67z m-204 -262 c72 -44 129 -167 137 -294 2 -39 2 -58 0 -42 -2 17 -9 34 -14
40 -5 5 -9 17 -9 27 0 32 -56 144 -81 162 -50 35 -53 4 -6 -74 17 -30 37 -66
44 -80 36 -76 44 -101 40 -112 -2 -8 -10 0 -18 17 -22 49 -85 138 -118 167
-32 27 -36 47 -31 153 3 62 8 65 56 36z m382 -73 l3 -86 -42 -39 c-23 -21 -61
-72 -85 -113 -24 -41 -44 -67 -44 -57 0 9 4 25 9 35 5 9 24 49 42 87 18 39 41
82 51 97 29 42 18 75 -17 50 -33 -23 -95 -164 -109 -247 -2 -16 -3 3 -1 43 6
119 53 231 119 288 61 52 70 45 74 -58z"/>
<path d="M3305 1499 c-16 -5 -91 -11 -165 -13 -136 -4 -294 -20 -340 -35 -14
-5 -52 -16 -85 -26 -33 -10 -64 -22 -69 -27 -6 -4 -16 -8 -24 -8 -20 0 -252
-114 -395 -195 -65 -36 -222 -132 -350 -212 -516 -326 -733 -392 -1082 -329
-124 23 -137 27 -192 62 -80 51 -140 114 -168 177 -27 63 -40 74 -30 26 9 -41
41 -96 79 -137 79 -84 -123 49 -235 155 -98 93 -168 223 -169 310 0 34 -42 93
-66 93 -19 0 -18 -15 7 -80 56 -148 99 -217 213 -337 91 -96 180 -155 357
-241 142 -68 164 -77 277 -107 187 -52 612 -54 792 -5 86 23 216 64 225 70 6
4 21 11 35 15 38 11 166 75 250 123 117 68 169 105 399 277 296 222 348 257
491 328 123 61 126 62 202 60 92 -2 195 -31 263 -74 78 -49 100 -78 125 -172
17 -63 34 -40 18 24 -19 76 -63 133 -138 176 -38 23 -140 60 -180 65 -44 7 47
28 119 28 64 0 208 -23 246 -40 11 -5 30 -12 42 -15 43 -12 144 -87 172 -128
58 -85 75 -201 45 -305 -38 -130 -128 -218 -289 -283 -49 -20 -141 -32 -278
-36 -87 -3 -145 -8 -142 -14 8 -13 258 -11 309 2 190 49 241 73 321 154 34 33
74 87 90 119 27 54 30 69 30 156 0 88 -3 102 -30 155 -54 103 -182 196 -310
225 -27 7 -66 16 -86 21 -47 12 -245 10 -284 -2z m-205 -46 c-1 -5 -49 -31
-108 -60 -126 -61 -266 -151 -458 -294 -194 -144 -186 -139 -319 -223 -110
-69 -360 -196 -385 -196 -6 0 -18 -4 -28 -9 -30 -17 -165 -59 -222 -71 -153
-29 -207 -35 -340 -35 -146 0 -248 9 -285 25 -11 5 -31 10 -45 12 -14 2 38 3
115 3 83 0 160 6 190 13 28 7 77 20 110 28 223 56 423 156 793 394 89 58 170
110 179 115 9 6 41 25 70 43 65 40 268 142 343 172 30 12 64 26 75 30 88 37
316 75 315 53z"/>
<path d="M4685 1500 c-16 -4 -52 -13 -80 -20 -125 -28 -251 -120 -311 -225
-26 -46 -28 -59 -29 -151 0 -92 3 -106 30 -160 16 -32 56 -86 90 -119 80 -81
131 -105 321 -154 50 -13 293 -14 313 -2 10 6 -41 11 -140 14 -142 4 -234 16
-284 36 -160 65 -251 154 -289 283 -30 104 -13 220 45 305 28 41 129 116 172
128 12 3 31 10 42 15 38 17 182 40 246 40 35 0 82 -6 104 -12 l40 -12 -35 -4
c-19 -2 -39 -8 -44 -13 -6 -5 -17 -9 -25 -9 -23 0 -131 -57 -160 -83 -53 -49
-96 -150 -81 -192 5 -14 10 -6 20 31 25 95 46 124 125 173 68 43 171 72 263
74 76 2 79 1 202 -60 143 -71 195 -106 491 -328 230 -173 283 -209 399 -277
172 -99 298 -151 510 -208 83 -23 217 -35 380 -35 224 0 327 13 504 65 76 23
350 162 420 214 72 54 162 140 193 186 9 14 19 27 23 30 33 30 140 256 140
298 0 22 -28 13 -54 -19 -16 -19 -26 -43 -26 -62 -1 -87 -71 -217 -169 -310
-107 -101 -315 -240 -240 -160 38 40 75 103 84 141 10 47 1 39 -30 -25 -41
-87 -168 -198 -250 -217 -420 -99 -639 -43 -1192 307 -128 80 -285 176 -350
212 -143 81 -375 195 -395 195 -8 0 -18 4 -23 8 -6 5 -37 17 -70 27 -33 10
-71 21 -85 26 -46 15 -204 31 -340 34 -74 2 -151 9 -170 14 -40 13 -240 13
-285 1z m614 -51 c95 -15 175 -38 266 -77 99 -41 280 -132 349 -175 29 -18 60
-36 69 -42 9 -5 88 -56 175 -111 230 -149 330 -208 445 -263 165 -79 234 -105
352 -135 33 -8 83 -21 110 -28 30 -7 107 -13 190 -13 77 0 129 -1 115 -3 -14
-2 -34 -7 -45 -12 -60 -26 -375 -34 -500 -13 -140 24 -264 57 -352 94 -13 5
-33 13 -45 18 -95 37 -315 154 -418 223 -105 69 -312 219 -330 238 -25 27
-397 260 -415 260 -3 0 -23 8 -45 17 -75 33 -42 42 79 22z"/>
<path d="M3090 1194 c-71 -22 -130 -56 -155 -89 -28 -37 -55 -100 -55 -129 0
-32 27 -102 55 -145 29 -43 109 -105 128 -98 6 2 -1 11 -18 19 -33 18 -72 57
-98 100 -20 32 -23 147 -6 181 33 65 93 105 197 133 88 23 154 15 243 -32 39
-20 37 -3 -2 20 -48 28 -149 56 -199 55 -25 -1 -65 -7 -90 -15z"/>
<path d="M4998 1195 c-52 -15 -128 -54 -128 -67 0 -5 13 -2 29 6 89 47 155 55
243 32 104 -28 164 -68 197 -133 17 -34 14 -149 -6 -181 -26 -43 -65 -82 -98
-100 -16 -8 -24 -17 -18 -19 19 -7 99 55 128 98 29 44 55 113 55 147 0 13 -12
48 -26 78 -32 68 -82 107 -174 134 -75 22 -132 24 -202 5z"/>
<path d="M3080 720 c0 -5 7 -10 15 -10 8 0 15 5 15 10 0 6 -7 10 -15 10 -8 0
-15 -4 -15 -10z"/>
<path d="M5170 720 c0 -5 7 -10 15 -10 8 0 15 5 15 10 0 6 -7 10 -15 10 -8 0
-15 -4 -15 -10z"/>
<path d="M3128 703 c6 -2 18 -2 25 0 6 3 1 5 -13 5 -14 0 -19 -2 -12 -5z"/>
<path d="M5128 703 c6 -2 18 -2 25 0 6 3 1 5 -13 5 -14 0 -19 -2 -12 -5z"/>
<path d="M3183 683 c9 -2 25 -2 35 0 9 3 1 5 -18 5 -19 0 -27 -2 -17 -5z"/>
<path d="M5063 683 c9 -2 25 -2 35 0 9 3 1 5 -18 5 -19 0 -27 -2 -17 -5z"/>
</g>
</svg>
